<svg id="Ebene_1" data-name="Ebene 1" xmlns="http://www.w3.org/2000/svg" viewBox="0 0 793.7 793.7"><path d="M313.51,342.56c2,0,4.07.07,6.11.05.8,0,1.13.18,1.12,1.06-.05,11.55-.06,23.1-.1,34.66,0,1.43-.14,2.86-.23,4.66.53-.53.83-.81,1.11-1.1q8.26-8.17,16.55-16.34a1.64,1.64,0,0,1,1.25-.41c2.09.34,4.16.78,6.53,1.25l-16.25,15.5,18.73,22.62c-2.44,0-4.58-.09-6.71,0A3.67,3.67,0,0,1,338.2,403c-4.57-5.71-9.25-11.32-13.92-17a6.44,6.44,0,0,1-1,.95c-2.27,1.35-2.73,3.36-2.59,5.88.2,3.82.05,7.66.05,11.68h-7.22Z"/><path d="M313.51,432.8h2.62c0,.6.08,1.1.09,1.6,0,4.16,0,8.32.14,12.47.19,4.31,3.35,6.27,7.45,4.67a12.58,12.58,0,0,0,3.17-2.08,2,2,0,0,0,.4-1.4c0-4.56,0-9.12,0-13.67v-1.5h2.69v16c0,3,.34,3.33,3.26,3.25-.2.83.13,1.85-1.24,2.06-2.43.36-3.45-.23-4.55-2.93-.44.37-.85.72-1.27,1.05a8.45,8.45,0,0,1-8.89,1.34,5.7,5.7,0,0,1-3.66-4.68c-.05-.35-.15-.7-.23-1.05Z"/><path d="M708.07,339.44a28,28,0,0,1,4.29,2,9.56,9.56,0,0,1,3.65,10.3,9.88,9.88,0,1,1-12-12,5.87,5.87,0,0,0,.65-.26Zm-1.7,18.3a8.57,8.57,0,0,0,8.57-8.53,8.69,8.69,0,0,0-8.51-8.53,8.57,8.57,0,0,0-8.45,8.65A8.44,8.44,0,0,0,706.37,357.74Z"/><path d="M560.71,473c0-1.8,0-3.6,0-5.4a1.2,1.2,0,0,1,.89-1.34q20.43-7.46,40.85-15c11.75-4.3,23.57-8.39,35.88-10.77,5.83-1.12,11.76-1.75,17.64-2.6a10.78,10.78,0,0,1,2.26-.19,1.22,1.22,0,0,1,.84.81q.09,4.62,0,9.23a1.42,1.42,0,0,1-.87,1c-15.19,3.54-29.57,9.48-44.1,15-13.94,5.28-28,10.34-42.5,13.72-3.15.73-6.33,1.32-9.49,2-1,.2-1.43,0-1.4-1.11C560.75,476.56,560.71,474.76,560.71,473Z"/><path d="M516,403.28c0,4.53,0,9.17,0,13.8,0,1.15.36,2.78-.24,3.33s-2.24.31-3.42.32-2.69.35-3.21-.23-.33-2.17-.33-3.3c0-12.44,0-24.88,0-37.32,0-2-.06-4.08-.2-6.11-.18-2.45-.47-4.88-2.47-6.86,2-.84,3.86-1.65,5.74-2.38a1,1,0,0,1,.91.31c.84,1,1.62,2.12,2.52,3.35.53-.33,1.28-.81,2.06-1.25,6.23-3.55,12.49-3.58,18.65.11A16.86,16.86,0,0,1,543.1,376a23.57,23.57,0,0,1,.29,16.1c-3,9-11.16,13.74-20.8,12.72A52.24,52.24,0,0,1,516,403.28Zm20.82-18.16c-.05-.8-.06-1.44-.12-2.08-.4-4.12-1.75-7.81-5.05-10.51-4.36-3.56-10.58-3.24-15.5.21a1.43,1.43,0,0,0-.37,1q0,11.08,0,22.17a1.47,1.47,0,0,0,.42,1,13.1,13.1,0,0,0,15.44.28C535.7,394.11,536.73,389.71,536.83,385.12Z"/><path d="M469.77,403.28V415.7c0,1.36,0,2.72,0,4.08,0,.29-.42.81-.66.81-2.11.07-4.23,0-6.55,0V419q0-20.52,0-41c0-1.75-.1-3.51-.26-5.26a8.68,8.68,0,0,0-2.37-5.83c1.93-.81,3.72-1.6,5.55-2.3a1.24,1.24,0,0,1,1.12.25c.86,1,1.61,2.13,2.51,3.34.4-.25,1-.63,1.59-1a17.68,17.68,0,0,1,20.34.69,18.66,18.66,0,0,1,6.9,11.72A23.1,23.1,0,0,1,496,394.91a18.83,18.83,0,0,1-19.55,9.91A65,65,0,0,1,469.77,403.28Zm-.25-18.48h.25c0,1.84,0,3.68,0,5.52s-.19,3.74-.2,5.62a1.64,1.64,0,0,0,.65,1.11,12.51,12.51,0,0,0,8.2,2.47,11.64,11.64,0,0,0,11.06-7.9,19.32,19.32,0,0,0-.29-13.94,12.14,12.14,0,0,0-4.06-5.4c-4.52-3.38-10.62-2.8-15.21.48a1.39,1.39,0,0,0-.37,1C469.51,377.45,469.52,381.13,469.52,384.8Z"/><path d="M694.29,401c-.17,1-.29,2-.5,3a1.07,1.07,0,0,1-.56.68c-2.49.8-5,1-7.24-.6a16.34,16.34,0,0,1-2.65-3.26,8.33,8.33,0,0,0-.75.53,17.47,17.47,0,0,1-28.33-10.1c-1.64-7.47-.39-14.41,4.84-20.27a17.82,17.82,0,0,1,12.6-5.86,18.51,18.51,0,0,1,10.38,2.32c.34.19.71.33,1.17.53V342.14h4.92v1.65q0,25.79,0,51.57a20.52,20.52,0,0,0,.3,3.58c.32,1.81,1.15,2.46,3,2.41C692.36,401.33,693.25,401.14,694.29,401ZM659,385.29c0,.78,0,1.5.1,2.21a13.32,13.32,0,0,0,.24,1.54c1.19,5.67,4.15,9.87,10,11.44,5.12,1.38,9.63-.08,13.58-3.46a1.62,1.62,0,0,0,.35-1.15c0-6.68-.32-13.36,0-20a4.34,4.34,0,0,0-2.61-4.62c-5.59-3.16-12.19-2.6-16.68,1.65C660.39,376.25,659.12,380.57,659,385.29Z"/><path d="M405.12,384.51c.23,5.28,1.51,10,6.44,13,4,2.38,11.5,2.71,17.22-2.55l3.69,3.7a17.89,17.89,0,0,1-7.21,5.23c-7.53,2.76-14.71,2.39-21.06-3a17.89,17.89,0,0,1-5.85-11c-1-6-.32-11.8,3-17.07,5.11-8.09,16.28-11,24.12-6.17,4.91,3,6.86,7.7,7,13.26a1.91,1.91,0,0,1-.4,1.07c-2.64,3.57-2.65,3.57-7.13,3.57H405.12Zm.2-4.66H426A9.83,9.83,0,0,0,417,370C411,369.47,406.17,373.56,405.32,379.85Z"/><path d="M388.12,404.45H381v-1.58c0-7.68,0-15.36-.09-23a18.18,18.18,0,0,0-.92-5.15c-.91-2.84-3.12-4.1-6-4.28-3.73-.23-6.72,1.26-9.41,3.71a6.38,6.38,0,0,0-2.31,5.3c.16,7.79.06,15.6.06,23.39v1.62H355v-1.35q0-13.44,0-26.88a39.55,39.55,0,0,0-.28-4.07,8.2,8.2,0,0,0-2.31-5.21c2-.84,3.89-1.66,5.8-2.39.24-.09.74.21,1,.46a8.7,8.7,0,0,1,2.09,4.75c.11.7.2,1.4.32,2.22,1.12-1.25,2.08-2.45,3.18-3.53,5-4.89,13.36-5.5,18.59-1.34a12.84,12.84,0,0,1,4.84,10.4c.07,8.68,0,17.36,0,26C388.22,403.8,388.16,404.07,388.12,404.45Z"/><path d="M684.12,436.31c6,.34,13.43.55,20.78,1.2a160.86,160.86,0,0,1,35,6.66,29.42,29.42,0,0,1,4.18,1.77c.36.17.53.72.79,1.1-.41.19-.83.55-1.24.53-2.54-.11-5.09-.25-7.63-.49-4.33-.41-8.64-1.09-13-1.33-8.21-.47-16.43-.87-24.65-1a182.39,182.39,0,0,0-27.22,1.85c-3.08.42-6.15.91-9.22,1.4-.73.12-1-.06-1-.83q0-4.38,0-8.76c0-.72.28-1,1-1,1.47-.11,2.94-.32,4.41-.39C671.76,436.76,677.26,436.57,684.12,436.31Z"/><path d="M559,467.07c0,4.23,0,8.31,0,12.38,0,.28-.73.74-1.17.8-3.16.45-6.33,1-9.51,1.16-6,.3-12,.63-18,.44a158.41,158.41,0,0,1-45.75-8.62c-1.56-.52-3.12-1-4.64-1.6a6.23,6.23,0,0,1-2-1.28c-.7-.71-.42-1.44.56-1.46a9.1,9.1,0,0,1,3.17.41c9,3.3,18.34,4.52,27.87,4.66a189.27,189.27,0,0,0,27.23-1.88A131.81,131.81,0,0,0,558,467.3Z"/><path d="M604,401c-.19,1.1-.34,2.09-.54,3.05a.91.91,0,0,1-.49.59c-2.49.81-5,1-7.22-.59-1.06-.79-1.71-2.12-2.64-3.34l-.82.62c-3.93,2.89-8.25,4.42-13.15,3.56-4.06-.72-7.2-2.83-8.4-6.94a11.47,11.47,0,0,1,2.54-11.62c2.86-3.09,6.69-4.26,10.7-4.87,2.91-.45,5.85-.74,8.91-1.12-.11-2.61.11-5.26-1-7.73-1.26-2.73-3.68-3.53-6.42-3.55a24.09,24.09,0,0,0-10.72,2.65c-.54.26-1.08.53-1.62.78-.06,0-.15,0-.37,0,0-1.2,0-2.43,0-3.65a.89.89,0,0,1,.42-.63c5-2.67,10.2-4.26,15.89-3.09s8.5,4.55,8.64,10.32c.16,6.55.12,13.11.2,19.66a25.38,25.38,0,0,0,.27,3.7c.33,2.06,1.11,2.67,3.17,2.59C602.12,401.32,603,401.14,604,401Zm-11.18-17.3c-2.81.42-5.53.79-8.23,1.27a12.44,12.44,0,0,0-6.63,3.12,7.84,7.84,0,0,0-2.37,7.86c.7,2.91,3,4.26,5.72,4.79,4.18.81,7.76-.75,11.12-3a1.1,1.1,0,0,0,.38-.81C592.79,392.6,592.78,388.29,592.78,383.7Z"/><path d="M609.28,366.73c1.35-.65,2.55-1.27,3.79-1.78a1.17,1.17,0,0,1,1,.36,8.61,8.61,0,0,1,2.1,4.61c.11.62.21,1.24.31,1.86l.42.32a7,7,0,0,1,.75-1.16c2.44-2.66,5.12-4.95,8.75-5.82,9.13-2.18,16.6,3.34,16.83,12.75.21,8.75,0,17.51,0,26.27a5.33,5.33,0,0,1-.08.53h-5v-1.41c0-7.72,0-15.43,0-23.15a23.61,23.61,0,0,0-.31-3.94c-.8-4.5-5.15-7.51-9.92-7.11-4.48.37-7.73,2.8-10.54,6a2.55,2.55,0,0,0-.36,1.56q0,13.19,0,26.38v1.64h-5c0-.49-.09-1-.09-1.49q0-12.94,0-25.9c0-1.44-.08-2.88-.22-4.31A9.4,9.4,0,0,0,609.28,366.73Z"/><path d="M559.9,404.67H555V342.14h4.89Z"/><path d="M471.9,433c0,.61,0,1,0,1.47s0,.62-.09,1.1l-5.13-.53a2.77,2.77,0,0,0,.36.58c2.18,2.14,2.43,4.69,1.51,7.42a7,7,0,0,1-5.88,4.87,14.77,14.77,0,0,1-4.5-.05c-1.14-.18-1.43.48-1.79,1.16a1.36,1.36,0,0,0,.48,2,7.24,7.24,0,0,0,2,.76c2,.45,4,.82,6,1.24a15.28,15.28,0,0,1,1.74.44,6.24,6.24,0,0,1,2.34,10.38c-2.64,2.81-6.05,3.41-9.67,3.23a11.26,11.26,0,0,1-5.68-1.71c-3.93-2.56-3.84-7.53.19-9.89.72-.42,1.49-.77,2.45-1.25-1.57-.74-3.08-1.37-3.07-3.34s1.31-2.81,3-4a5.18,5.18,0,0,1-.73-.22c-3.17-1.78-4-5.1-3.32-8.52a7.28,7.28,0,0,1,6.87-5.73,36,36,0,0,1,4.83.4c1.55.11,3.1.16,4.66.21C469.54,433,470.62,433,471.9,433ZM461,464.5a30.73,30.73,0,0,0,4-1.31,3.51,3.51,0,0,0,2-3.66,3.21,3.21,0,0,0-2.47-2.92c-1.56-.5-3.2-.71-4.75-1.23-2.06-.7-3.39.34-4.54,1.74a3.76,3.76,0,0,0,.8,5.67A10.73,10.73,0,0,0,461,464.5ZM455.77,440c0,2.84,1.06,4.66,3.15,5.35a4.5,4.5,0,0,0,6.1-3.6,6.56,6.56,0,0,0-1-5.13,4.56,4.56,0,0,0-5.21-1.66C456.82,435.58,455.78,437.31,455.77,440Z"/><path d="M449.08,404.51h-7V365.43h7Z"/><path d="M422.35,440.68c0-.51-.05-.91-.07-1.31-.09-2.57-1.28-3.86-3.82-3.6a24.94,24.94,0,0,0-4.9,1.39,15.79,15.79,0,0,0-1.82.9c0-1.12,0-2.05,0-3a.94.94,0,0,1,.46-.62c2.95-1.62,6.06-2.5,9.44-1.68,2.77.67,4.24,2.28,4.39,5.12.19,3.34.14,6.7.2,10.06a15.44,15.44,0,0,0,.07,1.67c.2,1.5.74,1.83,3.12,1.93a15,15,0,0,1-.45,2.06,1.31,1.31,0,0,1-.83.65c-2.28.56-4-.23-5.34-2.47L421.2,453a7.85,7.85,0,0,1-5,1.45,5.57,5.57,0,0,1-5.38-3.83,6.44,6.44,0,0,1,2-7.16c2.16-1.6,4.72-2.06,7.3-2.45C420.84,440.86,421.55,440.78,422.35,440.68Zm-.07,2.41c-2.22.39-4.43.69-6.32,2a3.71,3.71,0,0,0-1.45,4,3.11,3.11,0,0,0,3.13,2.3A6.76,6.76,0,0,0,422,450a1.39,1.39,0,0,0,.31-1C422.3,447.09,422.28,445.19,422.28,443.09Z"/><path d="M485.8,440.67c0-.53,0-.92,0-1.32-.06-2.46-1.31-3.84-3.75-3.58a27.83,27.83,0,0,0-5.24,1.51,11.61,11.61,0,0,0-1.56.77c0-1.08,0-2,0-2.88a1.09,1.09,0,0,1,.49-.73,13.09,13.09,0,0,1,8.86-1.8c3.28.58,4.92,2.56,5,6,.09,2.88,0,5.76,0,8.64,0,.4,0,.8,0,1.2,0,2.44.67,3.05,3.23,3a15.16,15.16,0,0,1-.44,2.17,1.38,1.38,0,0,1-.88.61c-2.22.51-3.79-.22-5.32-2.41-.86.56-1.69,1.19-2.59,1.68-2.47,1.34-5.85,1.12-7.7-.46a6.45,6.45,0,0,1,.68-9.91,16.26,16.26,0,0,1,7-2.22Zm0,2.3c-1.65.44-3.24.77-4.77,1.3a5.85,5.85,0,0,0-2.19,1.41,3.32,3.32,0,0,0,1.15,5.51c2.07.65,3.85-.14,5.52-1.27a1,1,0,0,0,.28-.72C485.81,447.21,485.8,445.22,485.8,443Z"/><path d="M496.2,432.85h3.72c0,.44.06.86.06,1.28q0,5.52,0,11a17.26,17.26,0,0,0,.08,2.16c.45,3.25,2.55,4.75,5.69,3.77a13.29,13.29,0,0,0,3.65-2.35c.28-.22.32-.87.32-1.33,0-4.35,0-8.71,0-13.07,0-.46,0-.93.07-1.46h3.78c0,.42.06.85.06,1.27v13.91c0,2.95.2,3.19,3.2,3.6-.49.88.17,2.23-1.3,2.61a4.29,4.29,0,0,1-4.91-1.81c-.19-.38-.31-.79-.52-1.31a9.91,9.91,0,0,1-5.31,3.16c-5,.91-8.65-2-8.69-7.09,0-4.43,0-8.87,0-13.31C496.13,433.6,496.17,433.29,496.2,432.85Z"/><path d="M390.29,449.46l1.35,1.53a10.29,10.29,0,0,1-8.45,3.37C377.1,454,373,449,373.55,442.65c.35-4,1.9-7.38,5.72-9.2,5.06-2.41,11.71-.28,12.33,6.82a2.17,2.17,0,0,1-2.22,2.45l-11.88-.05h-.92a7.93,7.93,0,0,0,3.3,8C382.91,452.69,386.39,452.32,390.29,449.46ZM389,440.67c-.23-3.65-2.74-6-6.18-5.92a6.29,6.29,0,0,0-6.2,5.92Z"/><path d="M335.88,433.64c.26-.16.39-.25.53-.32,1.9-.95,2.48-.67,3,1.43.12.46.21.93.35,1.59.51-.49,1-.9,1.39-1.33a7.88,7.88,0,0,1,8.37-2.09A6.18,6.18,0,0,1,354,439c.17,4.87,0,9.75,0,14.62a.6.6,0,0,1-.09.22c-.07,0-.13.11-.2.12-2.36.26-2.36.26-2.36-2.12,0-3.71,0-7.43,0-11.15,0-2.27-.52-4.28-2.87-5.33-2.67-1.19-7.09.31-8.39,2.93a2.64,2.64,0,0,0-.15,1.17q0,6.35,0,12.7c0,2,0,2-2,1.86a7,7,0,0,1-.72-.12v-1.42c0-4.67,0-9.35,0-14C337.25,436.74,337.15,435.06,335.88,433.64Z"/><path d="M436.8,453.88h-3.69v-33h3.69Z"/><path d="M446.87,453.86h-3.76c0-.49-.08-.95-.08-1.41,0-10.08,0-20.15,0-30.23,0-1.24.37-1.64,1.56-1.51a22,22,0,0,0,2.31,0Z"/><path d="M361.75,435.14c-1.3,0-2.45.06-3.59,0a1.32,1.32,0,0,1-.88-.75c-.21-.61.17-1,.82-1,.39,0,.79,0,1.19-.05,2.28-.14,2.94-.72,3.33-3a15.82,15.82,0,0,0,.29-2.37c0-.81.49-1,1.08-.82a1.27,1.27,0,0,1,.66.94c.07,1.59,0,3.19,0,4.94h5.45c.44,2,.37,2.12-1.53,2.12h-4.14c0,1.86,0,3.57,0,5.28,0,2.95,0,5.91.17,8.86.1,2,1,2.74,2.94,2.66a30.82,30.82,0,0,0,3.87-.62c.6,1.9.63,2.07-1.35,2.45A16.28,16.28,0,0,1,365,454,3.57,3.57,0,0,1,362,450.7a14.08,14.08,0,0,1-.2-2.14c0-4,0-8,0-12Z"/><path d="M399.42,453.79c-.21.1-.24.13-.28.13-2.43.32-2.42.32-2.43-2.06q0-6.72-.11-13.43a7.1,7.1,0,0,0-1.35-4.84l2.07-1c1.16,1,1.17,1,1.83,4.89l.68-.85c.58-.76,1.11-1.57,1.75-2.28,1.94-2.12,4.12-2.39,6.73-.83l-.57,2.09a4.56,4.56,0,0,1-.48-.07,6.13,6.13,0,0,0-7.76,3.9,3.75,3.75,0,0,0-.08,1.07v13.3Z"/><path d="M441.17,351a4.43,4.43,0,1,1,4.47,4.78A4.54,4.54,0,0,1,441.17,351Z"/><path d="M480.83,425.14a2.34,2.34,0,1,1-2.41-2.49A2.23,2.23,0,0,1,480.83,425.14Z"/><path d="M484.84,425.15a2.34,2.34,0,1,1,2.37,2.55A2.29,2.29,0,0,1,484.84,425.15Z"/><path d="M707.58,349.78l3.34,4.65a1.47,1.47,0,0,1-2.1-.58c-.59-1-1.35-1.79-1.92-2.75s-1.38-1.2-2.6-.86c0,1.1,0,2.24,0,3.39,0,.86-.29,1.2-1.31.82v-3c0-2.2,0-4.39,0-6.59,0-.69.19-1.08.93-1.05a24.71,24.71,0,0,1,3.22.14,2.7,2.7,0,0,1,2.49,2.38,2.89,2.89,0,0,1-1.52,3.12ZM704.4,345v4c1.37,0,2.85.47,3.58-1.06a2.46,2.46,0,0,0-.11-2.09C707.06,344.65,705.73,344.83,704.4,345Z"/><path d="M216.87,310.77V481.43c-.4,0-.79,0-1.18,0H47V456.76h1.12c4.95,0,9.9,0,14.85,0,.73,0,1-.14,1-1-.06-2.92,0-5.85,0-8.77,0-.28,0-.55,0-.85H59.78v5.63H47V437.74H63.88V427.26H59.8v5.62H56.65v-5.31H52.54v5.3h-3.1v-5.69H47V413.39l15.51,6.46,2-5.12c-1.07-.37-2.06-.73-3.07-1a.79.79,0,0,1-.67-.88c0-1.77,0-3.55,0-5.32a.76.76,0,0,1,.66-.88c1-.29,2-.64,3.09-1l-2-5.14L47,406.81V393.63H63.29c.45,0,.67-.14.66-.63-.06-2.53.12-5.09-.19-7.58a8.67,8.67,0,0,0-6.32-7.59,8.81,8.81,0,0,0-9.55,2.52c-.3.31-.56.66-.93,1.08V370.55c.37,0,.7-.05,1-.05H63.18c.42,0,.77,0,.77-.61,0-3.12,0-6.24,0-9.36,0-.2-.26-.57-.41-.58-1.2,0-2.4,0-3.72,0v5.62H56.69v-1c0-1.24,0-2.48,0-3.71,0-.23-.27-.63-.42-.63-1.2-.06-2.4,0-3.7,0v5.33H49.46V360L47,359.86v-9.75H63.88v-4.8H56.81c2.3-1.47,4.38-2.79,6.45-4.13.26-.17.64-.45.65-.69.05-1.83,0-3.67,0-5.75l-3.84,2.95-3.74,2.85a4.85,4.85,0,0,0-3.93-3.86,6,6,0,0,0-5.47,1.4V310.81H215.52C216,310.81,216.42,310.78,216.87,310.77ZM140,329.93a66.39,66.39,0,0,0-63.84,48l9.17,2.56A56.72,56.72,0,0,1,140,339.47v37.34l5.08-2.71c1-.53,2.06-1,3-1.62,1.78-1.18,3.48-2.47,5.23-3.7a8.43,8.43,0,0,1,3.85-1.76,2.32,2.32,0,0,0,.75-.35c.54-.28,1.08-.57,1.61-.88s.9-.56,1.33-.87c.59-.42,1.13-.9,1.74-1.29a22.06,22.06,0,0,0,4.52-3.48,8.1,8.1,0,0,1,2.56-1.69,2.08,2.08,0,0,1,1.62.1c.65.36.52,1.11.41,1.76a4.29,4.29,0,0,1-3.23,3.41,7.28,7.28,0,0,0-3.42,2.21,16.14,16.14,0,0,1-1.4,1.34c-2.58,2.5-6,3.64-8.94,5.59-1.11.75-2.27,1.41-3.42,2.1-.24.14-.5.24-.75.38l-2.68,1.55c-.44.26-.85.54-1.3.77-.82.42-1.69.76-2.48,1.21-1.38.79-2.72,1.64-4.12,2.5v-4.12l-.22-.12c-.44.44-.86.9-1.32,1.32a2,2,0,0,1-.81.51,6.36,6.36,0,0,0-3.27,2.12,9,9,0,0,1-1.13,1c-.91.74-1.88,1.42-2.72,2.23s-1.36,1.63-2.08,2.42-1.65,1.75-2.5,2.59a16.82,16.82,0,0,1-1.49,1.31c-.48.39-1,.67-1.49,1.09-1.31,1.24-2.57,2.52-3.87,3.78a4.08,4.08,0,0,1-.5.29c-1,.72-1.91,1.44-2.85,2.18-.09.07-.11.25-.13.38a2.87,2.87,0,0,1-4.41,1.85,1.49,1.49,0,0,0-.83-.38,3.49,3.49,0,0,1-2.65-1.25,6.71,6.71,0,0,0-.58-.48,3.71,3.71,0,0,0-2.43-1.14c-.62,0-1.24-.46-1.88-.64s-1.65.09-1.86-1c0-.06-.13-.11-.21-.13l-2.43-.56a2.47,2.47,0,0,0-2.47-1.39,4.14,4.14,0,0,1-2.51-.81,3.82,3.82,0,0,0-2.56-.58c-1.3,0-2.6-.19-3.9-.28a3.39,3.39,0,0,0-.9,0,8.1,8.1,0,0,1-2,.29,2.35,2.35,0,0,0-2.1.75,2.37,2.37,0,0,1-2.54.89c-.5-.17-.82.1-1.13.51s-.94.94-1.34,1.47a3.59,3.59,0,0,0-.85,1.59c0,.55-.1.81-.63.95A3.31,3.31,0,0,0,73,400.22c-.38,1.21-.73,2.42-1.07,3.63a5.07,5.07,0,0,0-.22,1.49c0,1.76.13,3.52.24,5.27.1,1.53.27,3.06.4,4.58,0,.14-.06.29,0,.42a4.69,4.69,0,0,0,.49,1.64c.85,1.11,1.86,2.1,1.86,3.64a.52.52,0,0,0,.1.23c.61,1.05,1.24,2.08,1.82,3.14.78,1.43,2.21,2.17,3.34,3.24a1.77,1.77,0,0,1,.58.74A3.59,3.59,0,0,0,83.16,431a2.73,2.73,0,0,1,1.41.84,4.16,4.16,0,0,0,2.35,1.64,1.14,1.14,0,0,1,.56.44c.26.35.43.77.7,1.1s.7.58,1,.93a4.49,4.49,0,0,0,2.4,1.58c2.47.72,4.73,1.79,6,4.2a1.26,1.26,0,0,0,.56.48c.93.44,1.86.89,2.83,1.25.78.29,1.62.45,2.42.68l2.41.71a7,7,0,0,0,2.17.53,2.51,2.51,0,0,1,1.9.81,4.28,4.28,0,0,0,2.4,1.16,34,34,0,0,1,7.12.48,9.87,9.87,0,0,0,3,.09,25.59,25.59,0,0,0,4.17-.9,21.21,21.21,0,0,0,3.2-1.42,1.09,1.09,0,0,0,.57-.74,5.5,5.5,0,0,0-.31-2.46,3.83,3.83,0,0,1-.41-2.55.88.88,0,0,1,.7-.88,2.88,2.88,0,0,0,1.82-3.86c-.37-1-.54-2.16-.83-3.23a3.36,3.36,0,0,0-.39-1,2.13,2.13,0,0,1-.27-2.5,1.09,1.09,0,0,0,.08-.65c-.3-1.73.13-3.61-1.05-5.17-.08-.1,0-.28-.1-.4a8.19,8.19,0,0,0-.7-1.31c-1-1.33-2-2.63-3-4a.62.62,0,0,1-.13-.46c.4-1.19-.37-1.87-1.05-2.64A14.54,14.54,0,0,1,123.5,412a13,13,0,0,0-.91-1.48c-.56-.68-1.25-1.26-1.82-1.95-1-1.18-1.94-2.38-2.82-3.64a1.87,1.87,0,0,1-.28-1.48,6.58,6.58,0,0,1,1.39-2.1c1-1,2.19-1.92,3.29-2.89.23-.2.42-.44.64-.66.82-.79,1.64-1.58,2.47-2.36a11,11,0,0,0,2.06-2,9.92,9.92,0,0,1,3.23-3.34,3.2,3.2,0,0,0,.61-.78,10.64,10.64,0,0,1,2.67-2.85,10.8,10.8,0,0,0,3.23-2.5,14.87,14.87,0,0,1,2.77-2.14v69.38a55.07,55.07,0,0,0,22.81-5.14c15.6-7.37,25.81-19.47,31-35.91l9,2.53a65.36,65.36,0,0,1-18,29.75c-12.56,11.81-27.53,17.77-44.75,18.23v16h72.07V315.51H140Z"/><path d="M54.61,388.78c-1.46,0-2.93,0-4.39,0-.58,0-.75-.19-.76-.78-.06-4.33,3.62-6.84,7.56-5.14,1.9.82,3.33,3.64,2.76,5.55-.05.17-.46.34-.71.34C57.58,388.79,56.09,388.78,54.61,388.78Z"/><path d="M53.64,345.3h-4.5c-.07-1.22-.11-2.41.91-3.31a2.23,2.23,0,0,1,2.52-.12C53.79,342.7,53.62,344,53.64,345.3Z"/><path d="M56.25,412.05c-.35-.11-.58-.18-.82-.27l-4.32-1.67,5.14-1.94Z"/><path d="M123.76,439.66c-.05.37-.07.54-.1.71-.35,2.07-.48,2.24-2.52,2s-4.37-.65-6.55-1a4.59,4.59,0,0,1-.77-.31c-.46-.16-.92-.29-1.39-.43a4.33,4.33,0,0,1-1.39-.41,12.35,12.35,0,0,0-4.37-1.86c-.27-.06-.62-.06-.79-.24a3.84,3.84,0,0,0-2.89-.92,4.65,4.65,0,0,1-3.24-1.56,4,4,0,0,0-1-.54,5,5,0,0,1-1-.57c-1.32-1.2-2.65-2.38-3.88-3.66A5.07,5.07,0,0,0,91.33,429c-.08,0-.17-.16-.2-.26a3,3,0,0,0-2.35-1.84,5.32,5.32,0,0,1-4-3.29.34.34,0,0,0-.09-.14c-1.19-.8-1.63-2.16-2.43-3.25a2,2,0,0,0-1.66-1c-.54,0-.71-.38-.77-.83a10.68,10.68,0,0,0-1.72-4.24,5.49,5.49,0,0,1-.64-2.56c0-1.45.16-2.91.23-4.37,0-.53-.09-1.06-.08-1.59,0-1.49.06-3,.09-4.46,0-.49.19-.64.74-.6a5.56,5.56,0,0,1,4,2.1,2.72,2.72,0,0,0,1.22.88A4.51,4.51,0,0,1,86.17,405c.15.2.55.2.83.3.69.26,1.39.51,2.06.81a.73.73,0,0,1,.31.53,1.18,1.18,0,0,0,1.23,1.24A2.93,2.93,0,0,1,93,409c.53.64,1.48.9,2.15,1.44s1.22,1.21,1.85,1.79,1.27,1.14,1.92,1.69c.19.15.46.2.66.35a12.06,12.06,0,0,0,3.51,1.94,3.84,3.84,0,0,1,1.46,1.09,14.83,14.83,0,0,0,4.33,3.41,3.93,3.93,0,0,1,1.42,1.88c.21.44.34.76.86.88.25,0,.46.29.69.44.85.57,1.72,1.12,2.56,1.72a1.5,1.5,0,0,1,.64.73,7.65,7.65,0,0,0,3.82,4.59,2.14,2.14,0,0,1,.6.6c.42.58.74,1.25,1.21,1.79a7.62,7.62,0,0,1,1.89,3.13,14.7,14.7,0,0,0,.82,1.93C123.54,438.88,123.67,439.36,123.76,439.66Z"/><path d="M87.29,397.11a14.05,14.05,0,0,1,1.79-.33,6.52,6.52,0,0,1,1.37.18A4.62,4.62,0,0,1,93,398.62a2.56,2.56,0,0,0,1.2.55,53.58,53.58,0,0,0,6.88,1.52,8.57,8.57,0,0,1,4.22,1.42,11.43,11.43,0,0,0,3.56,1.14,1.46,1.46,0,0,1,1.26,1.45.53.53,0,0,1,0,.25c-.56,1-.91,2.23-1.74,2.79a5.25,5.25,0,0,0-1.9,2.75c-.45,1.17-1,1.27-1.89.47A9.69,9.69,0,0,1,102,408.1a1.13,1.13,0,0,0-.6-.44c-1.5-.51-3-.94-4.51-1.52a5.48,5.48,0,0,1-1.35-1.08c-.77-.66-1.53-1.33-2.31-2a5.39,5.39,0,0,1-1-.77,3,3,0,0,0-2.18-1.26,2.08,2.08,0,0,1-1.87-1.21,1,1,0,0,0-.67-.44c-1.06-.18-1.56-1-2.12-1.77,0-.07.18-.51.33-.54a10.45,10.45,0,0,1,1.49-.14Z"/><path d="M110.39,413.86a12.29,12.29,0,0,0,0-1.26c-.06-.46.05-.73.55-.85.22-.05.52-.23.57-.42.36-1.24,1.68-1.42,2.44-2.21a1,1,0,0,1,.94.16c.74.83,1.4,1.74,2.08,2.62,0,0,0,.06.06.06,1.62.57,1.5,2.3,2.29,3.42l0,.08c1,1.37,2,2.78,3,4.09a2,2,0,0,1,.5,2.07,1.3,1.3,0,0,0,.25,1.31c.5.7.89,1.49,1.33,2.24a13.62,13.62,0,0,1,.91,1.5c.19.43.42,1.07.24,1.39a1.93,1.93,0,0,1-1.32.66c-.58.07-.79-.42-1-1a4.77,4.77,0,0,0-.92-1.48c-1.25-1.43-2.55-2.83-3.86-4.22a1.39,1.39,0,0,0-.79-.51,1.73,1.73,0,0,1-1.66-1.2,4.75,4.75,0,0,0-2.67-2.83,19.23,19.23,0,0,1-2.53-1.65C110,415.28,110.51,414.37,110.39,413.86Z"/><path d="M180.23,347.08c1,0,2-.07,3,0a1.77,1.77,0,0,1,1.81,2.21,21.91,21.91,0,0,1-.67,2.59c-.18.73-.27,1.47-.47,2.19-.08.27-.3.65-.53.72-1.68.48-3.25,1.34-5.09,1.35a7.23,7.23,0,0,0-2.66.69c-.78.33-1,0-1.1-.63a2.88,2.88,0,0,1,0-1.17c.43-1.56.86-3.12,1.38-4.66A13.81,13.81,0,0,1,177,348.3C177.73,347,179,347.06,180.23,347.08Z"/><path d="M150.16,359.07a1,1,0,0,0,.72,1.27,1.33,1.33,0,0,1,.85,1.66,25.44,25.44,0,0,0,.1,3,2.06,2.06,0,0,1-.5,1.45c-.58.44-1.18,0-1.72-.42a8.14,8.14,0,0,0-2-1.3,11.4,11.4,0,0,1-4.37-3.33,2.11,2.11,0,0,1,.27-2.77,5.86,5.86,0,0,1,4.23-2A2.17,2.17,0,0,1,150.16,359.07Z"/><path d="M160.87,359.87a6,6,0,0,1-1.66-.22,2.59,2.59,0,0,1-1.26-1.06,1.79,1.79,0,0,0-1.37-1.19,1,1,0,0,1-.58-.73,7.31,7.31,0,0,1,1.83-5.1,2.78,2.78,0,0,1,3.51-.39c.63.4,1.34.69,2,1.09a1.41,1.41,0,0,1,.61,1.88,6.46,6.46,0,0,0-.5,3.86c.18.74-.94,1.73-1.88,1.83-.22,0-.45,0-.68,0Z"/><path d="M177.26,369.09A18.39,18.39,0,0,0,178,371c.43.86.27,1.45-.68,1.59a4.94,4.94,0,0,1-2-.19,21.17,21.17,0,0,0-5.22-1.26,1.43,1.43,0,0,1-1.29-1.46,15,15,0,0,1,.16-2.84,1.11,1.11,0,0,1,1.26-1,6.44,6.44,0,0,0,3.28-.84,2.07,2.07,0,0,1,1.88.05C176.48,366,177.63,367,177.26,369.09Z"/><path d="M166.75,379.85c0,.36,0,.73,0,1.09,0,.56-.26.89-.88.89-.26,0-.67.07-.75.24-.35.76-.88.54-1.48.43a4.82,4.82,0,0,1-3.21-2.28,45.74,45.74,0,0,1-2.57-4.72c-.09-.19.22-.79.45-.87a4.57,4.57,0,0,1,3.37-.11,37.52,37.52,0,0,1,3.65,1.81,3.11,3.11,0,0,1,1.34,2.42,6.72,6.72,0,0,1,0,1.1Z"/></svg>