<?xml version="1.0" encoding="utf-8"?>
<!-- Generator: Adobe Illustrator 26.3.1, SVG Export Plug-In . SVG Version: 6.00 Build 0)  -->
<svg version="1.1" id="Ebene_1" xmlns="http://www.w3.org/2000/svg" xmlns:xlink="http://www.w3.org/1999/xlink" x="0px" y="0px"
	 viewBox="0 0 100 100" style="enable-background:new 0 0 100 100;" xml:space="preserve">
<style type="text/css">
	.st0{fill:#070013;}
</style>
<g>
	<g>
		<path class="st0" d="M41,66.2v2.1c0,0.6-0.6,1.2-1.2,1.2s-1.2-0.6-1.2-1.2v-2.1h-0.9v2.1c0,1.1,1,2.1,2.1,2.1c1.1,0,2.1-1,2.1-2.1
			v-2.1H41z"/>
		<path class="st0" d="M44.6,66.1c-1.1,0-2.1,1-2.1,2.1v2.1h0.9v-1h2.4v1h0.9v-2.1C46.6,67,45.7,66.1,44.6,66.1z M45.8,68.4h-2.4
			v-0.2c0-0.6,0.6-1.2,1.2-1.2s1.2,0.6,1.2,1.2V68.4z"/>
		<polygon class="st0" points="51.8,67.1 53.4,67.1 53.4,70.3 54.3,70.3 54.3,67.1 56,67.1 56,66.2 51.8,66.2 		"/>
		<rect x="56.6" y="66.2" class="st0" width="0.9" height="4.1"/>
		<polygon class="st0" points="58.1,66.2 58.1,70.3 62.2,70.3 62.2,69.4 59,69.4 59,68.7 61.5,68.7 61.5,67.8 59,67.8 59,67.1 
			62.2,67.1 62.2,66.2 		"/>
		<path class="st0" d="M37.2,68.2c0-1.2-1-2.1-2.1-2.1c-1.2,0-2.1,1-2.1,2.1c0,1.2,1,2.1,2.1,2.1c0.4,0,0.8-0.2,1.1-0.3l0.4,0.4
			l0.6-0.6l-0.4-0.4C37,69.1,37.2,68.7,37.2,68.2z M35.1,67c0.7,0,1.2,0.6,1.2,1.2c0,0.2-0.1,0.3-0.1,0.5l-0.4-0.4L35.2,69l0.4,0.4
			c-0.2,0.1-0.3,0.1-0.5,0.1c-0.7,0-1.2-0.6-1.2-1.2C33.8,67.6,34.4,67,35.1,67z"/>
		<path class="st0" d="M51.4,67.8c0-0.8-0.6-1.4-1.4-1.5h-2.8v4.1h0.9v-1h1.8l0.6,1h1L50.8,69C51.2,68.7,51.4,68.2,51.4,67.8z
			 M50.6,67.8c0,0.3-0.2,0.6-0.6,0.6h-1.8v-1.3h1.8C50.3,67.1,50.6,67.4,50.6,67.8z"/>
		<path class="st0" d="M67,67.8c0-0.8-0.6-1.4-1.4-1.5h-2.8v4.1h0.9v-1h1.8l0.6,1h1L66.3,69C66.7,68.7,67,68.2,67,67.8z M66.1,67.8
			c0,0.3-0.2,0.6-0.6,0.6h-1.8v-1.3h1.8C65.8,67.1,66.1,67.4,66.1,67.8z"/>
	</g>
	<g>
		<path class="st0" d="M50,39.2c-4.1,0-7.4,3.3-7.4,7.4s3.3,7.4,7.4,7.4c1,0,2-0.2,2.9-0.6l0.6-0.2L51,50.6l3-3l2.6,2.6l0.2-0.6
			c0.5-1,0.6-2,0.6-3C57.4,42.5,54.1,39.2,50,39.2z"/>
		<path class="st0" d="M50,29.5c-9.4,0-17,7.6-17,17s7.6,17,17,17c5.8,0,17,0,17,0s0-13.4,0-17C67,37.1,59.4,29.5,50,29.5z
			 M58.7,58.3l-2.2-2.2l-0.2,0.2c-1.8,1.2-4,1.8-6.2,1.8c-6.4,0-11.5-5.2-11.5-11.5c0-6.4,5.2-11.5,11.5-11.5s11.5,5.2,11.5,11.5
			c0,2.2-0.6,4.4-1.9,6.3l-0.2,0.2l2.2,2.2L58.7,58.3z"/>
	</g>
</g>
</svg>
