<?xml version="1.0" encoding="utf-8"?>
<!-- Generator: Adobe Illustrator 26.3.1, SVG Export Plug-In . SVG Version: 6.00 Build 0)  -->
<svg version="1.1" id="Ebene_1" xmlns="http://www.w3.org/2000/svg" xmlns:xlink="http://www.w3.org/1999/xlink" x="0px" y="0px"
	 viewBox="0 0 100 100" style="enable-background:new 0 0 100 100;" xml:space="preserve">
<style type="text/css">
	.st0{fill:#1E1E1C;}
	.st1{fill:#FFFFFF;}
</style>
<g>
	<g>
		<rect x="37.8" y="37.2" class="st0" width="49" height="24.5"/>
		<g>
			<path class="st1" d="M65.3,52.7v-4.5h-0.9V51l-1.8-2.8h-0.8v4.5h0.9v-2.8l1.8,2.8H65.3z M61,52.7v-0.8h-2.1v-1.1h1.8V50h-1.8v-1
				H61v-0.8h-3v4.5L61,52.7L61,52.7z M56.9,52.7v-4.5H56l-1.2,2.5l-1.2-2.5h-0.9v4.5h0.9V50l0.9,1.7h0.6L56,50v2.6H56.9z M52,52.7
				v-0.8h-2.1v-1.1h1.8V50h-1.8v-1H52v-0.8h-3v4.5L52,52.7L52,52.7z M47.2,49.6c0,0.3-0.2,0.6-0.6,0.6h-0.8v-1.2h0.8
				C47,48.9,47.2,49.2,47.2,49.6 M48.3,52.7l-1-1.9c0.4-0.2,0.8-0.6,0.8-1.2c0-0.7-0.6-1.4-1.4-1.4h-1.8v4.5h0.9v-1.8h0.6l0.9,1.8
				C47.2,52.7,48.3,52.7,48.3,52.7z M43.1,51.3c0,0.3-0.2,0.6-0.6,0.6h-1v-1.1h1C42.9,50.8,43.1,51,43.1,51.3 M43,49.5
				c0,0.3-0.2,0.6-0.6,0.6h-0.9v-1h0.9C42.8,48.9,43,49.2,43,49.5 M44,51.4c0-0.6-0.3-0.9-0.6-1c0.2-0.1,0.6-0.4,0.6-1
				c0-0.8-0.5-1.3-1.4-1.3h-1.8v4.5h1.9C43.4,52.7,44,52.2,44,51.4"/>
			<path class="st1" d="M69.2,58.8h-0.6v0.6h0.6V58.8z M69.2,54.8h-0.6l0.1,3.3h0.4L69.2,54.8z M67.2,59.3v-4.5h-0.5v3.6l-2.4-3.6
				h-0.5v4.5h0.5v-3.6l2.4,3.6H67.2z M62.9,59.3v-0.4h-2.3v-1.6h2v-0.4h-2v-1.6h2.3v-0.4h-2.8v4.5L62.9,59.3L62.9,59.3z M58.6,58.1
				c0,0.5-0.3,0.8-0.9,0.8h-1.2v-1.7h1.2C58.3,57.2,58.6,57.6,58.6,58.1 M58.5,56c0,0.6-0.4,0.8-0.9,0.8h-1.2v-1.6h1.2
				C58.1,55.2,58.5,55.5,58.5,56 M59.1,58.1c0-0.6-0.3-0.9-0.7-1c0.4-0.2,0.6-0.5,0.6-1c0-0.7-0.6-1.2-1.4-1.2H56v4.5h1.8
				C58.5,59.3,59.1,58.9,59.1,58.1 M55,59.3v-0.4h-2.3v-1.6h2v-0.4h-2v-1.6H55v-0.4h-2.8v4.5L55,59.3L55,59.3z M51.3,59.3v-0.4H49
				v-4.1h-0.5v4.5H51.3z M47.1,56.1c0,0.6-0.4,0.8-0.9,0.8H45v-1.7h1.2C46.7,55.2,47.1,55.6,47.1,56.1 M47.6,59.3l-1-2.1
				c0.6-0.2,1-0.6,1-1.2c0-0.8-0.6-1.3-1.4-1.3h-1.8v4.5h0.5v-2H46l1,2L47.6,59.3L47.6,59.3z M43.5,59.3v-0.4h-2.3v-1.6h2v-0.4h-2
				v-1.6h2.3v-0.4h-2.8v4.5L43.5,59.3L43.5,59.3z"/>
		</g>
	</g>
	<g>
		<rect x="12" y="37.2" class="st0" width="24.5" height="24.5"/>
		<path class="st1" d="M28.6,52c0,0-0.2,0.1-0.4,0.2c-0.2,0.2-0.3,0.2-0.4,0.2c-0.1,0-0.8,0.1-1.3,0c-0.4-0.1-1.1-0.2-1.4-0.3
			c-0.3-0.1-0.6-0.2-0.6-0.2s-0.1-0.1-0.1-0.2c0-0.1,0.1-0.2,0.1-0.3c0.1-0.1,0.3-0.2,0.5-0.3c0.2-0.1,0.4-0.2,0.5-0.3
			c0.1-0.2,0.2-0.3,0.2-0.4c0.1-0.1,0.1-0.2,0.1-0.2s0.3,0.1,0.4,0.2c0.2,0.1,0.5,0.4,0.8,0.5c0.3,0.1,0.5,0.2,0.8,0.2
			c0.2,0,0.3,0,0.4,0s0.2-0.1,0.2-0.1s0.1,0,0.1,0.1c0,0.2,0.1,0.2,0.1,0.4s0.1,0.3,0.1,0.4C28.5,52,28.6,52,28.6,52 M24.3,51.1
			c0,0-0.2,0.1-0.2,0.2c-0.1,0-0.1,0.1-0.1,0.2c0,0.1,0,0.2,0,0.2s0,0.2,0,0.2v0.1c0,0,0,0,0,0.1c0,0,0,0-0.1,0c0,0-0.1,0-0.2,0
			s-0.2,0-0.2,0s-0.1,0-0.1,0s0-0.1,0-0.2s0.1-0.2,0.2-0.2c0.1-0.1,0.1-0.2,0.3-0.2C24.1,51.2,24.2,51.2,24.3,51.1
			C24.2,51.1,24.2,51.1,24.3,51.1C24.3,51,24.4,51,24.3,51.1C24.4,51,24.3,51.1,24.3,51.1 M24.9,46.7c0-0.1,0-0.2,0-0.3
			c0-0.1,0.1-0.2,0.2-0.2c0.2,0,0.2,0.1,0.3,0.1s0.2,0.1,0.2,0.1s0.1,0.1,0,0.1c0,0.1-0.2,0.3-0.2,0.4c0,0.1-0.1,0.2-0.2,0.4
			c-0.1,0.1-0.1,0.2-0.1,0.2l-0.1,0.1c0,0-0.1-0.2-0.1-0.2s0-0.2-0.1-0.3C24.9,47,24.9,46.8,24.9,46.7 M25.8,47.9
			c0.1-0.1,0.2-0.1,0.2-0.2c0.2-0.1,0.5-0.2,0.8-0.3c0.3-0.1,0.6-0.1,0.6,0c0.2,0.1,0.2,0.2,0.2,0.2c0,0.1,0.1,0.3,0.1,0.5
			c0,0.1,0,0.3,0,0.4s-0.1,0.3,0,0.3c0.1,0.1,0.2,0.1,0.2,0s0.1-0.2,0.2-0.3c0-0.1,0-0.2,0-0.2c0-0.1,0-0.1,0-0.1l0,0
			c0,0,0.1,0.1,0.1,0.2s0.1,0.2,0.1,0.2c0,0.1,0,0.1,0,0.2c0,0.1,0,0.1,0.1,0.1c0,0,0,0,0.1,0c0,0,0.1,0,0.1,0.1v0.1V49
			c0,0-0.3,0.1-0.6,0.1s-0.8-0.1-1.1-0.2c-0.4-0.1-0.6-0.2-0.8-0.2s-0.4,0-0.4,0l-0.1-0.1c0,0-0.1,0-0.1-0.1s0-0.2,0.1-0.2
			C25.4,48.2,25.6,48,25.8,47.9 M34,54L34,54l-0.2-0.2c-0.1-0.1-0.2-0.3-0.3-0.4c-0.1-0.1-0.1-0.2-0.1-0.3c0-0.1,0-0.2-0.1-0.2
			c0-0.1-0.1-0.2-0.1-0.2s-0.2-0.2-0.2-0.2c0,0-0.2-0.2-0.2-0.2l-0.1-0.1l0,0l0,0l0.1-0.1c0,0,0.2-0.2,0.2-0.2
			c0.1-0.1,0.3-0.4,0.5-0.6c0.2-0.2,0.2-0.3,0.2-0.4s-0.1-0.1-0.1-0.1s-0.1,0-0.2,0c-0.1,0-0.1,0.1-0.2,0.1l0,0v-0.1
			c0,0,0-0.1-0.1-0.1c0,0-0.2,0-0.2,0.1c-0.1,0.1-0.2,0.2-0.2,0.2c0,0-0.1,0.1-0.2,0.2c-0.1,0.1-0.2,0.2-0.2,0.2
			c-0.1,0-0.1,0.1-0.1,0.1s-0.1,0-0.1-0.1c0,0-0.1,0-0.2,0c-0.1,0-0.3,0.1-0.5,0.1c-0.2,0-0.9,0.2-1,0.2c-0.2,0.1-0.9,0.2-0.9,0.2
			s-0.1,0-0.2,0.1c-0.1,0-0.2,0.1-0.2,0.1s0-0.1-0.1-0.2c0-0.2-0.1-0.3-0.1-0.4c0-0.2,0-0.5,0-0.6c0-0.1,0-0.3,0.1-0.5
			c0.1-0.2,0.2-0.3,0.2-0.3c0.1-0.1,0.2-0.2,0.3-0.2c0.1-0.1,0.2-0.2,0.3-0.2s0.2,0,0.3,0.1s0.2,0.2,0.2,0.2
			c0.2,0.2,0.2,0.2,0.2,0.2c0.1,0.1,0.2,0,0.2,0c0.1,0,0.1-0.1,0.1-0.1l-0.1-0.1c0,0-0.2-0.1-0.2-0.2l-0.1-0.1l-0.1-0.1v-0.1
			c0,0,0,0,0.1,0s0.1,0,0.2,0c0,0,0.1,0.1,0.1,0.2s0.1,0.2,0.2,0.2s0.1,0.1,0.2,0.1s0.2,0,0.2,0c0.1,0,0.1-0.1,0.1-0.1
			c0-0.1,0-0.1,0-0.1s-0.1-0.1-0.2-0.2c0,0-0.2-0.2-0.2-0.2c-0.1-0.1-0.1-0.2-0.1-0.2c0-0.1,0-0.2-0.1-0.2c0-0.1-0.1-0.2-0.2-0.2
			l-0.1-0.2v-0.1c0,0,0,0,0-0.1l0.1-0.1c0,0,0.1-0.1,0.1-0.2c0.1-0.1,0.2-0.2,0.2-0.2c0.1-0.1,0.1-0.2,0.1-0.2v-0.1h-0.1
			c0,0-0.1,0-0.2,0.1c-0.1,0-0.2,0.1-0.2,0.2c-0.1,0-0.2,0.1-0.2,0.1s-0.2,0.2-0.2,0.2s-0.1,0.2-0.2,0.2h-0.1c0,0-0.1,0-0.2,0
			c-0.1,0-0.2,0-0.2,0.1c0,0-0.3,0.2-0.4,0.2s-0.2,0.2-0.3,0.2S28.9,49,28.9,49c-0.1,0-0.1,0-0.2,0l0,0c0,0,0,0-0.1,0h-0.1l0,0
			l-0.1-0.1c0,0,0-0.2-0.1-0.2c0-0.1-0.1-0.2-0.1-0.3c0-0.1,0-0.2,0-0.3v-0.2c0-0.1,0.1-0.1,0.1-0.2c0,0,0.2-0.1,0.2-0.2l0.2-0.2
			c0.1-0.1,0.2-0.2,0.2-0.2c0,0,0.1-0.1,0.2-0.1h0.1c0,0,0,0,0.1,0l0,0c0,0,0,0,0.1-0.1c0,0,0,0,0.1-0.1h0.1h0.1c0,0,0,0,0-0.1v-0.1
			v-0.1v-0.2c0-0.1-0.1-0.2-0.1-0.2c-0.1-0.1-0.2-0.2-0.2-0.2c-0.2,0-0.2,0.1-0.3,0.1c0,0-0.2,0.1-0.2,0.1s-0.2,0.1-0.2,0.1h-0.1
			c-0.1,0-0.2,0-0.2-0.1c-0.1,0-0.2-0.1-0.2-0.2C28,46.1,28,46.1,28,46.1c0,0-0.1-0.1-0.2-0.1h-0.1c0,0,0,0,0-0.1s0-0.2,0-0.3
			c0-0.3,0.1-0.4,0.2-0.5s0.2-0.3,0.4-0.4c0.1-0.1,0.2-0.2,0.4-0.4c0.2-0.2,0.2-0.3,0.2-0.5c0-0.1,0-0.2,0.1-0.3
			c0-0.1,0-0.2,0.1-0.2c0.1-0.2,0.2-0.4,0.2-0.5c0,0,0.1-0.1,0.2-0.1c0.1-0.1,0.2,0,0.2,0l0.1,0.1c0,0.1,0,0.1,0,0.2
			s0.1,0.2,0.2,0.2s0.1,0,0.2,0l0.1-0.1v-0.1V43c0,0,0,0,0-0.1l0,0l0,0l0,0h0.1l0,0c0,0,0,0,0-0.1c0,0,0,0-0.1-0.1v-0.1
			c0,0,0,0,0-0.1l0,0l0,0l0,0c0,0,0,0,0.1,0.1l0.1,0.1l0,0l0,0c0,0,0,0,0-0.1v-0.1l-0.1-0.1l0,0l0,0c0,0,0,0,0.1,0c0,0,0,0,0.1-0.1
			c0-0.1,0-0.1,0-0.2s0-0.2-0.1-0.2c0-0.1-0.1-0.2-0.2-0.2h-0.1L30,42l0,0c0,0,0,0,0-0.1c0,0,0-0.1-0.1-0.1h-0.1L29.8,42
			c0,0,0,0-0.1,0c0,0,0,0-0.1,0h-0.1c0,0-0.1,0-0.1,0.1l0,0h-0.1h-0.1c0,0-0.1,0-0.1,0.1c0,0.1,0,0.1,0.1,0.2c0.1,0,0.2,0.1,0.2,0.1
			h0.1l0,0l0,0c0,0,0,0-0.1,0c0,0,0,0-0.1,0c0,0-0.1,0-0.2,0s-0.2,0.1-0.5,0.2c-0.2,0.1-0.4,0.2-0.6,0.4c-0.2,0.2-0.6,0.6-0.6,0.6
			c-0.1,0.1-0.1,0.2-0.2,0.2c0,0,0,0-0.1,0c0,0-0.1-0.1-0.2-0.1c-0.1,0-0.1-0.1-0.5-0.3c-0.4-0.2-0.6-0.3-1-0.2
			c-0.3,0.1-0.6,0.3-0.7,0.6s-0.2,0.7-0.2,0.7c0,0.1,0,0.3,0,0.4c0,0.1,0.1,0.1,0.2,0.1s0.1,0,0.2,0c0.1,0,0.1,0.1,0.1,0.2
			c0,0.1,0.1,0.1,0.1,0.1h0.1h0.1h0.1h0.1l0.1,0.1c0.1,0,0.1,0,0.2,0l0.1-0.1c0,0,0,0,0.1,0l0.1-0.1c0-0.1,0.1-0.2,0.1-0.2
			c0-0.1,0.1-0.2,0.1-0.2c0-0.1,0.1-0.2,0.1-0.2c0.1,0,0.1,0,0.1,0s0.1,0.1,0.2,0.2c0.1,0.2,0.2,0.2,0.3,0.4
			c0.2,0.2,0.3,0.2,0.4,0.2c0.1,0,0.1,0.1,0,0.1c0,0,0,0.1-0.1,0.1v0.1c0,0,0,0.2,0,0.3s0,0.5,0,0.6c0,0,0,0-0.1,0h-0.2
			c-0.1,0-0.3,0.1-0.5,0.2c-0.2,0.1-0.3,0.2-0.4,0.2c-0.2,0-0.2-0.1-0.3-0.2c-0.1,0-0.3-0.2-0.3-0.2c-0.1,0-0.2-0.1-0.3-0.1
			c-0.1,0-0.2,0-0.3,0.1c-0.2,0.2-0.2,0.5-0.2,0.6c0,0.1,0.1,0.4,0.1,0.6c0,0.2,0.1,0.6,0.2,0.7c0.1,0.2,0.1,0.2,0.1,0.2h0.1h0.1
			l0,0c0,0,0,0,0,0.1l0,0c0,0,0,0.1,0,0.2c0,0.1,0,0.2,0,0.2c0,0.1,0,0.2,0,0.2h-0.1H25h-0.1c0,0-0.2,0.1-0.3,0.1s-0.2,0.1-0.5,0.2
			c-0.2,0.1-0.3,0-0.4-0.1s-0.2-0.2-0.2-0.3s0-0.2,0-0.2c0-0.1,0.1-0.2,0.1-0.2l0.1-0.1v-0.1c0,0,0,0-0.1,0h-0.1
			c0,0-0.1,0.1-0.2,0.1c0,0-0.1,0.1-0.2,0.2c-0.1,0.1-0.2,0.6,0.1,0.8c0.2,0.2,0.5,0.3,0.6,0.3s0.3,0,0.3,0h0.1c0,0,0,0.1,0,0.2
			c0,0,0,0.1,0,0.2c0,0.2,0,0.2-0.1,0.6s-0.2,0.5-0.4,0.6c-0.2,0.1-0.2,0.1-0.3,0.2c-0.1,0.1-0.1,0.2-0.2,0.3c0,0.2-0.1,0.4-0.1,0.4
			c0,0.1,0,0.2,0,0.2v0.1c0,0,0,0-0.1,0c-0.1,0.1-0.3,0.2-0.6,0.5c-0.2,0.2-0.3,0.3-0.4,0.6C22,53.7,22,54,22,54.4
			c0.1,0.5,0.1,1,0,1.3C22,55.9,21.9,56,21.9,56c-0.1,0.2-0.2,0.2-0.2,0.2s-0.2,0.2-0.2,0.2v0.1c0,0.1,0.1,0.1,0.1,0.1h0.1l0.2-0.1
			H22c0,0,0,0,0.1,0v0.1H22c0,0-0.1,0.1-0.2,0.1c-0.1,0-0.1,0.1-0.1,0.2c0,0.1-0.1,0.2-0.1,0.2c0,0.1-0.1,0.4-0.1,0.6
			c0,0.2-0.2,0.7-0.2,0.7c0,0.2-0.1,0.2-0.1,0.4c0,0.1,0.1,0.2,0.2,0.2c0.1,0.1,0.2,0.2,0.2,0.2c0,0.1,0,0.1,0.1,0.2
			c0,0,0,0.1,0,0.2v0.2h0.7c0,0,0,0,0-0.1v-0.1c0-0.1,0-0.2,0-0.3c0-0.1-0.1-0.2-0.2-0.2c-0.1-0.1-0.1-0.1-0.1-0.2
			c0-0.1,0-0.2,0-0.2s0-0.2,0-0.2c0-0.2,0.2-0.6,0.3-0.8c0.1-0.2,0.2-0.5,0.3-0.6c0.1-0.2,0.2-0.2,0.6-0.8c0.5-0.6,0.6-0.6,0.6-0.6
			c0.1,0,0.2,0,0.3,0.1c0.1,0.1,0.2,0.2,0.8,0.6c0.6,0.2,0.7,0.3,1.2,0.3c0.5,0,0.7-0.1,1-0.1c0.2-0.1,0.6-0.1,0.7-0.2
			c0.1,0,0.3-0.1,0.5-0.1c0.2,0,0.2,0.1,0.2,0.1s0.1,0.2,0.1,0.2s0.1,0.2,0.1,0.5c0,0.2,0.1,0.6,0.1,0.6c0,0.1,0.1,0.4,0.1,0.6
			c0-0.2,0,0.1,0,0.2s0,0.5,0.1,0.6c0,0.1,0.1,0.1,0.2,0.1c0.1,0,0.2,0.1,0.2,0.1v0.1c0,0,0,0,0,0.1v0.1c0,0.1,0,0.1,0,0.1h1v-0.1
			v-0.1c0-0.1,0-0.2-0.2-0.3c-0.2-0.2-0.2-0.3-0.2-0.4S30,58.2,30,58c0-0.1-0.1-0.4-0.1-0.7c0-0.2-0.1-0.5-0.1-0.6
			c0-0.1-0.1-0.6-0.1-0.8s-0.1-0.6-0.1-0.6c0-0.1,0-0.2,0-0.2s0.1-0.1,0.1-0.2c0,0,0.1-0.2,0.2-0.2l0.2-0.2c0,0,0.2-0.2,0.2-0.3
			c0-0.1,0.2-0.2,0.2-0.2c0.1,0,0.2-0.2,0.4-0.2c0.2-0.2,0.4-0.2,0.4-0.2c0.1,0,0.3,0,0.4,0c0.2,0,0.2,0.1,0.2,0.2
			c0,0.1,0.1,0.2,0.1,0.2c0.1,0.1,0.2,0.2,0.2,0.2c0.1,0,0.2,0.1,0.3,0.2c0.1,0.1,0.4,0.2,0.4,0.2l0.2,0.1h0.1h0.1
			c0,0,0.1,0,0.1,0.1c0,0,0.1,0,0.2,0.1c0.1,0,0.1,0,0.1,0v-0.1c0,0,0,0-0.1-0.1l-0.1-0.1l-0.1-0.1v-0.1v-0.1v-0.1c0,0,0,0,0.1,0
			c0.1,0,0,0,0.1,0l0.1,0.1l0.1,0.1c0.1,0.1,0.1,0.1,0.2,0.1c0.1,0,0.1,0,0.1-0.1c0-0.1,0-0.2,0-0.2S34,54,34,54C34,54,34,54,34,54"
			/>
	</g>
</g>
</svg>
