<?xml version="1.0" encoding="utf-8"?>
<!-- Generator: Adobe Illustrator 26.3.1, SVG Export Plug-In . SVG Version: 6.00 Build 0)  -->
<svg version="1.1" id="Ebene_1" xmlns="http://www.w3.org/2000/svg" xmlns:xlink="http://www.w3.org/1999/xlink" x="0px" y="0px"
	 viewBox="0 0 100 100" style="enable-background:new 0 0 100 100;" xml:space="preserve">
<g>
	<path d="M10.8,58.2c-0.5-0.3-0.9-1.8,0-2.7c2.7-3,8.2-5.8,10.4-4.4s0.6,4.2,1.3,4.7c1.4,0.9,7.4-5.8,10.8-5.6
		c3.3,0.2,3.9,3.4,8.5,4.9c3.1,1,8.4-0.5,18.6-3c13.8-3.4,22.3-4.3,26.3-4.7c1.5-0.2,3-0.2,3,0.3c0,0.7-1.5,0.5-2.1,1.4
		c-0.2,0.2-0.9,0.3-1.4,0.2c-0.2,0.2-0.7,0.2-1,0.2c-0.2,1-2.2,0.2-3.4,1c-1.5,1-3.3,0.5-3.9,1.4c-4.9,1-7.6,1.6-16.8,4.1
		c-9.4,2.5-15.4,4-19.7,2.9c-4.4-1.2-4.9-4.9-7.1-5c-3-0.2-8.8,5-11.8,4.9c-1.2-0.1-2.3-0.9-2-3.8c0.2-2.2-0.2-2.4-2.6-1.6
		c-1.8,0.6-3.6,1.7-5.2,2.9c-0.5,0.5,0,1.1-0.3,1.6C12,57.8,11.3,58.5,10.8,58.2L10.8,58.2z"/>
	<path d="M69,49.1v-0.3H69c-0.7,0-1-0.5-1.3-1.2l-2.4-6.4h-2v0.3h0.1c0.6,0,0.9,0.2,0.8,0.5l-2.1,5.5c-0.3,0.9-0.5,1.3-1.4,1.3h-0.1
		v0.3h2.8v-0.3h-0.1c-0.5,0-0.8-0.1-0.8-0.3c0-0.2,0.1-0.4,0.2-0.6l0.5-1.4h2.9l0.6,1.4c0.1,0.2,0.1,0.3,0.1,0.5
		c0,0.3-0.6,0.3-0.8,0.3h-0.1v0.3C65.9,49.1,69,49.1,69,49.1z M66.1,46h-2.8l1.4-3.8L66.1,46z M58.9,44.8c0.6-0.2,1.4-0.6,1.4-1.8
		c0-1.9-2-1.9-2.9-1.9h-3.1v0.3h0.1c0.6,0,1,0.1,1,0.9v5.4c0,0.9-0.3,0.9-1,0.9h-0.1V49h3.3c1.2,0,3.1-0.2,3.1-2.2
		C60.6,45.5,59.7,45,58.9,44.8L58.9,44.8L58.9,44.8z M57.1,44.6h-0.6v-2c0-0.9,0.1-1,0.7-1h0.2c1,0,1.7,0.3,1.7,1.4
		C59,44.6,57.8,44.6,57.1,44.6L57.1,44.6L57.1,44.6z M59.5,46.9c0,1.2-1,1.6-1.8,1.6h-0.2c-0.9,0-1-0.1-1-1v-2.4h0.6
		C58.2,45.1,59.5,45.3,59.5,46.9z M53.6,45.1c0-2.2-0.7-4.1-3-4.1h-0.3c-2.3,0-3,1.8-3,4.1c0,2.2,0.7,4,3,4.1h0.3
		C52.9,49.1,53.6,47.4,53.6,45.1z M52.3,45.1c0,1.8-0.2,3.4-1.8,3.5h-0.2c-1.5-0.1-1.8-1.8-1.8-3.5c0-1.8,0.2-3.4,1.8-3.5h0.2
		C52,41.6,52.3,43.3,52.3,45.1L52.3,45.1L52.3,45.1z M47,41.5L47,41.5l0.1-0.3h-2.7v0.3h0.1c0.6,0,0.8,0.2,0.8,0.5
		c0,0.2-0.1,0.6-0.2,0.8l-1,4.6l-2.1-6.2h-0.6l-2,6.2l-1-4.6c-0.1-0.2-0.1-0.4-0.1-0.6c0-0.5,0.3-0.6,0.8-0.6l0,0v-0.3h-3v0.3h0.1
		c0.7,0,0.9,0.3,1.1,1.3l1.4,6.5h0.8l2-6.2l2.1,6.2h0.8l1.4-6.3C46.1,41.9,46.2,41.5,47,41.5z M35.8,49.1l0.1-1.7h-0.4
		c-0.2,0.9-1,1.1-1.8,1.1h-1.4c-0.6,0-0.6,0-0.6-1v-2.4h1.8c0.8,0,1,0.3,1,1v0.1h0.3v-2.6h-0.3v0.1c0,0.8-0.2,1-1,1h-1.8v-2
		c0-0.9,0-1,0.6-1h1.4c0.8,0,1.2,0.2,1.4,1h0.4l-0.1-1.5h-5.8v0.3h0.1c0.6,0,1,0.1,1,0.9v5.4c0,0.9-0.3,0.9-1,0.9h-0.1V49
		C29.5,49.1,35.8,49.1,35.8,49.1z M29,44.9L29,44.9l0.1-0.3H26v0.3l0,0c0.6,0,1,0.1,1,0.9v2.6c-0.2,0.2-0.6,0.2-0.9,0.2
		c-2.2,0-2.6-1.7-2.6-3.7c0-1.8,0.3-3.3,2.1-3.4c1.2,0,1.8,0.3,2.2,1.7h0.4L28,41.4c-0.8-0.2-1.6-0.3-2.4-0.4c-2,0-3.3,1.5-3.3,3.8
		c0,3,1.4,4.4,3.7,4.4c0.8,0,1.5-0.2,2.2-0.5v-3C28.1,45,28.5,44.9,29,44.9L29,44.9z"/>
</g>
</svg>
