<?xml version="1.0" encoding="utf-8"?>
<!-- Generator: Adobe Illustrator 26.3.1, SVG Export Plug-In . SVG Version: 6.00 Build 0)  -->
<svg version="1.1" id="Ebene_1" xmlns="http://www.w3.org/2000/svg" xmlns:xlink="http://www.w3.org/1999/xlink" x="0px" y="0px"
	 viewBox="0 0 100 100" style="enable-background:new 0 0 100 100;" xml:space="preserve">
<style type="text/css">
	.st0{clip-path:url(#SVGID_00000126312806676786617180000006837113413994187917_);}
	.st1{fill-rule:evenodd;clip-rule:evenodd;fill:#04000A;}
	.st2{fill:#04000A;}
</style>
<g>
	<g>
		<g>
			<g>
				<g>
					<defs>
						<rect id="SVGID_1_" x="8.4" y="8.4" width="83.3" height="83.3"/>
					</defs>
					<clipPath id="SVGID_00000047772942150935628770000006117201765154584729_">
						<use xlink:href="#SVGID_1_"  style="overflow:visible;"/>
					</clipPath>
					<g style="clip-path:url(#SVGID_00000047772942150935628770000006117201765154584729_);">
						<g>
							<path class="st1" d="M36.2,32.2l30.5,2.6c1.1,0.1,2.2,0.3,3.3,0.6c1,0.3,2.1,0.7,3,1.2c1.9,1,3.5,2.3,4.9,4
								c1.4,1.6,2.4,3.5,3,5.5c0.3,1,0.6,2.1,0.7,3.2c0.2,1.1,0.2,2.2,0.1,3.4c-0.1,1.1-0.3,2.2-0.6,3.3c-0.3,1-0.7,2.1-1.2,3
								c-1,1.9-2.3,3.5-4,4.9c-1.6,1.4-3.5,2.4-5.5,3c-1,0.3-2.1,0.6-3.2,0.7c-1.1,0.2-2.2,0.2-3.4,0.1l-30.5-2.6
								c-1.1-0.1-2.2-0.3-3.3-0.6c-1-0.3-2.1-0.7-3-1.2c-1.9-1-3.5-2.3-4.9-4c-1.4-1.6-2.4-3.5-3-5.5c-0.3-1-0.6-2.1-0.7-3.2
								c-0.2-1.1-0.2-2.2-0.1-3.4c0.1-1.1,0.3-2.2,0.6-3.3c0.3-1,0.7-2.1,1.2-3c1-1.9,2.3-3.5,4-4.9c1.6-1.4,3.5-2.4,5.5-3
								c1-0.3,2.1-0.6,3.2-0.7C34,32.2,35.1,32.1,36.2,32.2L36.2,32.2L36.2,32.2z M36.1,33.6l30.5,2.6c1,0.1,2,0.3,3,0.6
								c1,0.3,1.8,0.6,2.7,1.1c1.8,0.9,3.3,2.2,4.5,3.7c1.3,1.5,2.2,3.2,2.8,5c0.3,1,0.5,1.9,0.6,2.9c0.1,1,0.2,2.1,0.1,3
								c-0.1,1-0.3,2-0.6,3c-0.3,1-0.6,1.8-1.1,2.7c-0.9,1.8-2.2,3.3-3.7,4.5c-1.5,1.2-3.2,2.2-5,2.8c-1,0.3-1.9,0.5-2.9,0.6
								c-1,0.1-2.1,0.2-3,0.1l-30.5-2.6c-1-0.1-2-0.3-3-0.6c-1-0.3-1.8-0.6-2.7-1.1c-1.8-0.9-3.3-2.2-4.5-3.7
								c-1.3-1.5-2.2-3.2-2.8-5c-0.3-1-0.5-1.9-0.6-2.9c-0.2-1-0.2-2-0.2-3c0.1-1,0.3-2,0.6-3c0.3-1,0.6-1.8,1.1-2.7
								c0.9-1.8,2.2-3.3,3.7-4.5c1.5-1.3,3.2-2.2,5-2.8c1-0.3,1.9-0.5,2.9-0.6C34.1,33.5,35,33.5,36.1,33.6L36.1,33.6L36.1,33.6z"/>
							<path class="st2" d="M65.7,63.7c0.3,0,0.6,0,1-0.1c0.8-0.1,1.6-0.2,2.4-0.5c1.5-0.5,3-1.3,4.2-2.3c1.2-1,2.2-2.3,3-3.7
								c0.4-0.7,0.7-1.4,1-2.2c0.2-0.8,0.4-1.6,0.5-2.5c0.1-0.8,0.1-1.7,0-2.5c-0.1-0.8-0.2-1.6-0.5-2.4c-0.5-1.5-1.3-3-2.3-4.2
								s-2.3-2.2-3.7-3c-0.7-0.4-1.4-0.7-2.2-1c-0.8-0.2-1.6-0.4-2.5-0.5l0,0l-30.5-2.6l0,0l0,0l0,0c-0.8-0.1-1.7-0.1-2.5,0
								c-0.8,0.1-1.6,0.2-2.4,0.5c-1.5,0.5-3,1.3-4.2,2.3c-1.2,1-2.2,2.3-3,3.7c-0.4,0.7-0.7,1.4-1,2.2c-0.2,0.8-0.4,1.6-0.5,2.5
								c-0.1,0.8-0.1,1.7,0,2.5c0.1,0.8,0.2,1.6,0.5,2.4c0.5,1.5,1.3,3,2.3,4.2s2.3,2.2,3.7,3c0.7,0.4,1.4,0.7,2.2,1
								s1.6,0.4,2.5,0.5l0,0l7.4,0.6L40.9,63l-7.4-0.6l0,0c-1-0.1-1.8-0.2-2.7-0.6c-0.9-0.2-1.7-0.6-2.5-1c-1.6-0.8-3-2-4.1-3.4
								c-1.1-1.4-2-3-2.6-4.6c-0.2-0.9-0.5-1.8-0.6-2.6c-0.1-1-0.1-1.8,0-2.8c0.1-1,0.2-1.8,0.6-2.7c0.2-0.9,0.6-1.7,1-2.5
								c0.8-1.6,2-3,3.4-4.1s3-2,4.6-2.6c0.9-0.2,1.8-0.5,2.6-0.6c1-0.1,1.8-0.1,2.8,0l0,0l0,0l0,0l30.5,2.6l0,0
								c1,0.1,1.8,0.2,2.7,0.6c0.9,0.2,1.7,0.6,2.5,1c1.6,0.8,3,2,4.1,3.4s2,3,2.6,4.6c0.2,0.9,0.5,1.8,0.6,2.6c0.1,1,0.1,1.8,0,2.8
								c-0.1,1-0.2,1.8-0.6,2.7c-0.2,0.9-0.6,1.7-1,2.5c-0.8,1.6-2,3-3.4,4.1c-1.4,1.1-3,2-4.6,2.6c-0.9,0.2-1.8,0.5-2.6,0.6
								C66.4,65,66,65,65.5,65L65.7,63.7z"/>
							<g>
								<path class="st2" d="M41.7,51.3L41.7,51.3c-0.2,0.2-0.6,0.4-1.2,0.6l0,0l0,0c-0.6,0.2-1.1,0.2-1.6,0.2l0,0l0,0
									c-0.9,0-1.7-0.2-2.4-0.6l0,0l0,0c-0.7-0.3-1.2-0.9-1.6-1.5l0,0l0,0c-0.4-0.6-0.6-1.4-0.6-2.2l0,0l0,0c0-1,0.2-1.8,0.6-2.5
									l0,0l0,0c0.4-0.7,1-1.2,1.6-1.6l0,0l0,0c0.6-0.3,1.4-0.6,2.2-0.6l0,0l0,0c0.5,0,1,0.1,1.4,0.2l0,0l0,0
									c0.5,0.1,0.8,0.2,1.2,0.5l0,0l-0.5,1.3l0,0c-0.2-0.2-0.6-0.2-1-0.4l0,0l0,0c-0.4-0.1-0.7-0.2-1-0.2l0,0l0,0
									c-1,0-1.8,0.2-2.3,0.8l0,0l0,0c-0.6,0.6-0.9,1.3-0.9,2.2l0,0l0,0c0,0.6,0.2,1.1,0.4,1.5l0,0l0,0c0.2,0.5,0.6,0.8,1.1,1l0,0
									l0,0c0.5,0.2,1,0.4,1.6,0.4l0,0l0,0c0.2,0,0.6,0,0.8-0.1l0,0l0,0c0.2-0.1,0.5-0.2,0.6-0.2l0,0v-1.4h-1.6v-1.3h3L41.7,51.3
									L41.7,51.3z M47.5,47h1.2v5h-1.3v-0.7l0,0c-0.2,0.2-0.4,0.4-0.7,0.6l0,0l0,0c-0.3,0.2-0.6,0.2-1,0.2l0,0l0,0
									c-0.5,0-0.9-0.1-1.3-0.3l0,0l0,0c-0.4-0.2-0.6-0.5-0.9-0.9l0,0l0,0c-0.2-0.4-0.3-0.9-0.3-1.4l0,0l0,0c0-0.6,0.1-1,0.3-1.4
									l0,0l0,0c0.2-0.4,0.6-0.7,0.9-1l0,0l0,0c0.4-0.2,0.8-0.3,1.3-0.3l0,0l0,0c0.8,0,1.4,0.3,1.8,0.9l0,0V47z M45.9,51.1
									L45.9,51.1c0.3,0,0.6-0.1,0.9-0.2l0,0l0,0c0.2-0.2,0.4-0.5,0.6-0.8l0,0V49l0,0c-0.1-0.3-0.2-0.6-0.6-0.7l0,0l0,0
									c-0.2-0.2-0.6-0.3-1-0.3l0,0l0,0c-0.4,0-0.8,0.2-1,0.5l0,0l0,0c-0.3,0.3-0.4,0.6-0.4,1.1l0,0l0,0c0,0.3,0.1,0.6,0.2,0.8l0,0
									l0,0c0.2,0.2,0.3,0.4,0.6,0.6l0,0l0,0C45.5,51,45.7,51.1,45.9,51.1L45.9,51.1z M50.6,42.9h1.3v9.2h-1.3V42.9L50.6,42.9z
									 M53.3,49.5L53.3,49.5c0-0.5,0.1-1,0.3-1.4l0,0l0,0c0.2-0.4,0.6-0.7,1-1l0,0l0,0c0.4-0.2,0.9-0.3,1.4-0.3l0,0l0,0
									c0.6,0,1,0.1,1.4,0.3l0,0l0,0c0.4,0.2,0.7,0.6,1,1l0,0l0,0c0.2,0.4,0.3,0.9,0.3,1.4l0,0l0,0c0,0.5-0.1,1-0.3,1.4l0,0l0,0
									c-0.2,0.4-0.6,0.7-1,1l0,0l0,0c-0.4,0.2-0.9,0.3-1.4,0.3l0,0l0,0c-0.6,0-1-0.1-1.4-0.3l0,0l0,0c-0.4-0.2-0.7-0.6-1-1l0,0
									l0,0C53.4,50.5,53.3,50.1,53.3,49.5L53.3,49.5z M54.6,49.5L54.6,49.5c0,0.5,0.2,0.8,0.4,1.1l0,0l0,0c0.2,0.3,0.6,0.5,1,0.5
									l0,0l0,0c0.4,0,0.8-0.2,1-0.5l0,0l0,0c0.2-0.3,0.4-0.6,0.4-1.1l0,0l0,0c0-0.5-0.2-0.8-0.4-1.1l0,0l0,0
									c-0.2-0.3-0.6-0.5-1-0.5l0,0l0,0c-0.4,0-0.7,0.2-1,0.5l0,0l0,0C54.7,48.7,54.6,49,54.6,49.5L54.6,49.5z M63.5,46.9
									L63.5,46.9c0.5,0,0.9,0.1,1.3,0.3l0,0l0,0c0.4,0.2,0.6,0.6,0.9,1l0,0l0,0c0.2,0.4,0.3,0.9,0.3,1.4l0,0l0,0
									c0,0.6-0.1,1-0.3,1.4l0,0l0,0c-0.2,0.4-0.6,0.7-1,0.9l0,0l0,0c-0.4,0.2-0.9,0.3-1.4,0.3l0,0l0,0c-0.3,0-0.6-0.1-1-0.2l0,0
									l0,0c-0.3-0.2-0.6-0.3-0.7-0.6l0,0v3h-1.3V47h1.1l0.1,0.7l0,0c0.2-0.2,0.6-0.5,0.9-0.6l0,0l0,0C62.7,47,63.1,46.9,63.5,46.9
									L63.5,46.9z M63,51.1L63,51.1c0.3,0,0.6-0.1,0.8-0.2l0,0l0,0c0.2-0.2,0.5-0.3,0.6-0.6l0,0l0,0c0.2-0.2,0.2-0.5,0.2-0.8l0,0
									l0,0c0-0.5-0.2-0.9-0.5-1.1l0,0l0,0c-0.3-0.3-0.6-0.5-1.1-0.5l0,0l0,0c-0.4,0-0.7,0.1-1,0.3l0,0l0,0
									c-0.2,0.2-0.5,0.5-0.6,0.8l0,0v1l0,0c0.1,0.3,0.2,0.6,0.5,0.8l0,0l0,0C62.3,51,62.7,51.1,63,51.1L63,51.1z"/>
								<path class="st2" d="M45.7,54.5L45.7,54.5c1,0,1.8,0.2,2.3,0.7l0,0l0,0c0.6,0.5,0.8,1.1,0.8,2l0,0l0,0c0,0.5-0.1,1-0.3,1.4
									l0,0l0,0c-0.2,0.4-0.5,0.8-1,1l0,0l0,0c-0.4,0.2-1,0.4-1.7,0.4l0,0h-1.2v3h-1.4v-8.5H45.7L45.7,54.5z M45.8,58.7L45.8,58.7
									c0.4,0,0.7-0.1,0.9-0.2l0,0l0,0c0.2-0.2,0.4-0.3,0.5-0.6l0,0l0,0c0.1-0.2,0.2-0.5,0.2-0.6l0,0l0,0c0-0.3-0.1-0.7-0.3-1l0,0
									l0,0c-0.2-0.3-0.6-0.5-1.2-0.5l0,0h-1.3v3L45.8,58.7L45.8,58.7z M49.8,60.5L49.8,60.5c0-0.5,0.1-1,0.3-1.4l0,0l0,0
									c0.2-0.4,0.6-0.7,1-1l0,0l0,0c0.4-0.2,0.9-0.3,1.4-0.3l0,0l0,0c0.6,0,1,0.1,1.4,0.3l0,0l0,0c0.4,0.2,0.7,0.6,1,1l0,0l0,0
									c0.2,0.4,0.3,0.9,0.3,1.4l0,0l0,0c0,0.5-0.1,1-0.3,1.4l0,0l0,0c-0.2,0.4-0.6,0.7-1,1l0,0l0,0c-0.4,0.2-0.9,0.3-1.4,0.3l0,0
									l0,0c-0.6,0-1-0.1-1.4-0.3l0,0l0,0c-0.4-0.2-0.7-0.6-1-1l0,0l0,0C49.8,61.5,49.8,61,49.8,60.5L49.8,60.5z M51.1,60.6
									L51.1,60.6c0,0.5,0.2,0.8,0.4,1.1l0,0l0,0c0.2,0.3,0.6,0.5,1,0.5l0,0l0,0c0.4,0,0.8-0.2,1-0.5l0,0l0,0
									c0.2-0.3,0.4-0.6,0.4-1.1l0,0l0,0c0-0.5-0.2-0.8-0.4-1.1l0,0l0,0c-0.2-0.3-0.6-0.5-1-0.5l0,0l0,0c-0.4,0-0.7,0.2-1,0.5l0,0
									l0,0C51.2,59.7,51.1,60.1,51.1,60.6L51.1,60.6z M58,59.2L58,59.2c0.2-0.2,0.3-0.5,0.6-0.7l0,0l0,0c0.2-0.2,0.5-0.4,0.7-0.5
									l0,0l0,0c0.2-0.1,0.5-0.2,0.6-0.2l0,0l-0.1,1.3l0,0c-0.3,0-0.7,0-1,0.2l0,0l0,0c-0.3,0.2-0.5,0.4-0.6,0.6l0,0l0,0
									c-0.2,0.2-0.2,0.6-0.2,0.9l0,0V63h-1.3v-5h1.2L58,59.2z M65.2,62.6L65.2,62.6c-0.2,0.2-0.5,0.3-0.8,0.4l0,0l0,0
									c-0.3,0.1-0.6,0.2-1,0.2l0,0l0,0c-0.6,0-1-0.1-1.4-0.3l0,0l0,0c-0.4-0.2-0.7-0.5-1-0.9l0,0l0,0c-0.2-0.4-0.3-0.9-0.3-1.4
									l0,0l0,0c0-0.6,0.2-1,0.4-1.4l0,0l0,0c0.2-0.4,0.6-0.7,1-0.9l0,0l0,0c0.4-0.2,0.9-0.3,1.3-0.3l0,0l0,0
									c0.8,0,1.4,0.2,1.9,0.6l0,0l-0.6,0.9l0,0c-0.2-0.1-0.3-0.2-0.6-0.3l0,0l0,0c-0.2-0.1-0.4-0.2-0.6-0.2l0,0l0,0
									c-0.4,0-0.7,0.2-1,0.5l0,0l0,0c-0.2,0.3-0.4,0.6-0.4,1.1l0,0l0,0c0,0.5,0.2,0.8,0.5,1.1l0,0l0,0c0.3,0.3,0.6,0.5,1.1,0.5
									l0,0l0,0c0.4,0,0.7-0.1,1-0.3l0,0L65.2,62.6z"/>
								<path class="st2" d="M37.2,54.5h0.7v5.1h-0.7v-0.4l0,0c-0.3,0.3-0.6,0.5-1.1,0.5l0,0l0,0c-0.2,0-0.5-0.1-0.7-0.2l0,0l0,0
									c-0.2-0.2-0.4-0.3-0.5-0.6l0,0l0,0c-0.1-0.2-0.2-0.5-0.2-0.8l0,0l0,0c0-0.3,0.1-0.6,0.2-0.8l0,0l0,0
									c0.2-0.2,0.3-0.4,0.5-0.5l0,0l0,0c0.2-0.1,0.5-0.2,0.7-0.2l0,0l0,0c0.2,0,0.4,0.1,0.6,0.1l0,0l0,0c0.2,0.1,0.3,0.2,0.4,0.3
									l0,0L37.2,54.5L37.2,54.5z M36.3,59L36.3,59c0.2,0,0.4-0.1,0.6-0.2l0,0l0,0c0.2-0.1,0.2-0.2,0.3-0.5l0,0v-0.6l0,0
									c-0.1-0.2-0.2-0.3-0.3-0.4l0,0l0,0c-0.2-0.1-0.3-0.2-0.6-0.2l0,0l0,0c-0.2,0-0.3,0.1-0.4,0.1l0,0l0,0
									c-0.2,0.1-0.2,0.2-0.3,0.3l0,0l0,0c-0.1,0.2-0.1,0.3-0.1,0.5l0,0l0,0c0,0.2,0.1,0.3,0.1,0.5l0,0l0,0
									c0.1,0.2,0.2,0.2,0.3,0.3l0,0l0,0C36,59,36.2,59,36.3,59L36.3,59z M40.2,59L40.2,59c0.2,0,0.4-0.1,0.6-0.2l0,0l0.3,0.6l0,0
									c-0.2,0.1-0.3,0.2-0.5,0.2l0,0l0,0c-0.2,0.1-0.3,0.1-0.5,0.1l0,0l0,0c-0.3,0-0.6-0.1-0.8-0.2l0,0l0,0
									c-0.2-0.2-0.4-0.3-0.6-0.6l0,0l0,0c-0.2-0.2-0.2-0.5-0.2-0.8l0,0l0,0c0-0.2,0.1-0.5,0.2-0.7l0,0l0,0
									c0.2-0.2,0.3-0.4,0.6-0.6l0,0l0,0c0.2-0.2,0.5-0.2,0.8-0.2l0,0l0,0c0.4,0,0.7,0.1,1,0.3l0,0l0,0c0.2,0.2,0.4,0.6,0.5,1l0,0
									l-2.2,0.7l0,0c0.1,0.1,0.2,0.2,0.3,0.2l0,0l0,0C39.9,59,40.1,59,40.2,59L40.2,59z M40.2,57.3L40.2,57.3
									c-0.2,0-0.4,0.1-0.6,0.2l0,0l0,0c-0.2,0.2-0.2,0.4-0.2,0.6l0,0l0,0c0,0.1,0,0.1,0,0.1l0,0l1.4-0.5l0,0
									c-0.1-0.2-0.2-0.2-0.2-0.3l0,0l0,0C40.5,57.3,40.3,57.3,40.2,57.3L40.2,57.3z"/>
							</g>
						</g>
					</g>
				</g>
			</g>
		</g>
	</g>
</g>
</svg>
