<?xml version="1.0" encoding="utf-8"?>
<!-- Generator: Adobe Illustrator 26.3.1, SVG Export Plug-In . SVG Version: 6.00 Build 0)  -->
<svg version="1.1" id="Ebene_1" xmlns="http://www.w3.org/2000/svg" xmlns:xlink="http://www.w3.org/1999/xlink" x="0px" y="0px"
	 viewBox="0 0 100 100" style="enable-background:new 0 0 100 100;" xml:space="preserve">
<style type="text/css">
	.st0{fill:#1E1E1C;}
</style>
<g>
	<g>
		<path class="st0" d="M25.8,64.9h-2.6v2.6h-1.3v-6.3h1.3v2.6h2.6v-2.6h1.3v6.3h-1.3V64.9z"/>
		<path class="st0" d="M28.5,61.2h4v1.1h-2.8v1.4h2.7v1.1h-2.7v1.5h2.8v1.1h-4V61.2z"/>
		<path class="st0" d="M38.9,63.3L38.9,63.3l-1.7,4.2h-0.7l-1.7-4.1l0,0v4.1h-1.2v-6.2H35l1.8,4.3l1.8-4.3h1.4v6.3h-1.2L38.9,63.3
			L38.9,63.3z"/>
		<path class="st0" d="M41.4,61.2h4v1.1h-2.8v1.4h2.7v1.1h-2.7v1.5h2.8v1.1h-4V61.2z"/>
		<path class="st0" d="M46.5,61.2h1.3v5.1h2.4v1.2h-3.7V61.2z"/>
		<path class="st0" d="M51.3,61.2h1.3v6.3h-1.3V61.2z"/>
		<path class="st0" d="M55.2,63.2L55.2,63.2v4.3H54v-6.3h1.4l2.6,4.2l0,0v-4.2h1.2v6.3h-1.3L55.2,63.2z"/>
		<path class="st0" d="M63.4,64.2h3c-0.1,2.3-1.4,3.5-3,3.5c-1.8,0-3-1.6-3-3.3c0-1.7,1.2-3.3,3-3.3c2.1,0,2.6,1.3,2.9,1.9l-1.3,0.1
			c-0.2-0.6-0.6-1-1.5-1c-1,0-1.8,0.8-1.8,2.2c0,1.1,0.7,2.2,1.8,2.2c1,0,1.5-0.7,1.6-1.3h-1.5v-1H63.4z"/>
		<path class="st0" d="M67.5,61.2h4v1.1h-2.8v1.4h2.7v1.1h-2.7v1.5h2.8v1.1h-4V61.2z"/>
		<path class="st0" d="M73.8,63.2L73.8,63.2v4.3h-1.2v-6.3H74l2.6,4.2l0,0v-4.2h1.2v6.3h-1.3L73.8,63.2z"/>
	</g>
	<g>
		<path class="st0" d="M79.8,67.2c-0.1,0.2-0.2,0.3-0.5,0.3c-0.3,0-0.5-0.2-0.5-0.5c0-0.3,0.2-0.6,0.5-0.6c0.3,0,0.5,0.2,0.5,0.6
			V67.2L79,67.1c0,0.2,0.2,0.4,0.3,0.4c0.2,0,0.2-0.1,0.3-0.2L79.8,67.2z M79.8,66.9c0-0.2-0.2-0.3-0.3-0.3c-0.2,0-0.3,0.2-0.3,0.3
			H79.8z"/>
		<path class="st0" d="M80.2,67.3C80.3,67.3,80.3,67.4,80.2,67.3c0.1,0.2,0,0.2,0,0.2V67.3C80.1,67.4,80.1,67.3,80.2,67.3z"/>
		<path class="st0" d="M80.5,65.9h0.2l0.4,1.4l0,0l0.4-1.4h0.2l-0.6,1.6H81L80.5,65.9z"/>
		<path class="st0" d="M81.9,67.3C82,67.3,82,67.4,81.9,67.3c0.1,0.2,0,0.2,0,0.2V67.3C81.8,67.4,81.8,67.3,81.9,67.3z"/>
	</g>
	<g>
		<path class="st0" d="M28,70.3h1.6v0.3h-1.3v1h1.3v0.3h-1.2v1.3H28V70.3z"/>
		<path class="st0" d="M31.3,72.8L31.3,72.8c-0.2,0.2-0.3,0.3-0.6,0.3c-0.2,0-0.6-0.2-0.6-0.7v-1.2h0.3v1.2c0,0.4,0.2,0.5,0.4,0.5
			c0.2,0,0.5-0.2,0.5-0.6v-1h0.3v1.8h-0.3V72.8z M30.4,70.4c0.1,0,0.2,0.1,0.2,0.2c0,0.1-0.1,0.2-0.2,0.2c-0.1,0-0.2-0.1-0.2-0.2
			C30.2,70.6,30.3,70.4,30.4,70.4z M31.2,70.4c0.1,0,0.2,0.1,0.2,0.2c0,0.1-0.1,0.2-0.2,0.2c-0.1,0-0.2-0.1-0.2-0.2
			C31,70.6,31.1,70.4,31.2,70.4z"/>
		<path class="st0" d="M33.4,72c0-0.4-0.2-0.5-0.4-0.5c-0.2,0-0.5,0.2-0.5,0.6v1h-0.3v-1.8h0.3v0.3l0,0c0.2-0.2,0.3-0.3,0.6-0.3
			c0.2,0,0.6,0.1,0.6,0.6v1.3h-0.3V72z"/>
		<path class="st0" d="M34.4,71.5h-0.3v-0.2h0.3v-0.6c0-0.3,0.2-0.4,0.5-0.4c0.1,0,0.2,0,0.2,0v0.3c-0.1,0-0.1,0-0.2,0
			c-0.2,0-0.2,0.1-0.2,0.2v0.5h0.4v0.2h-0.4v1.6h-0.3V71.5z"/>
		<path class="st0" d="M37,70.6h-0.9v-0.3h2v0.3h-0.9V73H37L37,70.6L37,70.6z"/>
		<path class="st0" d="M39.8,72.6c-0.2,0.3-0.4,0.6-0.9,0.6s-0.9-0.4-0.9-0.9c0-0.6,0.3-1,0.9-1c0.6,0,0.9,0.3,0.9,1v0.1h-1.4
			c0,0.4,0.2,0.6,0.6,0.6s0.5-0.2,0.6-0.3L39.8,72.6z M39.6,72c-0.1-0.3-0.2-0.6-0.6-0.6c-0.4,0-0.6,0.3-0.6,0.6H39.6z"/>
		<path class="st0" d="M40.4,70.3c0.2,0,0.2,0.1,0.2,0.2s-0.1,0.2-0.2,0.2s-0.2-0.1-0.2-0.2S40.3,70.3,40.4,70.3z M40.3,71.2h0.3
			v1.8h-0.3V71.2z"/>
		<path class="st0" d="M41.1,70.3h0.3v2.8h-0.3V70.3z"/>
		<path class="st0" d="M43.6,72.6c-0.2,0.3-0.4,0.6-0.9,0.6c-0.5,0-0.9-0.4-0.9-0.9c0-0.6,0.3-1,0.9-1s0.9,0.3,0.9,1v0.1h-1.4
			c0,0.4,0.2,0.6,0.6,0.6c0.3,0,0.5-0.2,0.6-0.3L43.6,72.6z M43.3,72c-0.1-0.3-0.2-0.6-0.6-0.6c-0.4,0-0.6,0.3-0.6,0.6H43.3z"/>
		<path class="st0" d="M46.2,71.8c0-0.2-0.2-0.3-0.5-0.3c-0.2,0-0.5,0.1-0.5,0.3c0,0.2,0.2,0.2,0.5,0.3c0.5,0.1,0.7,0.2,0.7,0.6
			c0,0.2-0.2,0.6-0.8,0.6s-0.7-0.3-0.8-0.6h0.3c0,0.2,0.2,0.3,0.5,0.3s0.5-0.1,0.5-0.3c0-0.2-0.1-0.2-0.6-0.3
			c-0.4-0.1-0.6-0.2-0.6-0.6c0-0.3,0.3-0.6,0.7-0.6c0.4,0,0.7,0.2,0.7,0.6L46.2,71.8L46.2,71.8z"/>
		<path class="st0" d="M47,70.3c0.2,0,0.2,0.1,0.2,0.2s-0.1,0.2-0.2,0.2s-0.2-0.1-0.2-0.2S46.9,70.3,47,70.3z M46.9,71.2h0.3v1.8
			h-0.3V71.2z"/>
		<path class="st0" d="M49,72c0-0.4-0.2-0.5-0.4-0.5c-0.2,0-0.5,0.2-0.5,0.6v1h-0.3v-1.8H48v0.3l0,0c0.2-0.2,0.3-0.3,0.6-0.3
			c0.2,0,0.6,0.1,0.6,0.6v1.3h-0.3L49,72L49,72z"/>
		<path class="st0" d="M51.2,72.8L51.2,72.8c-0.1,0.2-0.2,0.4-0.6,0.4c-0.5,0-0.9-0.4-0.9-1c0-0.7,0.5-1,0.9-1
			c0.4,0,0.6,0.2,0.6,0.3l0,0v-1.3h0.3v2.8h-0.3V72.8z M50.5,71.5c-0.3,0-0.6,0.2-0.6,0.7c0,0.4,0.2,0.7,0.6,0.7
			c0.3,0,0.6-0.3,0.6-0.7C51.2,71.7,50.9,71.5,50.5,71.5z"/>
		<path class="st0" d="M54.5,72.8L54.5,72.8c-0.1,0.2-0.2,0.4-0.6,0.4c-0.5,0-0.9-0.4-0.9-1c0-0.7,0.5-1,0.9-1
			c0.4,0,0.6,0.2,0.6,0.3l0,0v-1.3h0.3v2.8h-0.3V72.8z M53.9,71.5c-0.3,0-0.6,0.2-0.6,0.7c0,0.4,0.2,0.7,0.6,0.7
			c0.3,0,0.6-0.3,0.6-0.7C54.5,71.7,54.2,71.5,53.9,71.5z"/>
		<path class="st0" d="M56.5,72.8L56.5,72.8c-0.2,0.2-0.4,0.3-0.6,0.3c-0.5,0-0.6-0.2-0.6-0.6c0-0.3,0.2-0.6,0.7-0.6
			c0.2,0,0.4,0,0.6,0v-0.2c0-0.2-0.1-0.4-0.5-0.4c-0.3,0-0.5,0.2-0.5,0.3h-0.3c0.1-0.4,0.3-0.6,0.8-0.6c0.5,0,0.7,0.2,0.7,0.6v0.9
			c0,0.1,0,0.2,0,0.4h-0.3C56.6,73.1,56.6,72.8,56.5,72.8z M56.5,72.2h-0.5c-0.3,0-0.5,0.1-0.5,0.3c0,0.2,0.2,0.3,0.4,0.3
			c0.2,0,0.6-0.2,0.6-0.5C56.6,72.4,56.6,72.2,56.5,72.2z"/>
		<path class="st0" d="M58.5,71.8c0-0.2-0.2-0.3-0.5-0.3c-0.2,0-0.5,0.1-0.5,0.3c0,0.2,0.2,0.2,0.5,0.3c0.5,0.1,0.7,0.2,0.7,0.6
			c0,0.2-0.2,0.6-0.8,0.6c-0.6,0-0.7-0.3-0.8-0.6h0.3c0,0.2,0.2,0.3,0.5,0.3c0.3,0,0.5-0.1,0.5-0.3c0-0.2-0.1-0.2-0.6-0.3
			c-0.4-0.1-0.6-0.2-0.6-0.6c0-0.3,0.3-0.6,0.7-0.6c0.4,0,0.7,0.2,0.7,0.6L58.5,71.8L58.5,71.8z"/>
		<path class="st0" d="M61.6,71.6h1.3c0,0.8-0.3,1.5-1.3,1.5c-0.9,0-1.3-0.6-1.3-1.4c0-0.7,0.5-1.4,1.4-1.4c0.6,0,1.1,0.4,1.1,0.9
			h-0.3c-0.1-0.2-0.3-0.6-0.9-0.6c-0.6,0-1,0.5-1,1.2s0.4,1.1,1,1.1c0.7,0,1-0.6,1-1h-0.9V71.6z"/>
		<path class="st0" d="M64.5,72.8L64.5,72.8c-0.2,0.2-0.4,0.3-0.6,0.3c-0.5,0-0.6-0.2-0.6-0.6c0-0.3,0.2-0.6,0.7-0.6
			c0.2,0,0.4,0,0.6,0v-0.2c0-0.2-0.1-0.4-0.5-0.4c-0.3,0-0.5,0.2-0.5,0.3h-0.3c0.1-0.4,0.3-0.6,0.8-0.6c0.5,0,0.7,0.2,0.7,0.6v0.9
			c0,0.1,0,0.2,0,0.4h-0.3V72.8z M64.5,72.2h-0.5c-0.3,0-0.5,0.1-0.5,0.3c0,0.2,0.2,0.3,0.4,0.3c0.2,0,0.6-0.2,0.6-0.5V72.2z"/>
		<path class="st0" d="M66.6,72c0-0.4-0.2-0.5-0.4-0.5c-0.2,0-0.5,0.2-0.5,0.6v1h-0.3v-1.8h0.3v0.3l0,0c0.2-0.2,0.3-0.3,0.6-0.3
			c0.2,0,0.6,0.1,0.6,0.6v1.3h-0.3V72z"/>
		<path class="st0" d="M67.3,72.8l1-1.4h-1v-0.2h1.4v0.2l-1,1.4h1v0.2h-1.4V72.8z"/>
		<path class="st0" d="M70.7,72.6c-0.2,0.3-0.4,0.6-0.9,0.6S69,72.7,69,72.2c0-0.6,0.3-1,0.9-1s0.9,0.3,0.9,1v0.1h-1.4
			c0,0.4,0.2,0.6,0.6,0.6c0.3,0,0.5-0.2,0.6-0.3L70.7,72.6z M70.5,72c-0.1-0.3-0.2-0.6-0.6-0.6c-0.4,0-0.6,0.3-0.6,0.6H70.5z"/>
		<path class="st0" d="M71.4,72.7c0.1,0,0.2,0.1,0.2,0.2c0,0.1-0.1,0.2-0.2,0.2c-0.1,0-0.2-0.1-0.2-0.2S71.3,72.7,71.4,72.7z"/>
	</g>
	<path class="st0" d="M71.1,41.6l0.3,1C71,42.7,70.3,42.7,70,42c-0.2-0.6,0.1-1.2,0.9-1.5c0.7-0.2,1.4-0.1,1.6,0.6
		c0.2,0.6,0,1-0.3,1.2l0.2,0.3c0.5-0.2,0.7-0.9,0.5-1.5c-0.3-1-1.3-1.2-2.1-1c-0.9,0.3-1.4,1-1,1.9c0.3,1,1.3,1.1,2.2,0.8l-0.5-1.4
		L71.1,41.6z M67.5,37.5l0.2,0.3l2.2-1.4l0,0l-1.4,2.9l0.2,0.3l2.7-1.6l-0.2-0.3L69,39.1l0,0l1.4-2.9l-0.2-0.3L67.5,37.5z
		 M66.5,36.3l0.2,0.2l2.4-2l-0.2-0.2L66.5,36.3z M65,34.8l0.2,0.2l1.9-2.1l0.7,0.6l0.2-0.2l-1.7-1.5l-0.2,0.2l0.7,0.6L65,34.8z
		 M62.2,32.9l1.5,1l0.2-0.2l-1.2-0.8l0.6-1l1.2,0.7l0.2-0.2l-1.2-0.7l0.6-0.9l1.2,0.8l0.2-0.2L64,30.2L62.2,32.9z M59.6,31.6
		l0.3,0.2l0.6-1.4l0,0l0.6,2l0.5,0.2L61,30.4l1.9-0.8l-0.5-0.2l-1.8,0.8l0,0l0.6-1.4l-0.3-0.1L59.6,31.6z M58.4,31.3l0.4,0.1
		l-0.4-1.5c0.3,0,0.8-0.2,1-0.6c0.1-0.4,0-0.9-0.8-1.1l-1-0.3l-0.9,3l0.3,0.1l0.4-1.3l0.6,0.2L58.4,31.3z M57.5,29.3l0.3-1.1
		l0.6,0.2c0.3,0.1,0.6,0.3,0.6,0.8c-0.1,0.4-0.4,0.5-0.8,0.4L57.5,29.3z M53.2,30.2l0.4,0.1l0.5-0.8l1.3,0.2l0.2,1l0.4,0.1l-0.7-3.4
		l-0.3-0.1L53.2,30.2z M55.3,29.3l-1-0.2l0.7-1.4l0,0L55.3,29.3z M49.2,30h0.3l0.1-2.5l0,0l1,2.6h0.2l1.2-2.5l0,0L52,30.2h0.3
		l0.2-3.1h-0.4l-1.3,2.6l-1-2.7h-0.4L49.2,30z M46.4,30.2l1.8-0.2v-0.3l-1.4,0.2l-0.2-2.8h-0.3L46.4,30.2z M45,30.5l0.3-0.1
		l-0.6-3.1l-0.3,0.1L45,30.5z M42.2,31.2l1.7-0.5l-0.1-0.3l-1.4,0.4l-0.3-1.1l1.4-0.4L43.4,29l-1.4,0.4l-0.3-1l1.4-0.4L43,27.7
		l-1.7,0.5L42.2,31.2z M40.2,32l0.3-0.2l-1.1-2.6l0.9-0.4l-0.2-0.3l-2.1,0.9l0.2,0.3l0.9-0.4L40.2,32z M37.8,33.4l0.3-0.2l-1.4-2.4
		l0.8-0.5l-0.2-0.2l-1.9,1.1l0.2,0.2l0.8-0.5L37.8,33.4z M33,33.5l0.5-0.4c0.7-0.6,1.4-0.3,1.8,0.2c0.4,0.5,0.5,1.2-0.2,1.8
		l-0.6,0.4L33,33.5z M32.5,33.5l2,2.5l0.9-0.7c0.8-0.6,0.6-1.6,0.2-2.2s-1.3-1-2.2-0.2L32.5,33.5z M32,38.5l0.2-0.3l-0.5-0.8l0.9-1
		l0.9,0.3l0.2-0.3l-3.1-1.2l-0.2,0.2L32,38.5z M32.4,36.3l-0.7,0.8l-0.8-1.4l0,0L32.4,36.3z M31.1,39.8l0.2-0.3L29,37.9l0.6-0.8
		L29.4,37L28,38.8l0.2,0.2l0.6-0.8L31.1,39.8z M28.2,40.2c-0.4-0.2-1-0.2-1.3,0.6c-0.3,0.6-0.2,1.1,0.3,1.4c0.5,0.2,0.8,0,1.3-0.6
		c0.3-0.5,0.6-0.6,0.9-0.4c0.2,0.2,0.4,0.5,0.2,1c-0.2,0.4-0.5,0.6-0.9,0.5L28.5,43c0.6,0.2,1,0,1.4-0.6c0.4-0.7,0.1-1.3-0.3-1.4
		c-0.5-0.2-0.8,0-1.3,0.6c-0.3,0.5-0.6,0.5-0.8,0.4c-0.2-0.2-0.4-0.5-0.2-0.9c0.2-0.5,0.6-0.5,0.8-0.4L28.2,40.2z"/>
	<g>
		<polygon class="st0" points="44.2,39.2 47,42.2 48.5,43.5 49.8,44.3 50.8,44.8 51.7,45 52,44.2 52,42.9 51.6,42.8 51.4,42.6 
			51.3,39.7 51,39.4 51,38.6 51.6,38.2 51.4,37.4 50.8,36.3 44.4,36.4 45.4,38.2 		"/>
		<path class="st0" d="M39.8,41.4l0.6,0.3l1.4,0.5l0.3,0.2l1-1l0.2,0.3l0.3-0.1H44l0.2,0.1l0.1-0.3L44,40.7l0.6-0.4l-0.8-0.9v-0.2
			l-1.4-1.9l-1.1-0.6l-2.1-0.4l-0.2,0.4l0.6,0.4v0.5c0,0,0,0.1-0.7,2.5v0.1l-0.5-0.1c0,0.2,0.1,0.3,0.1,0.3c0,0.1-0.2,0.5-0.4,1.2
			h0.5L39.8,41.4z"/>
		<polygon class="st0" points="47.1,56.7 47.7,55 47.2,54.7 47,53.8 47.4,53 47.4,52.7 47.4,52.1 48.1,51.8 48.7,51.3 48.6,50.7 
			47.9,49.7 48.5,49 48.8,48.7 48.6,48.1 48.8,47.8 49.3,46.6 49.2,46.1 49,45.3 49.9,45.3 50.2,44.9 49.7,44.7 48.2,43.7 
			46.8,42.5 45,40.5 44.5,40.8 44.8,41.4 44.5,42.2 43.9,41.9 43.8,41.9 43.3,42 43.1,41.8 42.5,42.4 43,42.5 43.3,43.7 42.5,45.1 
			41.4,47.8 41.3,49.9 41.9,50.7 43.6,51.9 44.7,52.9 45.8,54.6 46.1,55.4 46.4,56.2 		"/>
		<path class="st0" d="M51.5,56.7l0.8,0.4v-0.4l-0.1-0.2L52,55.8l-0.5-0.3l0.2-1l0.5-1.8h0.3v-0.2l0.5-3.6l0.7-0.2l0.2-0.2l-0.1-0.4
			c0-0.2-0.1-0.4-0.1-0.5c-0.1,0-0.2-0.1-0.3-0.1h-0.2l0.2-0.9l0.1-0.5L52,45.5l-1.4-0.4l-0.1-0.1l-0.4,0.6h-0.6l0.1,0.4l0.2,0.6
			L49.1,48L49,48.2l0.2,0.6l-0.4,0.6l-0.4,0.4l0.6,0.8l0.1,1l-0.9,0.6l-0.5,0.2v0.3l0.2,0.4l-0.6,0.8l0.2,0.6l0.6,0.5l-0.6,1.8
			l0.5,0.1l2.2,0.3l0.9,0.2l0.4-0.1L51.5,56.7z"/>
		<path class="st0" d="M61.9,48.1l1.3-2.1l0.5-0.3l-0.7-1.4l-0.6,0.2l-0.3-1L59.7,46l-0.8,0.7l-1.3,0.4l-1.4,0.5l-2.3-1.1v0.3
			l-0.2,0.5c0.3,0.1,0.4,0.2,0.4,0.2c0,0,0.1,0.2,0.2,0.6l0.2,0.6L54,49l-0.6,0.2L53,52.5V53h-0.4l-0.4,1.5l-0.1,0.8l0.4,0.3
			l0.1,0.5l1,0.4l0.1-0.4l1.3,0.2l0.5-3.6l0.6,0.1l0.6,0.1l0.4-0.1v-0.4L56.8,52l0.2-0.6l-0.2-0.5h0.7l0.6-0.3v-0.6h0.4l1.9-1.1
			l0.3,0.2H61l0.2-0.4L61.9,48.1z"/>
		<path class="st0" d="M51.2,58.2c-0.2-0.2-0.6-0.3-0.6-0.3c-0.2,0-2.2-0.5-2.3-0.5l0,0c-0.7-0.2-1.5-0.4-1.7-0.5
			c-0.2,0-0.4-0.2-0.9-1.1c-0.2-0.2-0.4-0.7-0.5-1c-0.2-0.2-1-1.2-1.6-2.2l-2.8-2.3l0.2-2.5l1-2.8l0.5-1.1l-0.2-1l-0.9-0.9l-0.8-0.2
			l-1.2,0.1c-1.5,0.3-1.6,0.3-1.7,0.3s-0.2,0-1.1-0.4l0.4-0.8c0.2,0.2,0.6,0.3,0.7,0.3c0.2-0.1,0.9-0.2,1.5-0.3h0.1l1.4-0.1l1.1,0.3
			l1.2,1.2l0.2,1.5l-0.6,1.4l-1,2.7l0,1.9l2.5,2.2c1.8,2.2,1.8,2.3,1.8,2.4c0.1,0.2,0.6,1.2,0.8,1.5c0.2,0.1,0.6,0.2,1.6,0.4
			c0.6,0.2,2.2,0.4,2.3,0.5c0.2,0,0.6,0.2,1,0.5L51.2,58.2z"/>
	</g>
</g>
</svg>
