<?xml version="1.0" encoding="utf-8"?>
<!-- Generator: Adobe Illustrator 26.3.1, SVG Export Plug-In . SVG Version: 6.00 Build 0)  -->
<svg version="1.1" id="Ebene_1" xmlns="http://www.w3.org/2000/svg" xmlns:xlink="http://www.w3.org/1999/xlink" x="0px" y="0px"
	 viewBox="0 0 100 100" style="enable-background:new 0 0 100 100;" xml:space="preserve">
<g>
	<g id="Icons_00000142890905650971375130000018123435157037962403_">
		<g>
			<path d="M14.4,50.2l-1.8,3.1h1.6c0.1,0,0.2,0.1,0.2,0.2s-0.2,0.3-0.3,0.3h-2.2v-0.3l1.8-3.2H12c-0.1,0-0.2-0.1-0.2-0.2
				s0.2-0.3,0.3-0.3h2.3L14.4,50.2L14.4,50.2z"/>
			<path d="M16.5,52.6l0.2,0.5l0.2-0.5v-1.3c0-0.2,0-0.3,0.2-0.3s0.2,0.2,0.2,0.3v1.4l-0.2,0.7c0,0.2-0.1,0.3-0.2,0.3h-0.2
				c-0.1,0.1-0.2,0-0.2-0.1l-0.2-0.4l-0.2,0.4c0,0.1-0.1,0.2-0.2,0.2h-0.3c-0.2,0-0.2-0.2-0.2-0.3l-0.2-0.7v-1.4
				c0-0.2,0-0.3,0.2-0.3c0.2,0,0.2,0.2,0.2,0.3v1.3l0.2,0.4l0.2-0.5v-0.5c0-0.2,0-0.3,0.2-0.3c0.2,0,0.2,0.2,0.2,0.3V52.6L16.5,52.6
				z"/>
			<path d="M19.7,53.4H20c0.2,0,0.3,0,0.3,0.2c0,0.2-0.2,0.2-0.3,0.2h-1.3c-0.2,0-0.3,0-0.3-0.2c0-0.2,0.2-0.2,0.3-0.2h0.4v-1.8
				h-0.4c-0.2,0-0.3,0-0.3-0.2s0.2-0.2,0.3-0.2h0.5c0.2,0,0.3,0,0.3,0.3L19.7,53.4L19.7,53.4z"/>
			<path d="M22.3,51.5c-0.1,0-0.2,0-0.2,0.2c0,0.1,0.1,0.1,0.1,0.2l1.2,0.6c0.3,0.2,0.5,0.3,0.5,0.7c0,0.5-0.3,0.7-0.8,0.7h-0.7
				c-0.2,0-0.4,0-0.6-0.2c-0.1-0.1-0.2-0.2-0.2-0.2c0-0.2,0.1-0.2,0.2-0.2c0.1,0,0.1,0,0.2,0.1c0.1,0.1,0.2,0.1,0.4,0.1H23
				c0.2,0,0.4,0,0.4-0.2c0-0.1-0.2-0.2-0.2-0.2L22,52.4c-0.2-0.1-0.4-0.2-0.4-0.6c0-0.4,0.3-0.6,0.6-0.6H23c0.2,0,0.4,0,0.6,0.2
				c0.1,0.1,0.2,0.2,0.2,0.2s0,0.2-0.2,0.2c-0.1,0-0.2,0-0.2-0.1c-0.1-0.1-0.2-0.1-0.3-0.1L22.3,51.5L22.3,51.5z"/>
			<path d="M24.7,52.2c0-0.3,0-0.5,0.2-0.6l0.3-0.3c0.2-0.2,0.3-0.2,0.6-0.2h0.8c0.2,0,0.3,0,0.3,0.2s-0.2,0.2-0.3,0.2h-0.9
				c-0.1,0-0.2,0-0.2,0.1l-0.3,0.2c-0.1,0.1-0.1,0.1-0.1,0.2v0.6c0,0.1,0,0.2,0.1,0.2l0.3,0.2c0.1,0.1,0.2,0.1,0.2,0.1h0.9
				c0.2,0,0.3,0,0.3,0.2c0,0.2-0.2,0.2-0.3,0.2h-0.8c-0.2,0-0.4,0-0.6-0.2l-0.3-0.2c-0.2-0.2-0.2-0.3-0.2-0.6V52.2z"/>
			<path d="M29.2,51.5c0,0-0.1,0-0.2,0L28.4,52v1.4c0,0.2,0,0.3-0.2,0.3c-0.2,0-0.2-0.2-0.2-0.3v-3.1c0-0.2,0-0.3,0.2-0.3
				c0.2,0,0.2,0.2,0.2,0.3v1.1l0.4-0.2c0.1-0.1,0.2-0.2,0.4-0.2h0.3c0.1,0,0.2,0,0.5,0.2c0.2,0.2,0.2,0.4,0.2,0.6v1.6
				c0,0.2,0,0.3-0.2,0.3s-0.2-0.2-0.2-0.3v-1.5c0-0.2,0-0.4-0.2-0.4L29.2,51.5L29.2,51.5z"/>
			<path d="M32,53.8c-0.2,0-0.2,0-0.4-0.1l-0.2-0.2c-0.2-0.2-0.2-0.2-0.2-0.6v-1c0-0.2,0-0.4,0.2-0.6l0.2-0.2
				c0.2-0.2,0.3-0.2,0.6-0.2h0.5c0.2,0,0.3,0,0.6,0.2l0.2,0.2c0.2,0.2,0.2,0.3,0.2,0.6v0.4c0,0.2,0,0.3-0.3,0.3h-1.6V53
				c0,0,0,0.1,0.1,0.2l0.1,0.1c0.1,0.1,0.2,0.1,0.3,0.1h1c0.2,0,0.3,0,0.3,0.2c0,0.2-0.2,0.2-0.3,0.2L32,53.8
				C32,53.8,32,53.8,32,53.8z M31.6,52.2H33v-0.3c0-0.1,0-0.2-0.1-0.2l-0.2-0.2c-0.1,0-0.2-0.1-0.2-0.1h-0.4c-0.1,0-0.2,0-0.2,0
				l-0.2,0.2c-0.1,0-0.1,0.1-0.1,0.2L31.6,52.2L31.6,52.2z"/>
			<path d="M34.8,52v1.4c0,0.2,0,0.3-0.2,0.3c-0.2,0-0.2-0.2-0.2-0.3v-2.1c0-0.2,0-0.3,0.2-0.3c0.2,0,0.2,0.2,0.2,0.3l0,0l0,0
				l0.4-0.2c0.1-0.1,0.2-0.2,0.4-0.2h0.3c0.2,0,0.3,0,0.5,0.2c0.2,0.2,0.2,0.4,0.2,0.6v1.6c0,0.2,0,0.3-0.2,0.3s-0.2-0.2-0.2-0.3
				v-1.5c0-0.3,0-0.4-0.3-0.4h-0.2c0,0-0.1,0-0.2,0L34.8,52z"/>
			<path d="M40,50.2l-1.8,3.1h1.6c0.1,0,0.2,0.1,0.2,0.2s-0.1,0.2-0.2,0.2h-2.3v-0.3l1.8-3.2h-1.6c-0.1,0-0.2-0.1-0.2-0.2
				s0.1-0.2,0.2-0.2H40V50.2z"/>
			<path d="M41.6,53.8c-0.2,0-0.2,0-0.4-0.1L41,53.6c-0.2-0.2-0.2-0.2-0.2-0.6v-1c0-0.2,0-0.4,0.2-0.6l0.2-0.2
				c0.2-0.2,0.3-0.2,0.6-0.2h0.5c0.2,0,0.3,0,0.6,0.2l0.2,0.2c0.2,0.2,0.2,0.3,0.2,0.6v0.4c0,0.2,0,0.3-0.3,0.3h-1.6V53
				c0,0,0,0.1,0.1,0.2l0.1,0.1c0.1,0.1,0.2,0.1,0.3,0.1h1c0.2,0,0.3,0,0.3,0.2c0,0.2-0.2,0.2-0.3,0.2L41.6,53.8L41.6,53.8z
				 M41.2,52.2h1.4v-0.3c0-0.1,0-0.2-0.1-0.2l-0.2-0.2c-0.1,0-0.2-0.1-0.2-0.1h-0.4c-0.1,0-0.2,0-0.2,0l-0.1,0.2
				c-0.1,0-0.1,0.1-0.1,0.2v0.4H41.2z"/>
			<path d="M45.3,53.4h0.3c0.2,0,0.3,0,0.3,0.2c0,0.2-0.2,0.2-0.3,0.2h-1.3c-0.2,0-0.3,0-0.3-0.2c0-0.2,0.2-0.2,0.3-0.2h0.4v-1.8
				h-0.4c-0.2,0-0.3,0-0.3-0.2s0.2-0.2,0.3-0.2h0.5c0.2,0,0.3,0,0.3,0.3L45.3,53.4L45.3,53.4z M44.5,50c0-0.2,0.1-0.2,0.2-0.2H45
				c0.1,0,0.2,0,0.2,0.2v0.2c0,0.2-0.1,0.2-0.2,0.2h-0.2c-0.1,0-0.2,0-0.2-0.2V50z M18.9,50c0-0.2,0.1-0.2,0.2-0.2h0.2
				c0.1,0,0.2,0,0.2,0.2v0.2c0,0.2-0.1,0.2-0.2,0.2h-0.2c-0.1,0-0.2,0-0.2-0.2V50z"/>
			<path d="M48,52.9c0,0.2,0,0.4,0.3,0.4h0.2c0.2,0,0.2,0,0.3-0.2c0-0.1,0.1-0.2,0.2-0.2s0.2,0.1,0.2,0.2c0,0.2-0.1,0.3-0.2,0.4
				c-0.2,0.2-0.4,0.2-0.6,0.2h-0.2c-0.2,0-0.5,0-0.6-0.2c-0.2-0.2-0.2-0.4-0.2-0.7v-1.4h-0.1c-0.2,0-0.3,0-0.3-0.2
				c0-0.2,0.2-0.2,0.3-0.2h0.2v-0.4c0-0.2,0-0.3,0.2-0.3c0.2,0,0.2,0.2,0.2,0.3V51h0.8c0.2,0,0.3,0,0.3,0.2s-0.2,0.2-0.3,0.2h-0.8
				L48,52.9L48,52.9z"/>
			<path d="M52.7,50.2l-1.8,3.1h1.6c0.1,0,0.2,0.1,0.2,0.2s-0.1,0.2-0.2,0.2h-2.3v-0.3l1.8-3.2h-1.6c-0.1,0-0.2-0.1-0.2-0.2
				s0.1-0.2,0.2-0.2h2.3V50.2z"/>
			<path d="M54.4,53.8c-0.2,0-0.2,0-0.4-0.1l-0.2-0.2c-0.2-0.2-0.2-0.2-0.2-0.6v-1c0-0.2,0-0.4,0.2-0.6l0.2-0.2
				c0.2-0.2,0.3-0.2,0.6-0.2H55c0.2,0,0.3,0,0.6,0.2l0.2,0.2c0.2,0.2,0.2,0.3,0.2,0.6v0.4c0,0.2,0,0.3-0.3,0.3H54V53
				c0,0,0,0.1,0.1,0.2l0.1,0.1c0.1,0.1,0.2,0.1,0.3,0.1h1c0.2,0,0.3,0,0.3,0.2c0,0.2-0.2,0.2-0.3,0.2L54.4,53.8L54.4,53.8z M54,52.2
				h1.4v-0.3c0-0.1,0-0.2-0.1-0.2l-0.2-0.2c-0.1,0-0.2-0.1-0.2-0.1h-0.4c-0.1,0-0.2,0-0.2,0l-0.2,0.1c-0.1,0-0.1,0.1-0.1,0.2
				L54,52.2L54,52.2z"/>
			<path d="M57.2,52v1.4c0,0.2,0,0.3-0.2,0.3c-0.2,0-0.2-0.2-0.2-0.3v-2.1c0-0.2,0-0.3,0.2-0.3c0.2,0,0.2,0.2,0.2,0.3l0,0l0,0
				l0.4-0.2C57.6,51,57.8,51,58,51h0.3c0.2,0,0.3,0,0.5,0.2c0.2,0.2,0.2,0.4,0.2,0.6v1.6c0,0.2,0,0.3-0.2,0.3
				c-0.2,0-0.2-0.2-0.2-0.3v-1.5c0-0.3,0-0.4-0.3-0.4H58c0,0-0.1,0-0.2,0L57.2,52z"/>
			<path d="M60.8,52.9c0,0.2,0,0.4,0.3,0.4h0.2c0.2,0,0.2,0,0.3-0.2c0-0.1,0.1-0.2,0.2-0.2c0.2,0,0.2,0.1,0.2,0.2
				c0,0.2-0.1,0.3-0.2,0.4c-0.2,0.2-0.4,0.2-0.6,0.2h-0.2c-0.2,0-0.5,0-0.6-0.2c-0.2-0.2-0.2-0.4-0.2-0.7v-1.4h-0.2
				c-0.2,0-0.3,0-0.3-0.2c0-0.2,0.2-0.2,0.3-0.2h0.2v-0.4c0-0.2,0-0.3,0.2-0.3c0.2,0,0.2,0.2,0.2,0.3V51h0.8c0.2,0,0.3,0,0.3,0.2
				s-0.2,0.2-0.3,0.2h-0.8L60.8,52.9L60.8,52.9z"/>
			<path d="M63,51.4c0-0.2,0-0.3,0.2-0.3s0.2,0.2,0.2,0.3v0.2l0.4-0.3c0.2-0.1,0.2-0.2,0.4-0.2h0.4c0.2,0,0.3,0.1,0.5,0.2
				c0.2,0.2,0.2,0.3,0.2,0.6c0,0.2,0,0.3-0.2,0.3c-0.2,0-0.2-0.2-0.2-0.3c0-0.1,0-0.2,0-0.2c-0.1-0.1-0.2-0.1-0.3-0.1h-0.2
				c-0.1,0-0.2,0-0.2,0.1l-0.7,0.6v1.3c0,0.2,0,0.3-0.2,0.3c-0.2,0-0.2-0.1-0.2-0.3V51.4L63,51.4z"/>
			<path d="M67.1,51.5c-0.2,0-0.3,0-0.3-0.2c0-0.2,0.2-0.2,0.3-0.2h0.6c0.2,0,0.4,0,0.6,0.2c0.2,0.2,0.2,0.3,0.2,0.6v1.7
				c0,0.2-0.1,0.2-0.2,0.2c-0.1,0-0.2-0.1-0.2-0.2l-0.3,0.2c-0.2,0.1-0.2,0.1-0.3,0.1H67c-0.2,0-0.4,0-0.6-0.2
				c-0.2-0.2-0.2-0.3-0.2-0.6V53c0-0.2,0-0.4,0.2-0.6c0.2-0.2,0.3-0.2,0.6-0.2h1v-0.1c0-0.3-0.1-0.4-0.4-0.4L67.1,51.5L67.1,51.5
				L67.1,51.5z M67.1,52.6c-0.1,0-0.3,0-0.3,0.2v0.3c0,0.2,0.2,0.2,0.3,0.2h0.6l0.6-0.2V53c0-0.2-0.1-0.3-0.3-0.3
				C67.8,52.6,67.1,52.6,67.1,52.6z"/>
			<path d="M70.9,53.4h0.3c0.2,0,0.3,0,0.3,0.2c0,0.2-0.2,0.2-0.3,0.2H70c-0.2,0-0.3,0-0.3-0.2c0-0.2,0.2-0.2,0.3-0.2h0.4v-2.8H70
				c-0.2,0-0.3,0-0.3-0.2c0-0.2,0.2-0.2,0.3-0.2h0.5c0.2,0,0.3,0,0.3,0.3L70.9,53.4C70.8,53.4,70.9,53.4,70.9,53.4z"/>
			<path d="M73.5,53.8c-0.2,0-0.2,0-0.4-0.1l-0.2-0.2c-0.2-0.2-0.2-0.2-0.2-0.6v-1c0-0.2,0-0.4,0.2-0.6l0.2-0.2
				c0.2-0.2,0.3-0.2,0.6-0.2h0.5c0.2,0,0.3,0,0.6,0.2l0.2,0.2c0.2,0.2,0.2,0.3,0.2,0.6v0.4c0,0.2,0,0.3-0.3,0.3h-1.6V53
				c0,0,0,0.1,0.1,0.2l0.1,0.1c0.1,0.1,0.2,0.1,0.3,0.1h1c0.2,0,0.3,0,0.3,0.2c0,0.2-0.1,0.2-0.2,0.2L73.5,53.8L73.5,53.8L73.5,53.8
				z M73.2,52.2h1.4v-0.3c0-0.1,0-0.2-0.1-0.2l-0.2-0.2c-0.1,0-0.2-0.1-0.2-0.1h-0.4c-0.1,0-0.2,0-0.2,0l-0.2,0.1
				c-0.1,0-0.1,0.1-0.1,0.2L73.2,52.2C73.1,52.2,73.2,52.2,73.2,52.2z"/>
		</g>
		<path d="M90.1,38c0-0.2-0.1-0.5-0.2-0.6l-8-6.5c-0.4-0.3-0.8-0.3-1.2,0l-8,6.5c-0.2,0.2-0.2,0.3-0.2,0.6c0,0,0,0,0,0.1l0,0l0,0
			v9.1c0,0.5,0.4,0.9,0.9,0.9H78v5.3c0,0,0,0.1,0.1,0.1c0,0,0.1-0.1,0.2-0.2l3.8-5.1h7.4c0.5,0,0.9-0.4,0.9-0.9L90.1,38
			C90.1,38.1,90.1,38.1,90.1,38z M77.2,45.3c0.1,0,0.2,0,0.2,0.1c0.1,0,0.1,0.2,0.1,0.2c0,0.1,0,0.2-0.1,0.2c-0.1,0-0.2,0.1-0.2,0.1
			h-2.4l0,0l0,0l0,0l0,0c0,0-0.1-0.1-0.1-0.2s0-0.2,0.1-0.2l1.8-2.6h-1.4c-0.1,0-0.2,0-0.2-0.1c-0.1,0-0.1-0.2-0.1-0.2
			s0-0.2,0.1-0.2c0.1,0,0.2-0.1,0.2-0.1h2.5l0,0c0,0,0.1,0.1,0.1,0.2c0,0.1,0,0.2-0.1,0.2l-1.8,2.6L77.2,45.3L77.2,45.3L77.2,45.3z
			 M82.2,40.7L82.2,40.7L82.2,40.7c0,0.1,0,0.2-0.1,0.2l-2.3,3.2h1.9c0.1,0,0.2,0,0.2,0.1c0.1,0.1,0.2,0.2,0.2,0.2l0,0l0,0
			c0,0.1-0.1,0.2-0.2,0.2c-0.1,0.1-0.2,0.1-0.2,0.1l0,0h-3l0,0l0,0l0,0l0,0l0,0l0,0c0-0.1-0.1-0.2-0.1-0.2s0-0.2,0.1-0.2l2.3-3.2
			h-1.9c-0.1,0-0.2,0-0.2-0.1c-0.1-0.1-0.2-0.2-0.2-0.2l0,0l0,0c0-0.1,0.1-0.2,0.2-0.2c0.1-0.1,0.2-0.1,0.3-0.1h3l0,0l0,0
			C82.2,40.6,82.2,40.6,82.2,40.7L82.2,40.7z M87.1,43c0.1,0,0.2,0,0.3,0.1c0.1,0.1,0.2,0.2,0.2,0.3s-0.1,0.2-0.2,0.3
			c-0.1,0.1-0.2,0.1-0.3,0.1h-3.8l0,0l0,0l0,0c0-0.1-0.1-0.2-0.1-0.2s0-0.2,0.1-0.2l3-4.2h-2.5c-0.1,0-0.2,0-0.3-0.1
			c-0.1-0.1-0.2-0.2-0.2-0.3s0.1-0.2,0.2-0.3c0.1-0.1,0.2-0.1,0.3-0.1h3.8l0,0c0.1,0.1,0.1,0.2,0.1,0.2s0,0.2-0.1,0.2l-3,4.2
			L87.1,43L87.1,43L87.1,43z"/>
		<g>
			<path d="M58.4,55.5h1.2c0.6,0,0.9,0.4,0.9,1c0,0.2,0,0.5-0.2,0.6c0.2,0.2,0.2,0.5,0.2,0.8c0,0.6-0.3,0.9-0.9,0.9h-1.2V55.5z
				 M58.8,57h0.8c0.3,0,0.5-0.1,0.5-0.5c0-0.4-0.1-0.6-0.5-0.6h-0.8V57z M58.8,58.4h0.8c0.3,0,0.5-0.1,0.5-0.5
				c0-0.4-0.1-0.6-0.5-0.6h-0.8V58.4z"/>
			<path d="M61.4,56.8c0-0.2,0-0.3,0.2-0.3s0.2,0.1,0.2,0.2v0.2l0.3-0.2c0.1-0.1,0.2-0.2,0.3-0.2h0.3c0.2,0,0.2,0,0.4,0.2
				c0.1,0.1,0.2,0.2,0.2,0.5c0,0.2,0,0.2-0.2,0.2c-0.2,0-0.1-0.1-0.1-0.2c0-0.1,0-0.1,0-0.2s-0.2-0.1-0.2-0.1h-0.1
				c-0.1,0-0.1,0-0.2,0.1L62,57.4v1c0,0.2,0,0.2-0.2,0.2c-0.2,0-0.2-0.2-0.2-0.2L61.4,56.8L61.4,56.8z"/>
			<path d="M65.2,58.8c-0.2,0-0.2,0-0.3-0.1l-0.2-0.2c-0.2-0.2-0.2-0.2-0.2-0.5v-0.8c0-0.2,0-0.3,0.2-0.5l0.2-0.1
				c0.2-0.2,0.2-0.2,0.5-0.2h0.4c0.2,0,0.3,0,0.5,0.2l0.2,0.1c0.2,0.2,0.2,0.3,0.2,0.6v0.3c0,0.2,0,0.3-0.2,0.3h-1.3v0.1
				c0,0,0,0.1,0.1,0.1l0.1,0.1c0,0.1,0.1,0.1,0.2,0.1h0.9c0.1,0,0.2,0,0.2,0.2c0,0.2-0.2,0.2-0.2,0.2L65.2,58.8L65.2,58.8z
				 M64.8,57.5H66v-0.2c0-0.1,0-0.2,0-0.2L65.7,57c0,0-0.1,0-0.2,0h-0.3c-0.1,0-0.2,0-0.2,0L64.9,57c0,0-0.1,0.1-0.1,0.2L64.8,57.5
				L64.8,57.5z"/>
			<path d="M68.5,57.2v1.4c0,0.2,0,0.2-0.2,0.2s-0.2-0.2-0.2-0.2v-1.4c0-0.1,0-0.2-0.1-0.2c0,0-0.1,0-0.1,0.1l-0.2,0.2v1.3
				c0,0.2,0,0.2-0.2,0.2s-0.2-0.2-0.2-0.2v-1.8c0-0.2,0-0.2,0.2-0.2c0.1,0,0.2,0.1,0.2,0.2l0,0c0.1-0.1,0.2-0.1,0.3-0.1
				s0.2,0.1,0.4,0.2l0,0c0.1-0.1,0.2-0.2,0.3-0.2c0.1,0,0.2,0.1,0.3,0.2c0.1,0.1,0.1,0.2,0.1,0.4v1.4c0,0.2,0,0.3-0.2,0.3
				S69,58.8,69,58.7v-1.4c0-0.1,0-0.2-0.1-0.2c-0.1,0-0.1,0.1-0.2,0.2L68.5,57.2z"/>
			<path d="M71,58.8c-0.2,0-0.2,0-0.3-0.1l-0.2-0.2c-0.2-0.2-0.2-0.2-0.2-0.5v-0.8c0-0.2,0-0.3,0.2-0.5l0.2-0.1
				c0.2-0.2,0.2-0.2,0.5-0.2h0.4c0.2,0,0.3,0,0.5,0.2l0.2,0.1c0.2,0.2,0.2,0.3,0.2,0.6v0.3c0,0.2,0,0.3-0.2,0.3h-1.3v0.1
				c0,0,0,0.1,0.1,0.1l0.1,0.1c0,0.1,0.1,0.1,0.2,0.1h0.9c0.1,0,0.2,0,0.2,0.2c0,0.2-0.2,0.2-0.2,0.2L71,58.8L71,58.8z M70.7,57.5
				h1.2v-0.2c0-0.1,0-0.2,0-0.2L71.7,57c0,0-0.1,0-0.2,0h-0.3c-0.1,0-0.2,0-0.2,0L70.9,57c0,0-0.1,0.1-0.1,0.2L70.7,57.5L70.7,57.5z
				"/>
			<path d="M73.7,57.4v1.2c0,0.2,0,0.2-0.2,0.2c-0.2,0-0.2-0.2-0.2-0.2v-1.8c0-0.2,0-0.3,0.2-0.3c0.2,0,0.2,0.2,0.2,0.3l0,0l0,0
				l0.3-0.2c0.1-0.1,0.2-0.1,0.3-0.1h0.3c0.2,0,0.2,0,0.4,0.2s0.2,0.3,0.2,0.6v1.3c0,0.2,0,0.3-0.2,0.3s-0.2-0.2-0.2-0.2v-1.3
				c0-0.2,0-0.3-0.2-0.3h-0.1h-0.1L73.7,57.4z"/>
		</g>
	</g>
</g>
</svg>
