<?xml version="1.0" encoding="utf-8"?>
<!-- Generator: Adobe Illustrator 15.1.0, SVG Export Plug-In . SVG Version: 6.00 Build 0)  -->
<!DOCTYPE svg PUBLIC "-//W3C//DTD SVG 1.1//EN" "http://www.w3.org/Graphics/SVG/1.1/DTD/svg11.dtd">
<svg version="1.1" id="Layer_1" xmlns="http://www.w3.org/2000/svg" xmlns:xlink="http://www.w3.org/1999/xlink" x="0px" y="0px"
	 width="575px" height="179px" viewBox="0 0 575 179" enable-background="new 0 0 575 179" xml:space="preserve">
<path d="M98.563,85.814c6.072,4.582,9.967,11.343,9.967,19.02c0,13.406-10.542,24.176-23.831,24.176H50.211V43.078h32.654
	c13.292,0,23.946,10.998,23.946,24.29C106.811,74.929,103.72,81.458,98.563,85.814 M62.012,54.076v26.581h20.853
	c7.219,0,12.489-5.956,12.489-13.289c0-7.22-5.27-13.292-12.489-13.292H62.012z M97.189,104.834c0-6.759-6.189-12.835-13.867-13.179
	h-21.31v26.468h22.687C91.918,118.123,97.189,112.166,97.189,104.834z"/>
<path d="M163.429,70.347h11.801v58.663h-11.801v-5.502c-4.238,4.469-10.542,7.332-17.414,7.332c-16.5,0-27.958-12.717-27.958-31.164
	c0-18.331,11.458-31.049,27.958-31.049c7.103,0,12.946,2.177,17.414,7.103V70.347 M163.429,99.676
	c0-12.03-5.384-20.622-17.414-20.622c-12.031,0-15.812,10.312-15.812,20.622c0,10.426,3.781,20.623,15.812,20.623
	C158.045,120.299,163.429,111.938,163.429,99.676z"/>
<path d="M233.339,113.082c0,5.846-2.635,10.658-7.562,13.75c-3.897,2.293-8.937,3.896-15.237,3.896
	c-6.19,0-12.377-2.408-16.616-5.846c-3.438-2.748-5.958-7.332-7.104-12.717h11.687c1.718,4.469,6.187,8.022,12.033,8.022
	c5.04,0,11.112-1.151,11.112-7.106c0-4.24-4.355-5.156-10.772-7.104c-4.125-1.031-11.458-3.551-15.006-5.497
	c-7.333-4.128-8.824-8.597-8.824-13.75c0-5.615,2.865-10.541,7.677-13.864c4.238-2.75,9.623-4.467,15.468-4.467
	c13.405,0,21.425,8.247,23.144,18.56h-11.687c-1.605-4.582-5.958-8.479-11.457-8.479c-6.417,0-11.573,3.096-11.573,8.25
	c0,2.979,3.666,4.01,9.052,5.613c5.613,1.717,11.342,3.097,17.071,6.416C231.735,103,233.339,107.01,233.339,113.082"/>
<path d="M327.881,96.012c0,11.111-2.52,15.693-6.07,21.078c2.291,3.553,5.957,8.826,8.021,11.92h-12.377l-2.863-4.471
	c-5.043,3.899-10.77,5.957-17.303,6.533c-17.988,1.488-33.57-10.656-35.402-28.531c-0.918-13.175,6.76-23.715,17.301-30.705
	l-1.605-2.522c-1.948-2.52-3.321-5.841-3.666-9.394c-0.801-9.625,6.646-18.102,16.384-19.02c9.51-0.8,17.875,6.188,18.906,15.582
	c0.342,8.364-5.73,14.782-14.438,19.022l20.279,31.047c0.918-2.979,1.49-6.645,1.377-10.539H327.881 M308.52,115.375
	c-8.135-11.92-15.122-22.917-23.375-34.831c-6.988,4.812-11.685,12.488-11.342,21.194c1.602,11.229,11.114,19.936,22.683,19.137
	C301.07,120.416,304.967,118.352,308.52,115.375z M285.032,59.117c0.113,1.263,0.916,2.636,1.717,4.009l2.293,3.439
	c1.029-0.455,1.49-0.688,2.519-1.144c4.012-1.834,6.877-4.471,6.646-8.136c-0.229-3.667-3.438-6.301-7.104-6.187
	C286.635,51.441,284.801,54.879,285.032,59.117z"/>
<path d="M402.037,104.834h-26.58c-2.635,7.904-5.498,16.383-7.904,24.176h-12.148l27.615-85.932h11.227l27.729,85.932h-12.258
	L402.037,104.834 M398.602,93.833c-3.666-11.455-6.188-18.904-9.967-30.82c-3.324,10.426-6.418,19.822-9.857,30.82H398.602z"/>
<path d="M481.115,105.637H441.93c1.145,8.02,5.156,14.552,14.552,14.552c5.956,0,9.166-2.638,11.918-7.106h12.373
	c-5.041,10.77-12.604,17.646-24.291,17.646c-17.53,0-27.269-13.982-27.269-31.165c0-17.186,9.508-31.164,26.924-31.164
	c17.301,0,24.979,13.978,24.979,31.164V105.637 M441.699,94.864h27.385c-0.685-8.48-3.092-16.038-12.947-16.038
	C446.168,78.826,442.619,86.384,441.699,94.864z"/>
<path d="M524.21,80.775c-9.509,0-17.526,4.123-17.526,21.422v26.812h-11.918V70.347h11.918v7.218
	c3.664-5.615,9.738-8.591,17.526-8.591V80.775"/>
</svg>
