<?xml version="1.0" encoding="utf-8"?>
<!-- Generator: Adobe Illustrator 26.0.3, SVG Export Plug-In . SVG Version: 6.00 Build 0)  -->
<svg version="1.1" xmlns="http://www.w3.org/2000/svg" xmlns:xlink="http://www.w3.org/1999/xlink" x="0px" y="0px"
	 viewBox="0 0 1835 854" style="enable-background:new 0 0 1835 854;" xml:space="preserve">
<style type="text/css">
	.st0{fill:#0000FF;}
	.st1{fill:#FF0000;}
</style>
<g id="Ebene_2">
</g>
<g id="Ebene_1">
</g>
<g id="Ebene_4">
</g>
<g id="Ebene_3">
	<g>
		<g>
			<g>
				<path class="st0" d="M907.5,276.5h-40.2c-29.1,0-48.4-21.6-52.6-46c-4.6-27,14-50.3,42.4-50.2h33.5L907.5,276.5z M860.3,201.2
					c-16.5,0-24.6,12.5-22,27.9c2.2,13.2,14,26.1,28.1,26.1h14.5l-9.4-54H860.3z"/>
				<path class="st0" d="M807.8,276.5h-23.1l-16.9-96.2h22.9L807.8,276.5z"/>
				<path class="st0" d="M713,277.8c-21.1-0.1-34.5-9.8-44-23.7l20.4-12.8c5.4,8.7,13,13.8,22.1,13.8c16.7,0,26.4-14,23.6-29.4
					c-2.5-14.2-13.8-24.2-28.1-24.2c-11.6,0-18.8,6.5-22,15.4l-22.4-10.8c6.6-15.7,22-27.1,42.6-27.1c27.1,0,48.8,19,53.1,44.1
					C763.4,252.1,745.6,278.1,713,277.8z"/>
				<path class="st0" d="M619.1,276.5l-13-74.9h-26l-3.7-21.3h74.5l3.8,21.3h-25.8l13,74.9H619.1z"/>
				<path class="st0" d="M576.9,276.5h-23.1L537,180.3h22.9L576.9,276.5z"/>
				<path class="st0" d="M481.5,277.8c-27.4,0-48.6-19.4-53-44.8c-4.9-28.7,14.9-54,44.7-54c26.5,0,48.8,19.4,53.1,44.8
					C531.2,252.5,511.5,277.8,481.5,277.8z M479.6,255.1c16.5,0,26.2-14,23.6-29.3c-2.5-13.7-13.3-24.4-27.9-24.4
					c-16.5,0-26.4,14-23.6,29.4C454.1,244.6,465,255.1,479.6,255.1z"/>
				<path class="st0" d="M421.4,276.5h-22.5l-10.7-60.6l-29.5,60.6h-22l-16.9-96.2h22.7L353,240l28.9-59.7h22.7L421.4,276.5z"/>
			</g>
			<g>
				<path class="st1" d="M179.1,228.4c0-28.1,21-49.4,49.3-49.4c18.6,0,34.3,9.5,42.8,23.7l-20.2,12.8c-4.3-8.6-12-14-22.5-14
					c-15.3,0-26,12-26,26.9c0,14.6,10.4,26.6,25.7,26.6c11.5,0,19.4-6.6,23.3-15.7l21.2,11.3c-8.2,15.9-23.9,27.1-44.4,27.1
					C198.8,277.8,179.1,255.8,179.1,228.4z"/>
				<path class="st1" d="M281.9,228.4c0-27.3,21.7-49.4,49.2-49.4c27.4,0,49.3,22.1,49.3,49.4c0,27.4-21.6,49.4-49.3,49.4
					C303.6,277.8,281.9,255.8,281.9,228.4z M357.3,228.4c0-14.8-11.3-26.9-26.2-26.9c-14.9,0-26,12.1-26,26.9
					c0,14.6,10.9,26.8,26,26.8C346.2,255.1,357.3,243,357.3,228.4z"/>
				<path class="st1" d="M397.1,180.3h24l36.2,57.7v-57.7h21.9v96.2h-22.3L419.1,216v60.5h-22V180.3z"/>
				<path class="st1" d="M521.9,201.5h-26.1v-21.2h74.3v21.2h-25.8v75h-22.4V201.5z"/>
				<path class="st1" d="M586.7,180.3h41.4c23.2,0,36.1,14.9,36.1,33.1c0,12.3-5.9,22.7-15.6,28.3l17.9,34.8h-25.3l-13.6-28.9h-18.1
					v28.9h-22.9V180.3z M609.6,201.2v25.6h16.7c9.8,0,14.4-5.8,14.4-12.9c0-7.9-4.7-12.7-14.4-12.7H609.6z"/>
				<path class="st1" d="M710.2,180.3h22.1l35.6,96.2h-23.3l-5-14.4h-36.8l-5,14.4h-23.2L710.2,180.3z M709.9,242.1h22.7l-11.3-32.3
					L709.9,242.1z"/>
			</g>
		</g>
		<g>
			<path d="M399.5,316.1c0,6.9-4.5,11.5-11.4,11.5h-7.3v-23.1h7.5C395,304.6,399.5,309.2,399.5,316.1z M396.5,316.1
				c0-5.4-3.4-9-8.5-9h-4.5v17.9h4.5C393.1,325.1,396.5,321.5,396.5,316.1z"/>
			<path d="M406.4,307.1v8.4h10.2v2.5h-10.2v9.7h-2.7v-23.1h14.4v2.6H406.4z"/>
			<path d="M442.3,315.8v11.9h-1.8l-0.5-4.8h-0.3c-1.5,3.2-4.5,5.2-8.5,5.2c-6.5,0-10.8-4.8-10.8-12c0-7.2,4.5-12,11.1-12
				c5.4,0,9.6,3.3,10.5,8.2h-3c-0.8-3.4-3.8-5.6-7.6-5.6c-4.9,0-8.2,3.8-8.2,9.3c0,5.6,3.4,9.4,8.4,9.4c4.3,0,7.4-2.9,7.9-7.4h-8
				v-2.3H442.3z"/>
			<path d="M474.8,315.8v11.9H473l-0.5-4.8h-0.3c-1.5,3.2-4.5,5.2-8.5,5.2c-6.5,0-10.8-4.8-10.8-12c0-7.2,4.5-12,11.1-12
				c5.4,0,9.6,3.3,10.5,8.2h-3c-0.8-3.4-3.8-5.6-7.6-5.6c-4.9,0-8.2,3.8-8.2,9.3c0,5.6,3.4,9.4,8.4,9.4c4.3,0,7.4-2.9,7.9-7.4h-8
				v-2.3H474.8z"/>
			<path d="M487.6,311.6v2.7h-1.9c-2.3,0-3.3,1.5-3.3,4.5v8.8h-2.6v-16h2.4v2.3h0.4c0.5-1.4,1.8-2.3,3.6-2.3H487.6z"/>
			<path d="M503.4,317.5v10.1H501v-2.6h-0.3c-1.2,1.9-3.1,3-5.6,3c-2.9,0-4.7-1.5-4.7-4.3c0-3.6,3.2-5.4,10.6-5.5v-0.6
				c0-2.6-1.5-4.3-3.9-4.3c-2,0-3.6,1.2-3.8,3.1h-2.6c0.6-3.4,3.2-5.3,6.6-5.3C501,311.2,503.4,313.6,503.4,317.5z M500.9,320.3
				v-0.5c-5.6,0.1-8.1,1.3-8.1,3.6c0,1.6,1.1,2.5,3.1,2.5C498.9,325.9,500.9,323.7,500.9,320.3z"/>
			<path d="M522.6,304.6v23.1H520V325h-0.3c-1,1.8-2.8,3-5.2,3c-4.1,0-6.9-3.4-6.9-8.4c0-5,2.8-8.4,6.9-8.4c2.3,0,4.2,1.2,5.2,2.9
				h0.4v-9.6H522.6z M520,319.6c0-3.6-2-6-4.9-6c-2.9,0-4.9,2.4-4.9,6c0,3.6,2,6,4.9,6C518,325.7,520,323.2,520,319.6z"/>
			<path d="M540.8,311.6v16h-2.4v-2.7H538c-1,1.9-2.9,3.1-5.1,3.1c-3.3,0-5.6-2.3-5.6-5.9v-10.5h2.6v9.4c0,2.7,1.5,4.6,3.9,4.6
				c2.5,0,4.3-2.1,4.4-5.4v-8.5H540.8z"/>
			<path d="M547.3,313.9h-3v-2.3h5.5v16h-2.5V313.9z M545.9,306.1c0-1,0.9-1.9,1.9-1.9s1.9,0.9,1.9,1.9c0,1.1-0.9,1.9-1.9,1.9
				S545.9,307.1,545.9,306.1z"/>
			<path d="M569.4,320.4h-13c0.3,3.3,2.4,5.4,5.5,5.4c2.3,0,4-1.1,4.8-2.9h2.5c-0.8,3-3.7,5.1-7.4,5.1c-4.6,0-7.8-3.3-7.8-8.4
				c0-5,3.1-8.4,7.7-8.4c4.6,0,7.7,3.4,7.7,8.4V320.4z M556.5,318.7h10.5c-0.3-3.3-2.3-5.3-5.2-5.3
				C558.8,313.4,556.8,315.5,556.5,318.7z"/>
			<path d="M581.4,311.6v2.7h-1.9c-2.3,0-3.3,1.5-3.3,4.5v8.8h-2.6v-16h2.4v2.3h0.4c0.5-1.4,1.8-2.3,3.6-2.3H581.4z"/>
			<path d="M589.7,313.9v10.7c0,0.5,0.3,0.8,0.8,0.8h2.9v2.3h-3.5c-1.9,0-2.8-0.9-2.8-2.8v-11H584v-2.3h3.2v-4.1h2.5v4.1h3.7v2.3
				H589.7z"/>
			<path d="M611.6,320.4h-13c0.3,3.3,2.4,5.4,5.5,5.4c2.3,0,4-1.1,4.8-2.9h2.5c-0.8,3-3.7,5.1-7.4,5.1c-4.6,0-7.8-3.3-7.8-8.4
				c0-5,3.1-8.4,7.7-8.4c4.6,0,7.7,3.4,7.7,8.4V320.4z M598.6,318.7h10.5c-0.3-3.3-2.3-5.3-5.2-5.3
				C600.9,313.4,599,315.5,598.6,318.7z"/>
			<path d="M629.3,317.1v10.5h-2.6v-9.4c0-2.8-1.5-4.6-3.9-4.6c-2.7,0-4.4,2.4-4.4,6.1v7.8h-2.6v-16h2.4v2.7h0.4
				c1-1.9,2.9-3.1,5.1-3.1C627,311.2,629.3,313.6,629.3,317.1z"/>
			<path d="M646.7,325.3h1.1v2.3h-1.3c-1.8,0-2.1-0.2-3.2-1.9l-3.6-5.8l-3,3.1v4.5h-2.6v-23.1h2.6v14.8h0.4l7.6-7.7h3.1l-6.3,6.4
				l4.1,6.5C646.1,325.2,646.2,325.3,646.7,325.3z"/>
			<path d="M650.3,319.6c0-5,3.1-8.4,7.8-8.4c4.7,0,7.8,3.4,7.8,8.4c0,5.1-3.1,8.4-7.8,8.4C653.4,328,650.3,324.7,650.3,319.6z
				 M663.3,319.6c0-3.6-2.1-6-5.2-6c-3.1,0-5.2,2.4-5.2,6c0,3.6,2.1,6,5.2,6C661.2,325.7,663.3,323.2,663.3,319.6z"/>
			<path d="M670.1,324.9v-20.3h2.6v20c0,0.5,0.3,0.8,0.8,0.8h2v2.3h-2.6C671,327.6,670.1,326.8,670.1,324.9z"/>
			<path d="M679,324.9v-20.3h2.6v20c0,0.5,0.3,0.8,0.8,0.8h2v2.3h-2.6C679.8,327.6,679,326.8,679,324.9z"/>
			<path d="M702.2,320.4h-13c0.3,3.3,2.4,5.4,5.5,5.4c2.3,0,4-1.1,4.8-2.9h2.5c-0.8,3-3.7,5.1-7.4,5.1c-4.6,0-7.8-3.3-7.8-8.4
				c0-5,3.1-8.4,7.7-8.4c4.6,0,7.7,3.4,7.7,8.4V320.4z M689.3,318.7h10.5c-0.3-3.3-2.3-5.3-5.2-5.3
				C691.6,313.4,689.6,315.5,689.3,318.7z"/>
			<path d="M720.8,311.6v14.6c0,4.9-2.8,7.8-7.3,7.8c-3.8,0-6.5-2-6.8-5.4h2.4c0.2,2.1,1.9,3.4,4.2,3.4c3.1,0,4.9-2.3,4.9-5.9v-2
				h-0.3c-0.9,1.7-2.8,2.7-5.2,2.7c-4.1,0-6.9-3.1-6.9-7.8s2.8-7.8,6.9-7.8c2.4,0,4.4,1.1,5.3,2.9h0.3v-2.4H720.8z M718.2,319
				c0-3.3-2-5.6-4.9-5.6c-2.9,0-4.9,2.3-4.9,5.6c0,3.3,2,5.6,4.9,5.6C716.3,324.6,718.2,322.4,718.2,319z"/>
			<path d="M735.3,325.1h10.6v2.6h-14.5v-2.5l9.5-9.4c1.6-1.6,2.3-3,2.3-4.7c0-2.9-1.9-4.4-4.4-4.4c-2.7,0-4.6,1.7-4.8,4.3h-2.7
				c0.3-4.1,3.4-6.8,7.7-6.8c4,0,7,2.3,7,6.6c0,2.4-0.9,4.4-3.5,6.9l-7.1,7V325.1z"/>
			<path d="M764.5,320.2c0,4.7-3.2,7.8-8,7.8c-4.8,0-7.9-3.1-7.9-7.8c0-2.4,0.9-4.5,3-7.3l6.2-8.4h3.2l-6.3,8.2l0.2,0.3
				c0.8-0.3,1.6-0.4,2.4-0.4C761.5,312.7,764.5,315.7,764.5,320.2z M761.9,320.3c0-3.2-2.1-5.3-5.3-5.3c-3.2,0-5.3,2.1-5.3,5.3
				c0,3.2,2.1,5.4,5.3,5.4C759.8,325.7,761.9,323.5,761.9,320.3z"/>
			<path d="M783.7,321.2c0,4.1-3.2,6.8-8.1,6.8s-8.1-2.7-8.1-6.8c0-2.6,1.4-4.7,3.8-5.8v-0.3c-1.9-1-3-2.7-3-4.8
				c0-3.7,2.9-6.2,7.3-6.2c4.3,0,7.3,2.5,7.3,6.2c0,2.1-1.1,3.8-3,4.8v0.3C782.3,316.5,783.7,318.6,783.7,321.2z M781,320.9
				c0-2.7-2.2-4.5-5.4-4.5c-3.3,0-5.4,1.8-5.4,4.5c0,2.8,2.2,4.7,5.4,4.7C778.9,325.7,781,323.8,781,320.9z M771,310.6
				c0,2.2,1.9,3.7,4.7,3.7c2.8,0,4.6-1.5,4.6-3.7c0-2.5-1.8-4.1-4.6-4.1C772.9,306.5,771,308.2,771,310.6z"/>
			<path d="M802.8,320.2c0,4.7-3.2,7.8-8,7.8c-4.8,0-7.9-3.1-7.9-7.8c0-2.4,0.9-4.5,3-7.3l6.2-8.4h3.2l-6.3,8.2l0.2,0.3
				c0.8-0.3,1.6-0.4,2.4-0.4C799.8,312.7,802.8,315.7,802.8,320.2z M800.1,320.3c0-3.2-2.1-5.3-5.3-5.3c-3.2,0-5.3,2.1-5.3,5.3
				c0,3.2,2.1,5.4,5.3,5.4C798,325.7,800.1,323.5,800.1,320.3z"/>
			<path d="M805.9,315.4c0-1.2,0.9-2.1,2.1-2.1c1.2,0,2.1,0.9,2.1,2.1c0,1.2-0.9,2.1-2.1,2.1C806.9,317.5,805.9,316.5,805.9,315.4z
				 M805.9,326c0-1.2,0.9-2.1,2.1-2.1c1.2,0,2.1,0.9,2.1,2.1c0,1.2-0.9,2.1-2.1,2.1C806.9,328,805.9,327.1,805.9,326z"/>
			<path d="M379.8,350.7c0-7.2,4.5-12,11.2-12c5.5,0,9.7,3.5,10.5,8.7h-3c-0.8-3.6-3.9-6-7.6-6c-4.9,0-8.2,3.7-8.2,9.3
				c0,5.6,3.3,9.4,8.2,9.4c3.7,0,6.8-2.4,7.6-6h3c-0.8,5.2-5,8.6-10.5,8.6C384.3,362.6,379.8,357.9,379.8,350.7z"/>
			<path d="M404.9,354.2c0-5,3.1-8.4,7.8-8.4c4.7,0,7.8,3.4,7.8,8.4c0,5.1-3.1,8.4-7.8,8.4C408.1,362.6,404.9,359.3,404.9,354.2z
				 M417.9,354.2c0-3.6-2.1-6-5.2-6c-3.1,0-5.2,2.4-5.2,6c0,3.6,2.1,6,5.2,6C415.9,360.2,417.9,357.8,417.9,354.2z"/>
			<path d="M438.3,351.7v10.5h-2.6v-9.4c0-2.8-1.5-4.6-3.9-4.6c-2.7,0-4.4,2.4-4.4,6.1v7.8h-2.6v-16h2.4v2.7h0.4
				c1-1.9,2.9-3.1,5.1-3.1C436,345.8,438.3,348.2,438.3,351.7z"/>
			<path d="M446.9,348.5v10.7c0,0.5,0.3,0.8,0.8,0.8h2.9v2.3h-3.5c-1.9,0-2.8-0.9-2.8-2.8v-11h-3.2v-2.3h3.2v-4.1h2.5v4.1h3.7v2.3
				H446.9z"/>
			<path d="M462.1,346.2v2.7h-1.9c-2.3,0-3.3,1.5-3.3,4.5v8.8h-2.6v-16h2.4v2.3h0.4c0.5-1.4,1.8-2.3,3.6-2.3H462.1z"/>
			<path d="M478,352.1v10.1h-2.5v-2.6h-0.3c-1.2,1.9-3.1,3-5.6,3c-2.9,0-4.7-1.5-4.7-4.3c0-3.6,3.2-5.4,10.6-5.5v-0.6
				c0-2.6-1.5-4.3-3.9-4.3c-2,0-3.6,1.2-3.8,3.1h-2.6c0.6-3.4,3.2-5.3,6.6-5.3C475.6,345.8,478,348.2,478,352.1z M475.4,354.9v-0.5
				c-5.6,0.1-8.1,1.3-8.1,3.6c0,1.6,1.1,2.5,3.1,2.5C473.5,360.5,475.4,358.3,475.4,354.9z"/>
			<path d="M497.1,339.2v23.1h-2.6v-2.6h-0.3c-1,1.8-2.8,3-5.2,3c-4.1,0-6.9-3.4-6.9-8.4c0-5,2.8-8.4,6.9-8.4c2.3,0,4.2,1.2,5.2,2.9
				h0.4v-9.6H497.1z M494.5,354.2c0-3.6-2-6-4.9-6c-2.9,0-4.9,2.4-4.9,6c0,3.6,2,6,4.9,6C492.6,360.2,494.5,357.8,494.5,354.2z"/>
			<path d="M503.6,348.5h-3v-2.3h5.5v16h-2.5V348.5z M502.2,340.7c0-1,0.9-1.9,1.9-1.9s1.9,0.9,1.9,1.9c0,1.1-0.9,1.9-1.9,1.9
				S502.2,341.7,502.2,340.7z"/>
			<path d="M510.4,354.2c0-5,3.1-8.4,7.8-8.4c3.8,0,6.8,2.3,7.4,5.7h-2.7c-0.4-2-2.3-3.3-4.7-3.3c-3.2,0-5.2,2.4-5.2,6
				c0,3.6,2,6,5.2,6c2.3,0,4.3-1.3,4.7-3.3h2.7c-0.6,3.4-3.6,5.7-7.4,5.7C513.5,362.6,510.4,359.3,510.4,354.2z"/>
			<path d="M533.8,348.5v10.7c0,0.5,0.3,0.8,0.8,0.8h2.9v2.3H534c-1.9,0-2.8-0.9-2.8-2.8v-11H528v-2.3h3.2v-4.1h2.5v4.1h3.7v2.3
				H533.8z"/>
			<path d="M543.6,348.5h-3v-2.3h5.5v16h-2.5V348.5z M542.2,340.7c0-1,0.9-1.9,1.9-1.9s1.9,0.9,1.9,1.9c0,1.1-0.9,1.9-1.9,1.9
				S542.2,341.7,542.2,340.7z"/>
			<path d="M550.3,354.2c0-5,3.1-8.4,7.8-8.4c4.7,0,7.8,3.4,7.8,8.4c0,5.1-3.1,8.4-7.8,8.4C553.5,362.6,550.3,359.3,550.3,354.2z
				 M563.3,354.2c0-3.6-2.1-6-5.2-6c-3.1,0-5.2,2.4-5.2,6c0,3.6,2.1,6,5.2,6C561.3,360.2,563.3,357.8,563.3,354.2z"/>
			<path d="M583.7,351.7v10.5h-2.6v-9.4c0-2.8-1.5-4.6-3.9-4.6c-2.7,0-4.4,2.4-4.4,6.1v7.8h-2.6v-16h2.4v2.7h0.4
				c1-1.9,2.9-3.1,5.1-3.1C581.4,345.8,583.7,348.2,583.7,351.7z"/>
			<path d="M593.8,354.8h2.9c0.5,3.3,3,5.5,6.6,5.5c3.2,0,5.6-1.7,5.6-4.3c0-2.2-1.6-3.6-4.4-3.9l-3.8-0.5c-3.9-0.5-6.2-2.6-6.2-6
				c0-4,3.3-6.7,8-6.7c4.7,0,8,2.7,8.7,6.9h-2.9c-0.4-2.7-2.5-4.5-5.7-4.5c-3,0-5.2,1.6-5.2,4.1c0,1.9,1.3,3.3,3.9,3.6l3.7,0.5
				c4.3,0.6,6.8,2.8,6.8,6.4c0,4.2-3.5,6.9-8.4,6.9C598.2,362.6,594.5,359.5,593.8,354.8z"/>
			<path d="M619.8,348.5v10.7c0,0.5,0.3,0.8,0.8,0.8h2.9v2.3H620c-1.9,0-2.8-0.9-2.8-2.8v-11H614v-2.3h3.2v-4.1h2.5v4.1h3.7v2.3
				H619.8z"/>
			<path d="M640.6,346.2v16h-2.4v-2.7h-0.4c-1,1.9-2.9,3.1-5.1,3.1c-3.3,0-5.6-2.3-5.6-5.9v-10.5h2.6v9.4c0,2.7,1.5,4.6,3.9,4.6
				c2.5,0,4.3-2.1,4.4-5.4v-8.5H640.6z"/>
			<path d="M659.9,339.2v23.1h-2.6v-2.6H657c-1,1.8-2.8,3-5.2,3c-4.1,0-6.9-3.4-6.9-8.4c0-5,2.8-8.4,6.9-8.4c2.3,0,4.2,1.2,5.2,2.9
				h0.4v-9.6H659.9z M657.3,354.2c0-3.6-2-6-4.9-6c-2.9,0-4.9,2.4-4.9,6c0,3.6,2,6,4.9,6C655.3,360.2,657.3,357.8,657.3,354.2z"/>
			<path d="M666.4,348.5h-3v-2.3h5.5v16h-2.5V348.5z M665,340.7c0-1,0.9-1.9,1.9-1.9s1.9,0.9,1.9,1.9c0,1.1-0.9,1.9-1.9,1.9
				S665,341.7,665,340.7z"/>
			<path d="M688.6,355h-13c0.3,3.3,2.4,5.4,5.5,5.4c2.3,0,4-1.1,4.8-2.9h2.5c-0.8,3-3.7,5.1-7.4,5.1c-4.6,0-7.8-3.3-7.8-8.4
				c0-5,3.1-8.4,7.7-8.4c4.6,0,7.7,3.4,7.7,8.4V355z M675.6,353.3h10.5c-0.3-3.3-2.3-5.3-5.2-5.3C677.9,348,675.9,350,675.6,353.3z"
				/>
			<path d="M691.8,357.2h2.5c0.4,2,2.1,3.3,4.5,3.3c2.3,0,3.7-1.1,3.7-2.7c0-1.3-0.9-2.1-2.8-2.3L697,355c-3.3-0.4-4.8-1.9-4.8-4.3
				c0-3,2.3-4.9,5.8-4.9c3.5,0,6.1,2,6.5,4.9h-2.5c-0.3-1.7-1.8-2.8-4-2.8c-2.1,0-3.4,1-3.4,2.6c0,1.3,1,2.1,2.8,2.3l2.7,0.4
				c3.3,0.4,4.8,1.9,4.8,4.3c0,3.1-2.5,5.1-6.2,5.1C695.1,362.6,692.2,360.5,691.8,357.2z"/>
			<path d="M715.1,350.6h16.8v2.3h-16.8V350.6z"/>
			<path d="M760.5,359.7v2.6h-1.7c-1.6,0-1.9-0.1-3-1.9l-5.9-9.1l-4.2,4.9v6.1H743v-23.1h2.7v12.6h0.4l10.6-12.6h3.4l-8.3,9.9
				l6.4,9.9c0.4,0.7,0.5,0.7,1,0.7H760.5z"/>
			<path d="M762.9,354.2c0-5,3.1-8.4,7.8-8.4c4.7,0,7.8,3.4,7.8,8.4c0,5.1-3.1,8.4-7.8,8.4C766.1,362.6,762.9,359.3,762.9,354.2z
				 M775.9,354.2c0-3.6-2.1-6-5.2-6c-3.1,0-5.2,2.4-5.2,6c0,3.6,2.1,6,5.2,6C773.8,360.2,775.9,357.8,775.9,354.2z"/>
			<path d="M796.3,351.7v10.5h-2.6v-9.4c0-2.8-1.5-4.6-3.9-4.6c-2.7,0-4.4,2.4-4.4,6.1v7.8h-2.6v-16h2.4v2.7h0.4
				c1-1.9,2.9-3.1,5.1-3.1C794,345.8,796.3,348.2,796.3,351.7z"/>
			<path d="M800.1,357.2h2.5c0.4,2,2.1,3.3,4.5,3.3c2.3,0,3.7-1.1,3.7-2.7c0-1.3-0.9-2.1-2.8-2.3l-2.7-0.4c-3.3-0.4-4.8-1.9-4.8-4.3
				c0-3,2.3-4.9,5.8-4.9c3.5,0,6.1,2,6.5,4.9h-2.5c-0.3-1.7-1.8-2.8-4-2.8c-2.1,0-3.4,1-3.4,2.6c0,1.3,1,2.1,2.8,2.3l2.7,0.4
				c3.3,0.4,4.8,1.9,4.8,4.3c0,3.1-2.5,5.1-6.2,5.1C803.4,362.6,800.5,360.5,800.1,357.2z"/>
			<path d="M821.4,348.5v10.7c0,0.5,0.3,0.8,0.8,0.8h2.9v2.3h-3.5c-1.9,0-2.8-0.9-2.8-2.8v-11h-3.2v-2.3h3.2v-4.1h2.5v4.1h3.7v2.3
				H821.4z"/>
			<path d="M843.3,355h-13c0.3,3.3,2.4,5.4,5.5,5.4c2.3,0,4-1.1,4.8-2.9h2.5c-0.8,3-3.7,5.1-7.4,5.1c-4.6,0-7.8-3.3-7.8-8.4
				c0-5,3.1-8.4,7.7-8.4c4.6,0,7.7,3.4,7.7,8.4V355z M830.3,353.3h10.5c-0.3-3.3-2.3-5.3-5.2-5.3C832.6,348,830.6,350,830.3,353.3z"
				/>
			<path d="M847.4,359.5v-20.3h2.6v20c0,0.5,0.3,0.8,0.8,0.8h2v2.3h-2.6C848.3,362.2,847.4,361.3,847.4,359.5z"/>
			<path d="M856.3,359.5v-20.3h2.6v20c0,0.5,0.3,0.8,0.8,0.8h2v2.3h-2.6C857.2,362.2,856.3,361.3,856.3,359.5z"/>
			<path d="M878,352.1v10.1h-2.5v-2.6h-0.3c-1.2,1.9-3.1,3-5.6,3c-2.9,0-4.7-1.5-4.7-4.3c0-3.6,3.2-5.4,10.6-5.5v-0.6
				c0-2.6-1.5-4.3-3.9-4.3c-2,0-3.6,1.2-3.8,3.1h-2.6c0.6-3.4,3.2-5.3,6.6-5.3C875.6,345.8,878,348.2,878,352.1z M875.4,354.9v-0.5
				c-5.6,0.1-8.1,1.3-8.1,3.6c0,1.6,1.1,2.5,3.1,2.5C873.5,360.5,875.4,358.3,875.4,354.9z"/>
			<path d="M886.5,348.5v10.7c0,0.5,0.3,0.8,0.8,0.8h2.9v2.3h-3.5c-1.9,0-2.8-0.9-2.8-2.8v-11h-3.2v-2.3h3.2v-4.1h2.5v4.1h3.7v2.3
				H886.5z"/>
			<path d="M896.3,348.5h-3v-2.3h5.5v16h-2.5V348.5z M894.9,340.7c0-1,0.9-1.9,1.9-1.9s1.9,0.9,1.9,1.9c0,1.1-0.9,1.9-1.9,1.9
				S894.9,341.7,894.9,340.7z"/>
			<path d="M903.1,354.2c0-5,3.1-8.4,7.8-8.4c4.7,0,7.8,3.4,7.8,8.4c0,5.1-3.1,8.4-7.8,8.4C906.2,362.6,903.1,359.3,903.1,354.2z
				 M916.1,354.2c0-3.6-2.1-6-5.2-6c-3.1,0-5.2,2.4-5.2,6c0,3.6,2.1,6,5.2,6C914,360.2,916.1,357.8,916.1,354.2z"/>
			<path d="M936.4,351.7v10.5h-2.6v-9.4c0-2.8-1.5-4.6-3.9-4.6c-2.7,0-4.4,2.4-4.4,6.1v7.8H923v-16h2.4v2.7h0.4
				c1-1.9,2.9-3.1,5.1-3.1C934.1,345.8,936.4,348.2,936.4,351.7z"/>
			<path d="M944.6,361.5L944.6,361.5l-2.5,4.9l-1.5-0.7l1.4-3.2c-0.8-0.3-1.3-1-1.3-1.9c0-1.2,0.9-2.1,2.1-2.1
				c1.2,0,2.1,0.9,2.1,2.1C944.9,360.9,944.8,361.2,944.6,361.5z"/>
			<path d="M974,339.2v23.1h-2.7V352h-12.5v10.3h-2.7v-23.1h2.7v10.2h12.5v-10.2H974z"/>
			<path d="M993.8,355h-13c0.3,3.3,2.4,5.4,5.5,5.4c2.3,0,4-1.1,4.8-2.9h2.5c-0.8,3-3.7,5.1-7.4,5.1c-4.6,0-7.8-3.3-7.8-8.4
				c0-5,3.1-8.4,7.7-8.4c4.6,0,7.7,3.4,7.7,8.4V355z M980.8,353.3h10.5c-0.3-3.3-2.3-5.3-5.2-5.3C983.1,348,981.1,350,980.8,353.3z"
				/>
			<path d="M1011.3,346.2v16h-2.4v-2.7h-0.4c-1,1.9-2.9,3.1-5.1,3.1c-3.3,0-5.6-2.3-5.6-5.9v-10.5h2.6v9.4c0,2.7,1.5,4.6,3.9,4.6
				c2.5,0,4.3-2.1,4.4-5.4v-8.5H1011.3z"/>
			<path d="M1024,346.2v2.7h-1.9c-2.3,0-3.3,1.5-3.3,4.5v8.8h-2.6v-16h2.4v2.3h0.4c0.5-1.4,1.8-2.3,3.6-2.3H1024z"/>
			<path d="M1029.8,348.5h-3v-2.3h5.5v16h-2.5V348.5z M1028.4,340.7c0-1,0.9-1.9,1.9-1.9c1.1,0,1.9,0.9,1.9,1.9
				c0,1.1-0.9,1.9-1.9,1.9C1029.3,342.6,1028.4,341.7,1028.4,340.7z"/>
			<path d="M1036.3,357.2h2.5c0.4,2,2.1,3.3,4.5,3.3c2.3,0,3.7-1.1,3.7-2.7c0-1.3-0.9-2.1-2.8-2.3l-2.7-0.4
				c-3.3-0.4-4.8-1.9-4.8-4.3c0-3,2.3-4.9,5.8-4.9c3.5,0,6.1,2,6.5,4.9h-2.5c-0.3-1.7-1.8-2.8-4-2.8c-2.1,0-3.4,1-3.4,2.6
				c0,1.3,1,2.1,2.8,2.3l2.7,0.4c3.3,0.4,4.8,1.9,4.8,4.3c0,3.1-2.5,5.1-6.2,5.1C1039.5,362.6,1036.7,360.5,1036.3,357.2z"/>
			<path d="M1057.6,348.5v10.7c0,0.5,0.3,0.8,0.8,0.8h2.9v2.3h-3.5c-1.9,0-2.8-0.9-2.8-2.8v-11h-3.2v-2.3h3.2v-4.1h2.5v4.1h3.7v2.3
				H1057.6z"/>
			<path d="M1067.4,348.5h-3v-2.3h5.5v16h-2.5V348.5z M1066,340.7c0-1,0.9-1.9,1.9-1.9c1.1,0,1.9,0.9,1.9,1.9c0,1.1-0.9,1.9-1.9,1.9
				C1066.9,342.6,1066,341.7,1066,340.7z"/>
			<path d="M1087.4,359.9h1.1v2.3h-1.3c-1.8,0-2.1-0.2-3.2-1.9l-3.6-5.8l-3,3.1v4.5h-2.6v-23.1h2.6V354h0.4l7.6-7.7h3.1l-6.3,6.4
				l4.1,6.5C1086.8,359.8,1086.9,359.9,1087.4,359.9z"/>
			<path d="M1106.5,355h-13c0.3,3.3,2.4,5.4,5.5,5.4c2.3,0,4-1.1,4.8-2.9h2.5c-0.8,3-3.7,5.1-7.4,5.1c-4.6,0-7.8-3.3-7.8-8.4
				c0-5,3.1-8.4,7.7-8.4c4.6,0,7.7,3.4,7.7,8.4V355z M1093.5,353.3h10.5c-0.3-3.3-2.3-5.3-5.2-5.3
				C1095.8,348,1093.8,350,1093.5,353.3z"/>
			<path d="M1124.2,351.7v10.5h-2.6v-9.4c0-2.8-1.5-4.6-3.9-4.6c-2.7,0-4.4,2.4-4.4,6.1v7.8h-2.6v-16h2.4v2.7h0.4
				c1-1.9,2.9-3.1,5.1-3.1C1121.8,345.8,1124.2,348.2,1124.2,351.7z"/>
			<path d="M393.8,380.8v16h-2.4v-2.7H391c-1,1.9-2.9,3.1-5.1,3.1c-3.3,0-5.6-2.3-5.6-5.9v-10.5h2.6v9.4c0,2.7,1.5,4.6,3.9,4.6
				c2.5,0,4.3-2.1,4.4-5.4v-8.5H393.8z"/>
			<path d="M412.2,386.3v10.5h-2.6v-9.4c0-2.8-1.5-4.6-3.9-4.6c-2.7,0-4.4,2.4-4.4,6.1v7.8h-2.6v-16h2.4v2.7h0.4
				c1-1.9,2.9-3.1,5.1-3.1C409.9,380.4,412.2,382.8,412.2,386.3z"/>
			<path d="M431.4,373.7v23.1h-2.6v-2.6h-0.3c-1,1.8-2.8,3-5.2,3c-4.1,0-6.9-3.4-6.9-8.4c0-5,2.8-8.4,6.9-8.4c2.3,0,4.2,1.2,5.2,2.9
				h0.4v-9.6H431.4z M428.8,388.8c0-3.6-2-6-4.9-6c-2.9,0-4.9,2.4-4.9,6c0,3.6,2,6,4.9,6C426.8,394.8,428.8,392.4,428.8,388.8z"/>
			<path d="M460.5,394.2v2.6h-1.7c-1.6,0-1.9-0.1-3-1.9l-5.9-9.1l-4.2,4.9v6.1H443v-23.1h2.7v12.6h0.4l10.6-12.6h3.4l-8.3,9.9
				l6.4,9.9c0.4,0.7,0.5,0.7,1,0.7H460.5z"/>
			<path d="M463,388.8c0-5,3.1-8.4,7.8-8.4c4.7,0,7.8,3.4,7.8,8.4c0,5.1-3.1,8.4-7.8,8.4C466.1,397.2,463,393.9,463,388.8z
				 M475.9,388.8c0-3.6-2.1-6-5.2-6c-3.1,0-5.2,2.4-5.2,6c0,3.6,2.1,6,5.2,6C473.9,394.8,475.9,392.4,475.9,388.8z"/>
			<path d="M496.3,386.3v10.5h-2.6v-9.4c0-2.8-1.5-4.6-3.9-4.6c-2.7,0-4.4,2.4-4.4,6.1v7.8h-2.6v-16h2.4v2.7h0.4
				c1-1.9,2.9-3.1,5.1-3.1C494,380.4,496.3,382.8,496.3,386.3z"/>
			<path d="M503.7,394.1v0.4h9v2.3H500v-1.7l9-11.6v-0.4h-8.8v-2.3h12.5v1.7L503.7,394.1z"/>
			<path d="M530.9,389.6h-13c0.3,3.3,2.4,5.4,5.5,5.4c2.3,0,4-1.1,4.8-2.9h2.5c-0.8,3-3.7,5.1-7.4,5.1c-4.6,0-7.8-3.3-7.8-8.4
				c0-5,3.1-8.4,7.7-8.4c4.6,0,7.7,3.4,7.7,8.4V389.6z M518,387.9h10.5c-0.3-3.3-2.3-5.3-5.2-5.3C520.3,382.6,518.3,384.6,518,387.9
				z"/>
			<path d="M550.2,388.8c0,5-2.8,8.4-6.9,8.4c-2.4,0-4.2-1.2-5.2-2.9h-0.4v8.5h-2.6v-22h2.4v2.7h0.4c0.9-1.9,2.8-3.2,5.3-3.2
				C547.3,380.4,550.2,383.8,550.2,388.8z M547.6,388.8c0-3.6-2-6-4.9-6c-2.9,0-4.9,2.4-4.9,6c0,3.6,1.9,6,4.9,6
				C545.6,394.8,547.6,392.4,547.6,388.8z"/>
			<path d="M558.2,383.1v10.7c0,0.5,0.3,0.8,0.8,0.8h2.9v2.3h-3.5c-1.9,0-2.8-0.9-2.8-2.8v-11h-3.2v-2.3h3.2v-4.1h2.5v4.1h3.7v2.3
				H558.2z"/>
			<path d="M580,389.6h-13c0.3,3.3,2.4,5.4,5.5,5.4c2.3,0,4-1.1,4.8-2.9h2.5c-0.8,3-3.7,5.1-7.4,5.1c-4.6,0-7.8-3.3-7.8-8.4
				c0-5,3.1-8.4,7.7-8.4c4.6,0,7.7,3.4,7.7,8.4V389.6z M567.1,387.9h10.5c-0.3-3.3-2.3-5.3-5.2-5.3
				C569.4,382.6,567.4,384.6,567.1,387.9z"/>
			<path d="M605.3,373.7v23.1h-2.6v-2.6h-0.3c-1,1.8-2.8,3-5.2,3c-4.1,0-6.9-3.4-6.9-8.4c0-5,2.8-8.4,6.9-8.4c2.3,0,4.2,1.2,5.2,2.9
				h0.4v-9.6H605.3z M602.7,388.8c0-3.6-2-6-4.9-6c-2.9,0-4.9,2.4-4.9,6c0,3.6,2,6,4.9,6C600.7,394.8,602.7,392.4,602.7,388.8z"/>
			<path d="M624.9,389.6h-13c0.3,3.3,2.4,5.4,5.5,5.4c2.3,0,4-1.1,4.8-2.9h2.5c-0.8,3-3.7,5.1-7.4,5.1c-4.6,0-7.8-3.3-7.8-8.4
				c0-5,3.1-8.4,7.7-8.4c4.6,0,7.7,3.4,7.7,8.4V389.6z M612,387.9h10.5c-0.3-3.3-2.3-5.3-5.2-5.3C614.2,382.6,612.3,384.6,612,387.9
				z"/>
			<path d="M628.2,391.8h2.5c0.4,2,2.1,3.3,4.5,3.3c2.3,0,3.7-1.1,3.7-2.7c0-1.3-0.9-2.1-2.8-2.3l-2.7-0.4c-3.3-0.4-4.8-1.9-4.8-4.3
				c0-3,2.3-4.9,5.8-4.9c3.5,0,6.1,2,6.5,4.9h-2.5c-0.3-1.7-1.8-2.8-4-2.8c-2.1,0-3.4,1-3.4,2.6c0,1.3,1,2.1,2.8,2.3l2.7,0.4
				c3.3,0.4,4.8,1.9,4.8,4.3c0,3.1-2.5,5.1-6.2,5.1C631.4,397.2,628.6,395.1,628.2,391.8z"/>
			<path d="M680.6,373.7l-6.2,23.1h-3.7l-5-19.4h-0.5l-5,19.4h-3.8l-6.1-23.1h3l5,19.4h0.5l4.8-19.4h3.8l4.8,19.4h0.5l5-19.4H680.6z
				"/>
			<path d="M685.3,383.1h-3v-2.3h5.5v16h-2.5V383.1z M683.9,375.2c0-1,0.9-1.9,1.9-1.9s1.9,0.9,1.9,1.9c0,1.1-0.9,1.9-1.9,1.9
				S683.9,376.3,683.9,375.2z"/>
			<path d="M707.1,373.7v23.1h-2.6v-2.6h-0.3c-1,1.8-2.8,3-5.2,3c-4.1,0-6.9-3.4-6.9-8.4c0-5,2.8-8.4,6.9-8.4c2.3,0,4.2,1.2,5.2,2.9
				h0.4v-9.6H707.1z M704.5,388.8c0-3.6-2-6-4.9-6c-2.9,0-4.9,2.4-4.9,6c0,3.6,2,6,4.9,6C702.5,394.8,704.5,392.4,704.5,388.8z"/>
			<path d="M726.8,389.6h-13c0.3,3.3,2.4,5.4,5.5,5.4c2.3,0,4-1.1,4.8-2.9h2.5c-0.8,3-3.7,5.1-7.4,5.1c-4.6,0-7.8-3.3-7.8-8.4
				c0-5,3.1-8.4,7.7-8.4c4.6,0,7.7,3.4,7.7,8.4V389.6z M713.8,387.9h10.5c-0.3-3.3-2.3-5.3-5.2-5.3
				C716.1,382.6,714.1,384.6,713.8,387.9z"/>
			<path d="M738.8,380.8v2.7h-1.9c-2.3,0-3.3,1.5-3.3,4.5v8.8H731v-16h2.4v2.3h0.4c0.5-1.4,1.8-2.3,3.6-2.3H738.8z"/>
			<path d="M741.4,391.8h2.5c0.4,2,2.1,3.3,4.5,3.3c2.3,0,3.7-1.1,3.7-2.7c0-1.3-0.9-2.1-2.8-2.3l-2.7-0.4c-3.3-0.4-4.8-1.9-4.8-4.3
				c0-3,2.3-4.9,5.8-4.9c3.5,0,6.1,2,6.5,4.9h-2.5c-0.3-1.7-1.8-2.8-4-2.8c-2.1,0-3.4,1-3.4,2.6c0,1.3,1,2.1,2.8,2.3l2.7,0.4
				c3.3,0.4,4.8,1.9,4.8,4.3c0,3.1-2.5,5.1-6.2,5.1C744.7,397.2,741.9,395.1,741.4,391.8z"/>
			<path d="M773.8,388.8c0,5-2.8,8.4-6.9,8.4c-2.4,0-4.2-1.2-5.2-2.9h-0.4v8.5h-2.6v-22h2.4v2.7h0.4c0.9-1.9,2.8-3.2,5.3-3.2
				C771,380.4,773.8,383.8,773.8,388.8z M771.2,388.8c0-3.6-2-6-4.9-6c-2.9,0-4.9,2.4-4.9,6c0,3.6,1.9,6,4.9,6
				C769.2,394.8,771.2,392.4,771.2,388.8z"/>
			<path d="M785.9,380.8v2.7H784c-2.3,0-3.3,1.5-3.3,4.5v8.8h-2.6v-16h2.4v2.3h0.4c0.5-1.4,1.8-2.3,3.6-2.3H785.9z"/>
			<path d="M802.7,380.8v16h-2.4v-2.7h-0.4c-1,1.9-2.9,3.1-5.1,3.1c-3.3,0-5.6-2.3-5.6-5.9v-10.5h2.6v9.4c0,2.7,1.5,4.6,3.9,4.6
				c2.5,0,4.3-2.1,4.4-5.4v-8.5H802.7z M790.6,375.8c0-1,0.8-1.8,1.8-1.8c1,0,1.8,0.8,1.8,1.8c0,1-0.8,1.8-1.8,1.8
				C791.4,377.6,790.6,376.8,790.6,375.8z M797.6,375.8c0-1,0.8-1.8,1.9-1.8c1,0,1.8,0.8,1.8,1.8c0,1-0.8,1.8-1.8,1.8
				C798.4,377.6,797.6,376.8,797.6,375.8z"/>
			<path d="M807,388.8c0-5,3.1-8.4,7.8-8.4c3.8,0,6.8,2.3,7.4,5.7h-2.7c-0.4-2-2.3-3.3-4.7-3.3c-3.2,0-5.2,2.4-5.2,6
				c0,3.6,2,6,5.2,6c2.3,0,4.3-1.3,4.7-3.3h2.7c-0.6,3.4-3.6,5.7-7.4,5.7C810.1,397.2,807,393.9,807,388.8z"/>
			<path d="M839.8,386.3v10.5h-2.6v-9.4c0-2.8-1.5-4.6-3.8-4.6c-2.7,0-4.5,2.4-4.5,6.1v7.8h-2.6v-23.1h2.6v9.6h0.3c1-1.8,2.9-3,5-3
				C837.6,380.4,839.8,382.8,839.8,386.3z"/>
			<path d="M844.5,394.1v-20.3h2.6v20c0,0.5,0.3,0.8,0.8,0.8h2v2.3h-2.6C845.4,396.8,844.5,395.9,844.5,394.1z"/>
			<path d="M854.4,383.1h-3v-2.3h5.5v16h-2.5V383.1z M853,375.2c0-1,0.9-1.9,1.9-1.9s1.9,0.9,1.9,1.9c0,1.1-0.9,1.9-1.9,1.9
				S853,376.3,853,375.2z"/>
			<path d="M861.2,388.8c0-5,3.1-8.4,7.8-8.4c3.8,0,6.8,2.3,7.4,5.7h-2.7c-0.4-2-2.3-3.3-4.7-3.3c-3.2,0-5.2,2.4-5.2,6
				c0,3.6,2,6,5.2,6c2.3,0,4.3-1.3,4.7-3.3h2.7c-0.6,3.4-3.6,5.7-7.4,5.7C864.3,397.2,861.2,393.9,861.2,388.8z"/>
			<path d="M894,386.3v10.5h-2.6v-9.4c0-2.8-1.5-4.6-3.8-4.6c-2.7,0-4.5,2.4-4.5,6.1v7.8h-2.6v-23.1h2.6v9.6h0.3c1-1.8,2.9-3,5-3
				C891.7,380.4,894,382.8,894,386.3z"/>
			<path d="M913.5,389.6h-13c0.3,3.3,2.4,5.4,5.5,5.4c2.3,0,4-1.1,4.8-2.9h2.5c-0.8,3-3.7,5.1-7.4,5.1c-4.6,0-7.8-3.3-7.8-8.4
				c0-5,3.1-8.4,7.7-8.4c4.6,0,7.7,3.4,7.7,8.4V389.6z M900.5,387.9H911c-0.3-3.3-2.3-5.3-5.2-5.3
				C902.8,382.6,900.9,384.6,900.5,387.9z"/>
			<path d="M931.2,386.3v10.5h-2.6v-9.4c0-2.8-1.5-4.6-3.9-4.6c-2.7,0-4.4,2.4-4.4,6.1v7.8h-2.6v-16h2.4v2.7h0.4
				c1-1.9,2.9-3.1,5.1-3.1C928.9,380.4,931.2,382.8,931.2,386.3z"/>
		</g>
	</g>
	<g>
		<g>
			<g>
				<path class="st0" d="M907.5,669.4h-40.2c-29.1,0-48.4-21.6-52.6-46c-4.6-27,14-50.3,42.4-50.2h33.5L907.5,669.4z M860.3,594.2
					c-16.5,0-24.6,12.5-22,27.9c2.2,13.2,14,26.1,28.1,26.1h14.5l-9.4-54H860.3z"/>
				<path class="st0" d="M807.8,669.4h-23.1l-16.9-96.2h22.9L807.8,669.4z"/>
				<path class="st0" d="M713,670.7c-21.1-0.1-34.5-9.8-44-23.7l20.4-12.8c5.4,8.7,13,13.8,22.1,13.8c16.7,0,26.4-14,23.6-29.4
					c-2.5-14.2-13.8-24.2-28.1-24.2c-11.6,0-18.8,6.5-22,15.4L662.7,599c6.6-15.7,22-27.1,42.6-27.1c27.1,0,48.8,19,53.1,44.1
					C763.4,645,745.6,671,713,670.7z"/>
				<path class="st0" d="M619.1,669.4l-13-74.9h-26l-3.7-21.3h74.5l3.8,21.3h-25.8l13,74.9H619.1z"/>
				<path class="st0" d="M576.9,669.4h-23.1L537,573.2h22.9L576.9,669.4z"/>
				<path class="st0" d="M481.5,670.7c-27.4,0-48.6-19.4-53-44.8c-4.9-28.7,14.9-54,44.7-54c26.5,0,48.8,19.4,53.1,44.8
					C531.2,645.4,511.5,670.7,481.5,670.7z M479.6,648.1c16.5,0,26.2-14,23.6-29.3c-2.5-13.7-13.3-24.4-27.9-24.4
					c-16.5,0-26.4,14-23.6,29.4C454.1,637.5,465,648.1,479.6,648.1z"/>
				<path class="st0" d="M421.4,669.4h-22.5l-10.7-60.6l-29.5,60.6h-22l-16.9-96.2h22.7l10.5,59.7l28.9-59.7h22.7L421.4,669.4z"/>
			</g>
			<g>
				<path class="st1" d="M179.1,621.3c0-28.1,21-49.4,49.3-49.4c18.6,0,34.3,9.5,42.8,23.7l-20.2,12.8c-4.3-8.6-12-14-22.5-14
					c-15.3,0-26,12-26,26.9c0,14.6,10.4,26.6,25.7,26.6c11.5,0,19.4-6.6,23.3-15.7l21.2,11.3c-8.2,15.9-23.9,27.1-44.4,27.1
					C198.8,670.7,179.1,648.7,179.1,621.3z"/>
				<path class="st1" d="M281.9,621.3c0-27.3,21.7-49.4,49.2-49.4c27.4,0,49.3,22.1,49.3,49.4c0,27.4-21.6,49.4-49.3,49.4
					C303.6,670.7,281.9,648.7,281.9,621.3z M357.3,621.3c0-14.8-11.3-26.9-26.2-26.9c-14.9,0-26,12.1-26,26.9
					c0,14.6,10.9,26.8,26,26.8C346.2,648.1,357.3,635.9,357.3,621.3z"/>
				<path class="st1" d="M397.1,573.2h24l36.2,57.7v-57.7h21.9v96.2h-22.3l-37.8-60.5v60.5h-22V573.2z"/>
				<path class="st1" d="M521.9,594.4h-26.1v-21.2h74.3v21.2h-25.8v75h-22.4V594.4z"/>
				<path class="st1" d="M586.7,573.2h41.4c23.2,0,36.1,14.9,36.1,33.1c0,12.3-5.9,22.7-15.6,28.3l17.9,34.8h-25.3l-13.6-28.9h-18.1
					v28.9h-22.9V573.2z M609.6,594.2v25.6h16.7c9.8,0,14.4-5.8,14.4-12.9c0-7.9-4.7-12.7-14.4-12.7H609.6z"/>
				<path class="st1" d="M710.2,573.2h22.1l35.6,96.2h-23.3l-5-14.4h-36.8l-5,14.4h-23.2L710.2,573.2z M709.9,635h22.7l-11.3-32.3
					L709.9,635z"/>
			</g>
		</g>
		<g>
			<path d="M989.2,586.3c0,6.9-4.5,11.5-11.4,11.5h-7.3v-23.1h7.5C984.7,574.8,989.2,579.4,989.2,586.3z M986.3,586.3
				c0-5.4-3.4-9-8.5-9h-4.5v17.9h4.5C982.9,595.3,986.3,591.7,986.3,586.3z"/>
			<path d="M996.1,577.4v8.4h10.2v2.5h-10.2v9.7h-2.7v-23.1h14.4v2.6H996.1z"/>
			<path d="M1032.1,586v11.9h-1.8l-0.5-4.8h-0.3c-1.5,3.2-4.5,5.2-8.5,5.2c-6.5,0-10.8-4.8-10.8-12c0-7.2,4.5-12,11.1-12
				c5.4,0,9.6,3.3,10.5,8.2h-3c-0.8-3.4-3.8-5.6-7.6-5.6c-4.9,0-8.2,3.8-8.2,9.3c0,5.6,3.4,9.4,8.4,9.4c4.3,0,7.4-2.9,7.9-7.4h-8
				V586H1032.1z"/>
			<path d="M1060.5,595.3v2.6h-0.9c-2,0-2.5-0.3-3.1-2l-2-5.9c-0.3-0.9-0.6-1.1-1.5-1.1h-6.6v9h-2.7v-23.1h8.6
				c4.7,0,7.8,2.6,7.8,6.7c0,2.9-1.6,5-4.1,5.9v0.4c0.7,0.3,1.1,0.8,1.4,1.8l1.6,4.9c0.2,0.6,0.4,0.8,1,0.8H1060.5z M1046.3,577.4
				v8.9h6c2.8,0,4.8-1.8,4.8-4.3c0-2.8-2.1-4.5-5.4-4.5H1046.3z"/>
			<path d="M1079,590.7h-13c0.3,3.3,2.4,5.4,5.5,5.4c2.3,0,4-1.1,4.8-2.9h2.5c-0.8,3-3.7,5.1-7.4,5.1c-4.6,0-7.8-3.3-7.8-8.4
				c0-5,3.1-8.4,7.7-8.4c4.6,0,7.7,3.4,7.7,8.4V590.7z M1066,589h10.5c-0.3-3.3-2.3-5.3-5.2-5.3C1068.3,583.7,1066.3,585.7,1066,589
				z"/>
			<path d="M1082.2,592.9h2.5c0.4,2,2.1,3.3,4.5,3.3c2.3,0,3.7-1.1,3.7-2.7c0-1.3-0.9-2.1-2.8-2.3l-2.7-0.4
				c-3.3-0.4-4.8-1.9-4.8-4.3c0-3,2.3-4.9,5.8-4.9c3.5,0,6.1,2,6.5,4.9h-2.5c-0.3-1.7-1.8-2.8-4-2.8c-2.1,0-3.4,1-3.4,2.6
				c0,1.3,1,2.1,2.8,2.3l2.7,0.4c3.3,0.4,4.8,1.9,4.8,4.3c0,3.1-2.5,5.1-6.2,5.1C1085.5,598.3,1082.6,596.1,1082.2,592.9z"/>
			<path d="M1114.3,590.7h-13c0.3,3.3,2.4,5.4,5.5,5.4c2.3,0,4-1.1,4.8-2.9h2.5c-0.8,3-3.7,5.1-7.4,5.1c-4.6,0-7.8-3.3-7.8-8.4
				c0-5,3.1-8.4,7.7-8.4c4.6,0,7.7,3.4,7.7,8.4V590.7z M1101.3,589h10.5c-0.3-3.3-2.3-5.3-5.2-5.3
				C1103.6,583.7,1101.6,585.7,1101.3,589z"/>
			<path d="M1130.8,587.7v10.1h-2.5v-2.6h-0.3c-1.2,1.9-3.1,3-5.6,3c-2.9,0-4.7-1.5-4.7-4.3c0-3.6,3.2-5.4,10.6-5.5v-0.6
				c0-2.6-1.5-4.3-3.9-4.3c-2,0-3.6,1.2-3.8,3.1h-2.6c0.6-3.4,3.2-5.3,6.6-5.3C1128.4,581.5,1130.8,583.9,1130.8,587.7z
				 M1128.2,590.6v-0.5c-5.6,0.1-8.1,1.3-8.1,3.6c0,1.6,1.1,2.5,3.1,2.5C1126.3,596.2,1128.2,594,1128.2,590.6z"/>
			<path d="M1143.3,581.9v2.7h-1.9c-2.3,0-3.3,1.5-3.3,4.5v8.8h-2.6v-16h2.4v2.3h0.4c0.5-1.4,1.8-2.3,3.6-2.3H1143.3z"/>
			<path d="M1145.9,589.9c0-5,3.1-8.4,7.8-8.4c3.8,0,6.8,2.3,7.4,5.7h-2.7c-0.4-2-2.3-3.3-4.7-3.3c-3.2,0-5.2,2.4-5.2,6
				c0,3.6,2,6,5.2,6c2.3,0,4.3-1.3,4.7-3.3h2.7c-0.6,3.4-3.6,5.7-7.4,5.7C1149,598.3,1145.9,594.9,1145.9,589.9z"/>
			<path d="M1178.8,587.4v10.5h-2.6v-9.4c0-2.8-1.5-4.6-3.8-4.6c-2.7,0-4.5,2.4-4.5,6.1v7.8h-2.6v-23.1h2.6v9.6h0.3c1-1.8,2.9-3,5-3
				C1176.5,581.5,1178.8,583.8,1178.8,587.4z"/>
			<path d="M1206.9,577.4h-7.8v20.5h-2.7v-20.5h-7.8v-2.6h18.3V577.4z"/>
			<path d="M1215,581.9v2.7h-1.9c-2.3,0-3.3,1.5-3.3,4.5v8.8h-2.6v-16h2.4v2.3h0.4c0.5-1.4,1.8-2.3,3.6-2.3H1215z"/>
			<path d="M1230.9,587.7v10.1h-2.5v-2.6h-0.3c-1.2,1.9-3.1,3-5.6,3c-2.9,0-4.7-1.5-4.7-4.3c0-3.6,3.2-5.4,10.6-5.5v-0.6
				c0-2.6-1.5-4.3-3.9-4.3c-2,0-3.6,1.2-3.8,3.1h-2.6c0.6-3.4,3.2-5.3,6.6-5.3C1228.5,581.5,1230.9,583.9,1230.9,587.7z
				 M1228.3,590.6v-0.5c-5.6,0.1-8.1,1.3-8.1,3.6c0,1.6,1.1,2.5,3.1,2.5C1226.4,596.2,1228.3,594,1228.3,590.6z"/>
			<path d="M1236.9,584.1h-3v-2.3h5.5v16h-2.5V584.1z M1235.5,576.3c0-1,0.9-1.9,1.9-1.9c1.1,0,1.9,0.9,1.9,1.9
				c0,1.1-0.9,1.9-1.9,1.9C1236.4,578.3,1235.5,577.4,1235.5,576.3z"/>
			<path d="M1257.8,587.4v10.5h-2.6v-9.4c0-2.8-1.5-4.6-3.9-4.6c-2.7,0-4.4,2.4-4.4,6.1v7.8h-2.6v-16h2.4v2.7h0.4
				c1-1.9,2.9-3.1,5.1-3.1C1255.5,581.5,1257.8,583.8,1257.8,587.4z"/>
			<path d="M1263.9,584.1h-3v-2.3h5.5v16h-2.5V584.1z M1262.5,576.3c0-1,0.9-1.9,1.9-1.9c1.1,0,1.9,0.9,1.9,1.9
				c0,1.1-0.9,1.9-1.9,1.9C1263.4,578.3,1262.5,577.4,1262.5,576.3z"/>
			<path d="M1284.8,587.4v10.5h-2.6v-9.4c0-2.8-1.5-4.6-3.9-4.6c-2.7,0-4.4,2.4-4.4,6.1v7.8h-2.6v-16h2.4v2.7h0.4
				c1-1.9,2.9-3.1,5.1-3.1C1282.5,581.5,1284.8,583.8,1284.8,587.4z"/>
			<path d="M1303.8,581.9v14.6c0,4.9-2.8,7.8-7.3,7.8c-3.8,0-6.5-2-6.8-5.4h2.4c0.2,2.1,1.9,3.4,4.2,3.4c3.1,0,4.9-2.3,4.9-5.9v-2
				h-0.3c-0.9,1.7-2.8,2.7-5.2,2.7c-4.1,0-6.9-3.1-6.9-7.8c0-4.7,2.8-7.8,6.9-7.8c2.4,0,4.4,1.1,5.3,2.9h0.3v-2.4H1303.8z
				 M1301.2,589.3c0-3.3-2-5.6-4.9-5.6c-2.9,0-4.9,2.3-4.9,5.6c0,3.3,2,5.6,4.9,5.6C1299.2,594.8,1301.2,592.6,1301.2,589.3z"/>
			<path d="M1336.5,586v11.9h-1.8l-0.5-4.8h-0.3c-1.5,3.2-4.5,5.2-8.5,5.2c-6.5,0-10.8-4.8-10.8-12c0-7.2,4.5-12,11.1-12
				c5.4,0,9.6,3.3,10.5,8.2h-3c-0.8-3.4-3.8-5.6-7.6-5.6c-4.9,0-8.2,3.8-8.2,9.3c0,5.6,3.4,9.4,8.4,9.4c4.3,0,7.4-2.9,7.9-7.4h-8
				V586H1336.5z"/>
			<path d="M1349.2,581.9v2.7h-1.9c-2.3,0-3.3,1.5-3.3,4.5v8.8h-2.6v-16h2.4v2.3h0.4c0.5-1.4,1.8-2.3,3.6-2.3H1349.2z"/>
			<path d="M1351.7,589.9c0-5,3.1-8.4,7.8-8.4c4.7,0,7.8,3.4,7.8,8.4c0,5.1-3.1,8.4-7.8,8.4C1354.9,598.3,1351.7,594.9,1351.7,589.9
				z M1364.7,589.9c0-3.6-2.1-6-5.2-6c-3.1,0-5.2,2.4-5.2,6c0,3.6,2.1,6,5.2,6C1362.7,595.9,1364.7,593.5,1364.7,589.9z"/>
			<path d="M1384.9,581.9v16h-2.4v-2.7h-0.4c-1,1.9-2.9,3.1-5.1,3.1c-3.3,0-5.6-2.3-5.6-5.9v-10.5h2.6v9.4c0,2.7,1.5,4.6,3.9,4.6
				c2.5,0,4.3-2.1,4.4-5.4v-8.5H1384.9z"/>
			<path d="M1404.8,589.9c0,5-2.8,8.4-6.9,8.4c-2.4,0-4.2-1.2-5.2-2.9h-0.4v8.5h-2.6v-22h2.4v2.7h0.4c0.9-1.9,2.8-3.2,5.3-3.2
				C1402,581.5,1404.8,584.9,1404.8,589.9z M1402.2,589.9c0-3.6-2-6-4.9-6c-2.9,0-4.9,2.4-4.9,6c0,3.6,1.9,6,4.9,6
				C1400.2,595.9,1402.2,593.5,1402.2,589.9z"/>
			<path d="M1418.7,595.3h10.6v2.6h-14.5v-2.5l9.5-9.4c1.6-1.6,2.3-3,2.3-4.7c0-2.9-1.9-4.4-4.4-4.4c-2.7,0-4.6,1.7-4.8,4.3h-2.7
				c0.3-4.1,3.4-6.8,7.7-6.8c4,0,7,2.3,7,6.6c0,2.4-0.9,4.4-3.5,6.9l-7.1,7V595.3z"/>
			<path d="M1447.9,590.5c0,4.7-3.2,7.8-8,7.8c-4.8,0-7.9-3.1-7.9-7.8c0-2.4,0.9-4.5,3-7.3l6.2-8.4h3.2l-6.3,8.2l0.2,0.3
				c0.8-0.3,1.6-0.4,2.4-0.4C1444.9,582.9,1447.9,586,1447.9,590.5z M1445.3,590.5c0-3.2-2.1-5.3-5.3-5.3c-3.2,0-5.3,2.1-5.3,5.3
				c0,3.2,2.1,5.4,5.3,5.4C1443.2,595.9,1445.3,593.7,1445.3,590.5z"/>
			<path d="M1467.1,591.5c0,4.1-3.2,6.8-8.1,6.8s-8.1-2.7-8.1-6.8c0-2.6,1.4-4.7,3.8-5.8v-0.3c-1.9-1-3-2.7-3-4.8
				c0-3.7,2.9-6.2,7.3-6.2s7.3,2.5,7.3,6.2c0,2.1-1.1,3.8-3,4.8v0.3C1465.7,586.8,1467.1,588.8,1467.1,591.5z M1464.4,591.2
				c0-2.7-2.2-4.5-5.4-4.5c-3.3,0-5.4,1.8-5.4,4.5c0,2.8,2.2,4.7,5.4,4.7C1462.3,595.9,1464.4,594,1464.4,591.2z M1454.4,580.9
				c0,2.2,1.9,3.7,4.7,3.7c2.8,0,4.6-1.5,4.6-3.7c0-2.5-1.8-4.1-4.6-4.1C1456.3,576.8,1454.4,578.4,1454.4,580.9z"/>
			<path d="M1486.2,590.5c0,4.7-3.2,7.8-8,7.8c-4.8,0-7.9-3.1-7.9-7.8c0-2.4,0.9-4.5,3-7.3l6.2-8.4h3.2l-6.3,8.2l0.2,0.3
				c0.8-0.3,1.6-0.4,2.4-0.4C1483.2,582.9,1486.2,586,1486.2,590.5z M1483.5,590.5c0-3.2-2.1-5.3-5.3-5.3c-3.2,0-5.3,2.1-5.3,5.3
				c0,3.2,2.1,5.4,5.3,5.4C1481.4,595.9,1483.5,593.7,1483.5,590.5z"/>
			<path d="M1489.3,585.6c0-1.2,0.9-2.1,2.1-2.1c1.2,0,2.1,0.9,2.1,2.1c0,1.2-0.9,2.1-2.1,2.1
				C1490.3,587.7,1489.3,586.8,1489.3,585.6z M1489.3,596.2c0-1.2,0.9-2.1,2.1-2.1c1.2,0,2.1,0.9,2.1,2.1c0,1.2-0.9,2.1-2.1,2.1
				C1490.3,598.3,1489.3,597.4,1489.3,596.2z"/>
			<path d="M969.6,620.9c0-7.2,4.5-12,11.2-12c5.5,0,9.7,3.5,10.5,8.7h-3c-0.8-3.6-3.9-6-7.6-6c-4.9,0-8.2,3.7-8.2,9.3
				c0,5.6,3.3,9.4,8.2,9.4c3.7,0,6.8-2.4,7.6-6h3c-0.8,5.2-5,8.6-10.5,8.6C974,632.9,969.6,628.1,969.6,620.9z"/>
			<path d="M994.7,624.5c0-5,3.1-8.4,7.8-8.4c4.7,0,7.8,3.4,7.8,8.4c0,5.1-3.1,8.4-7.8,8.4C997.8,632.9,994.7,629.5,994.7,624.5z
				 M1007.7,624.5c0-3.6-2.1-6-5.2-6c-3.1,0-5.2,2.4-5.2,6c0,3.6,2.1,6,5.2,6C1005.6,630.5,1007.7,628.1,1007.7,624.5z"/>
			<path d="M1028.1,622v10.5h-2.6v-9.4c0-2.8-1.5-4.6-3.9-4.6c-2.7,0-4.4,2.4-4.4,6.1v7.8h-2.6v-16h2.4v2.7h0.4
				c1-1.9,2.9-3.1,5.1-3.1C1025.7,616,1028.1,618.4,1028.1,622z"/>
			<path d="M1036.7,618.7v10.7c0,0.5,0.3,0.8,0.8,0.8h2.9v2.3h-3.5c-1.9,0-2.8-0.9-2.8-2.8v-11h-3.2v-2.3h3.2v-4.1h2.5v4.1h3.7v2.3
				H1036.7z"/>
			<path d="M1051.9,616.5v2.7h-1.9c-2.3,0-3.3,1.5-3.3,4.5v8.8h-2.6v-16h2.4v2.3h0.4c0.5-1.4,1.8-2.3,3.6-2.3H1051.9z"/>
			<path d="M1067.8,622.3v10.1h-2.5v-2.6h-0.3c-1.2,1.9-3.1,3-5.6,3c-2.9,0-4.7-1.5-4.7-4.3c0-3.6,3.2-5.4,10.6-5.5v-0.6
				c0-2.6-1.5-4.3-3.9-4.3c-2,0-3.6,1.2-3.8,3.1h-2.6c0.6-3.4,3.2-5.3,6.6-5.3C1065.4,616,1067.8,618.5,1067.8,622.3z M1065.2,625.1
				v-0.5c-5.6,0.1-8.1,1.3-8.1,3.6c0,1.6,1.1,2.5,3.1,2.5C1063.3,630.8,1065.2,628.6,1065.2,625.1z"/>
			<path d="M1086.9,609.4v23.1h-2.6v-2.6h-0.3c-1,1.8-2.8,3-5.2,3c-4.1,0-6.9-3.4-6.9-8.4c0-5,2.8-8.4,6.9-8.4
				c2.3,0,4.2,1.2,5.2,2.9h0.4v-9.6H1086.9z M1084.3,624.5c0-3.6-2-6-4.9-6c-2.9,0-4.9,2.4-4.9,6c0,3.6,2,6,4.9,6
				C1082.3,630.5,1084.3,628.1,1084.3,624.5z"/>
			<path d="M1093.4,618.7h-3v-2.3h5.5v16h-2.5V618.7z M1092,610.9c0-1,0.9-1.9,1.9-1.9c1.1,0,1.9,0.9,1.9,1.9c0,1.1-0.9,1.9-1.9,1.9
				C1092.9,612.9,1092,612,1092,610.9z"/>
			<path d="M1100.2,624.5c0-5,3.1-8.4,7.8-8.4c3.8,0,6.8,2.3,7.4,5.7h-2.7c-0.4-2-2.3-3.3-4.7-3.3c-3.2,0-5.2,2.4-5.2,6
				c0,3.6,2,6,5.2,6c2.3,0,4.3-1.3,4.7-3.3h2.7c-0.6,3.4-3.6,5.7-7.4,5.7C1103.3,632.9,1100.2,629.5,1100.2,624.5z"/>
			<path d="M1123.5,618.7v10.7c0,0.5,0.3,0.8,0.8,0.8h2.9v2.3h-3.5c-1.9,0-2.8-0.9-2.8-2.8v-11h-3.2v-2.3h3.2v-4.1h2.5v4.1h3.7v2.3
				H1123.5z"/>
			<path d="M1133.3,618.7h-3v-2.3h5.5v16h-2.5V618.7z M1131.9,610.9c0-1,0.9-1.9,1.9-1.9c1.1,0,1.9,0.9,1.9,1.9
				c0,1.1-0.9,1.9-1.9,1.9C1132.8,612.9,1131.9,612,1131.9,610.9z"/>
			<path d="M1140.1,624.5c0-5,3.1-8.4,7.8-8.4c4.7,0,7.8,3.4,7.8,8.4c0,5.1-3.1,8.4-7.8,8.4C1143.2,632.9,1140.1,629.5,1140.1,624.5
				z M1153.1,624.5c0-3.6-2.1-6-5.2-6c-3.1,0-5.2,2.4-5.2,6c0,3.6,2.1,6,5.2,6C1151,630.5,1153.1,628.1,1153.1,624.5z"/>
			<path d="M1173.4,622v10.5h-2.6v-9.4c0-2.8-1.5-4.6-3.9-4.6c-2.7,0-4.4,2.4-4.4,6.1v7.8h-2.6v-16h2.4v2.7h0.4
				c1-1.9,2.9-3.1,5.1-3.1C1171.1,616,1173.4,618.4,1173.4,622z"/>
			<path d="M1183.5,625h2.9c0.5,3.3,3,5.5,6.6,5.5c3.2,0,5.6-1.7,5.6-4.3c0-2.2-1.6-3.6-4.4-3.9l-3.8-0.5c-3.9-0.5-6.2-2.6-6.2-6
				c0-4,3.3-6.7,8-6.7c4.7,0,8,2.7,8.7,6.9h-2.9c-0.4-2.7-2.5-4.5-5.7-4.5c-3,0-5.2,1.6-5.2,4.1c0,1.9,1.3,3.3,3.9,3.6l3.7,0.5
				c4.3,0.6,6.8,2.8,6.8,6.4c0,4.2-3.5,6.9-8.4,6.9C1187.9,632.9,1184.3,629.8,1183.5,625z"/>
			<path d="M1209.6,618.7v10.7c0,0.5,0.3,0.8,0.8,0.8h2.9v2.3h-3.5c-1.9,0-2.8-0.9-2.8-2.8v-11h-3.2v-2.3h3.2v-4.1h2.5v4.1h3.7v2.3
				H1209.6z"/>
			<path d="M1230.4,616.5v16h-2.4v-2.7h-0.4c-1,1.9-2.9,3.1-5.1,3.1c-3.3,0-5.6-2.3-5.6-5.9v-10.5h2.6v9.4c0,2.7,1.5,4.6,3.9,4.6
				c2.5,0,4.3-2.1,4.4-5.4v-8.5H1230.4z"/>
			<path d="M1249.7,609.4v23.1h-2.6v-2.6h-0.3c-1,1.8-2.8,3-5.2,3c-4.1,0-6.9-3.4-6.9-8.4c0-5,2.8-8.4,6.9-8.4
				c2.3,0,4.2,1.2,5.2,2.9h0.4v-9.6H1249.7z M1247.1,624.5c0-3.6-2-6-4.9-6c-2.9,0-4.9,2.4-4.9,6c0,3.6,2,6,4.9,6
				C1245.1,630.5,1247.1,628.1,1247.1,624.5z"/>
			<path d="M1256.2,618.7h-3v-2.3h5.5v16h-2.5V618.7z M1254.8,610.9c0-1,0.9-1.9,1.9-1.9c1.1,0,1.9,0.9,1.9,1.9
				c0,1.1-0.9,1.9-1.9,1.9C1255.7,612.9,1254.8,612,1254.8,610.9z"/>
			<path d="M1278.3,625.3h-13c0.3,3.3,2.4,5.4,5.5,5.4c2.3,0,4-1.1,4.8-2.9h2.5c-0.8,3-3.7,5.1-7.4,5.1c-4.6,0-7.8-3.3-7.8-8.4
				c0-5,3.1-8.4,7.7-8.4c4.6,0,7.7,3.4,7.7,8.4V625.3z M1265.4,623.6h10.5c-0.3-3.3-2.3-5.3-5.2-5.3
				C1267.6,618.3,1265.7,620.3,1265.4,623.6z"/>
			<path d="M1281.6,627.5h2.5c0.4,2,2.1,3.3,4.5,3.3c2.3,0,3.7-1.1,3.7-2.7c0-1.3-0.9-2.1-2.8-2.3l-2.7-0.4
				c-3.3-0.4-4.8-1.9-4.8-4.3c0-3,2.3-4.9,5.8-4.9c3.5,0,6.1,2,6.5,4.9h-2.5c-0.3-1.7-1.8-2.8-4-2.8c-2.1,0-3.4,1-3.4,2.6
				c0,1.3,1,2.1,2.8,2.3l2.7,0.4c3.3,0.4,4.8,1.9,4.8,4.3c0,3.1-2.5,5.1-6.2,5.1C1284.8,632.9,1282,630.7,1281.6,627.5z"/>
			<path d="M1304.9,620.9h16.8v2.3h-16.8V620.9z"/>
			<path d="M1331.8,620.9c0-7.2,4.5-12,11.2-12c5.5,0,9.7,3.5,10.5,8.7h-3c-0.8-3.6-3.9-6-7.6-6c-4.9,0-8.2,3.7-8.2,9.3
				c0,5.6,3.3,9.4,8.2,9.4c3.7,0,6.8-2.4,7.6-6h3c-0.8,5.2-5,8.6-10.5,8.6C1336.2,632.9,1331.8,628.1,1331.8,620.9z"/>
			<path d="M1356.9,624.5c0-5,3.1-8.4,7.8-8.4c4.7,0,7.8,3.4,7.8,8.4c0,5.1-3.1,8.4-7.8,8.4C1360,632.9,1356.9,629.5,1356.9,624.5z
				 M1369.9,624.5c0-3.6-2.1-6-5.2-6c-3.1,0-5.2,2.4-5.2,6c0,3.6,2.1,6,5.2,6C1367.8,630.5,1369.9,628.1,1369.9,624.5z"/>
			<path d="M1390.2,622v10.5h-2.6v-9.4c0-2.8-1.5-4.6-3.9-4.6c-2.7,0-4.4,2.4-4.4,6.1v7.8h-2.6v-16h2.4v2.7h0.4
				c1-1.9,2.9-3.1,5.1-3.1C1387.9,616,1390.2,618.4,1390.2,622z"/>
			<path d="M1394.1,627.5h2.5c0.4,2,2.1,3.3,4.5,3.3c2.3,0,3.7-1.1,3.7-2.7c0-1.3-0.9-2.1-2.8-2.3l-2.7-0.4
				c-3.3-0.4-4.8-1.9-4.8-4.3c0-3,2.3-4.9,5.8-4.9c3.5,0,6.1,2,6.5,4.9h-2.5c-0.3-1.7-1.8-2.8-4-2.8c-2.1,0-3.4,1-3.4,2.6
				c0,1.3,1,2.1,2.8,2.3l2.7,0.4c3.3,0.4,4.8,1.9,4.8,4.3c0,3.1-2.5,5.1-6.2,5.1C1397.3,632.9,1394.5,630.7,1394.1,627.5z"/>
			<path d="M1415.4,618.7v10.7c0,0.5,0.3,0.8,0.8,0.8h2.9v2.3h-3.5c-1.9,0-2.8-0.9-2.8-2.8v-11h-3.2v-2.3h3.2v-4.1h2.5v4.1h3.7v2.3
				H1415.4z"/>
			<path d="M1437.2,625.3h-13c0.3,3.3,2.4,5.4,5.5,5.4c2.3,0,4-1.1,4.8-2.9h2.5c-0.8,3-3.7,5.1-7.4,5.1c-4.6,0-7.8-3.3-7.8-8.4
				c0-5,3.1-8.4,7.7-8.4c4.6,0,7.7,3.4,7.7,8.4V625.3z M1424.3,623.6h10.5c-0.3-3.3-2.3-5.3-5.2-5.3
				C1426.6,618.3,1424.6,620.3,1424.3,623.6z"/>
			<path d="M1441.4,629.7v-20.3h2.6v20c0,0.5,0.3,0.8,0.8,0.8h2v2.3h-2.6C1442.3,632.5,1441.4,631.6,1441.4,629.7z"/>
			<path d="M1450.3,629.7v-20.3h2.6v20c0,0.5,0.3,0.8,0.8,0.8h2v2.3h-2.6C1451.1,632.5,1450.3,631.6,1450.3,629.7z"/>
			<path d="M1471.9,622.3v10.1h-2.5v-2.6h-0.3c-1.2,1.9-3.1,3-5.6,3c-2.9,0-4.7-1.5-4.7-4.3c0-3.6,3.2-5.4,10.6-5.5v-0.6
				c0-2.6-1.5-4.3-3.9-4.3c-2,0-3.6,1.2-3.8,3.1h-2.6c0.6-3.4,3.2-5.3,6.6-5.3C1469.6,616,1471.9,618.5,1471.9,622.3z M1469.4,625.1
				v-0.5c-5.6,0.1-8.1,1.3-8.1,3.6c0,1.6,1.1,2.5,3.1,2.5C1467.4,630.8,1469.4,628.6,1469.4,625.1z"/>
			<path d="M1480.5,618.7v10.7c0,0.5,0.3,0.8,0.8,0.8h2.9v2.3h-3.5c-1.9,0-2.8-0.9-2.8-2.8v-11h-3.2v-2.3h3.2v-4.1h2.5v4.1h3.7v2.3
				H1480.5z"/>
			<path d="M1490.3,618.7h-3v-2.3h5.5v16h-2.5V618.7z M1488.9,610.9c0-1,0.9-1.9,1.9-1.9c1.1,0,1.9,0.9,1.9,1.9
				c0,1.1-0.9,1.9-1.9,1.9C1489.8,612.9,1488.9,612,1488.9,610.9z"/>
			<path d="M1497.1,624.5c0-5,3.1-8.4,7.8-8.4c4.7,0,7.8,3.4,7.8,8.4c0,5.1-3.1,8.4-7.8,8.4C1500.2,632.9,1497.1,629.5,1497.1,624.5
				z M1510.1,624.5c0-3.6-2.1-6-5.2-6c-3.1,0-5.2,2.4-5.2,6c0,3.6,2.1,6,5.2,6C1508,630.5,1510.1,628.1,1510.1,624.5z"/>
			<path d="M1530.4,622v10.5h-2.6v-9.4c0-2.8-1.5-4.6-3.9-4.6c-2.7,0-4.4,2.4-4.4,6.1v7.8h-2.6v-16h2.4v2.7h0.4
				c1-1.9,2.9-3.1,5.1-3.1C1528.1,616,1530.4,618.4,1530.4,622z"/>
			<path d="M1534.2,627.5h2.5c0.4,2,2.1,3.3,4.5,3.3c2.3,0,3.7-1.1,3.7-2.7c0-1.3-0.9-2.1-2.8-2.3l-2.7-0.4
				c-3.3-0.4-4.8-1.9-4.8-4.3c0-3,2.3-4.9,5.8-4.9c3.5,0,6.1,2,6.5,4.9h-2.5c-0.3-1.7-1.8-2.8-4-2.8c-2.1,0-3.4,1-3.4,2.6
				c0,1.3,1,2.1,2.8,2.3l2.7,0.4c3.3,0.4,4.8,1.9,4.8,4.3c0,3.1-2.5,5.1-6.2,5.1C1537.5,632.9,1534.7,630.7,1534.2,627.5z"/>
			<path d="M1555,631.8L1555,631.8l-2.5,4.9l-1.5-0.7l1.4-3.2c-0.8-0.3-1.3-1-1.3-1.9c0-1.2,0.9-2.1,2.1-2.1c1.2,0,2.1,0.9,2.1,2.1
				C1555.3,631.2,1555.2,631.5,1555,631.8z"/>
			<path d="M1584.4,609.4v23.1h-2.7v-10.3h-12.5v10.3h-2.7v-23.1h2.7v10.2h12.5v-10.2H1584.4z"/>
			<path d="M1604.2,625.3h-13c0.3,3.3,2.4,5.4,5.5,5.4c2.3,0,4-1.1,4.8-2.9h2.5c-0.8,3-3.7,5.1-7.4,5.1c-4.6,0-7.8-3.3-7.8-8.4
				c0-5,3.1-8.4,7.7-8.4c4.6,0,7.7,3.4,7.7,8.4V625.3z M1591.2,623.6h10.5c-0.3-3.3-2.3-5.3-5.2-5.3
				C1593.5,618.3,1591.5,620.3,1591.2,623.6z"/>
			<path d="M1621.7,616.5v16h-2.4v-2.7h-0.4c-1,1.9-2.9,3.1-5.1,3.1c-3.3,0-5.6-2.3-5.6-5.9v-10.5h2.6v9.4c0,2.7,1.5,4.6,3.9,4.6
				c2.5,0,4.3-2.1,4.4-5.4v-8.5H1621.7z"/>
			<path d="M1634.4,616.5v2.7h-1.9c-2.3,0-3.3,1.5-3.3,4.5v8.8h-2.6v-16h2.4v2.3h0.4c0.5-1.4,1.8-2.3,3.6-2.3H1634.4z"/>
			<path d="M1640.2,618.7h-3v-2.3h5.5v16h-2.5V618.7z M1638.8,610.9c0-1,0.9-1.9,1.9-1.9c1.1,0,1.9,0.9,1.9,1.9
				c0,1.1-0.9,1.9-1.9,1.9C1639.7,612.9,1638.8,612,1638.8,610.9z"/>
			<path d="M1646.7,627.5h2.5c0.4,2,2.1,3.3,4.5,3.3c2.3,0,3.7-1.1,3.7-2.7c0-1.3-0.9-2.1-2.8-2.3l-2.7-0.4
				c-3.3-0.4-4.8-1.9-4.8-4.3c0-3,2.3-4.9,5.8-4.9c3.5,0,6.1,2,6.5,4.9h-2.5c-0.3-1.7-1.8-2.8-4-2.8c-2.1,0-3.4,1-3.4,2.6
				c0,1.3,1,2.1,2.8,2.3l2.7,0.4c3.3,0.4,4.8,1.9,4.8,4.3c0,3.1-2.5,5.1-6.2,5.1C1649.9,632.9,1647.1,630.7,1646.7,627.5z"/>
			<path d="M1668,618.7v10.7c0,0.5,0.3,0.8,0.8,0.8h2.9v2.3h-3.5c-1.9,0-2.8-0.9-2.8-2.8v-11h-3.2v-2.3h3.2v-4.1h2.5v4.1h3.7v2.3
				H1668z"/>
			<path d="M1677.8,618.7h-3v-2.3h5.5v16h-2.5V618.7z M1676.4,610.9c0-1,0.9-1.9,1.9-1.9c1.1,0,1.9,0.9,1.9,1.9
				c0,1.1-0.9,1.9-1.9,1.9C1677.3,612.9,1676.4,612,1676.4,610.9z"/>
			<path d="M1684.6,624.5c0-5,3.1-8.4,7.8-8.4c3.8,0,6.8,2.3,7.4,5.7h-2.7c-0.4-2-2.3-3.3-4.7-3.3c-3.2,0-5.2,2.4-5.2,6
				c0,3.6,2,6,5.2,6c2.3,0,4.3-1.3,4.7-3.3h2.7c-0.6,3.4-3.6,5.7-7.4,5.7C1687.7,632.9,1684.6,629.5,1684.6,624.5z"/>
			<path d="M1703.1,627.5h2.5c0.4,2,2.1,3.3,4.5,3.3c2.3,0,3.7-1.1,3.7-2.7c0-1.3-0.9-2.1-2.8-2.3l-2.7-0.4
				c-3.3-0.4-4.8-1.9-4.8-4.3c0-3,2.3-4.9,5.8-4.9c3.5,0,6.1,2,6.5,4.9h-2.5c-0.3-1.7-1.8-2.8-4-2.8c-2.1,0-3.4,1-3.4,2.6
				c0,1.3,1,2.1,2.8,2.3l2.7,0.4c3.3,0.4,4.8,1.9,4.8,4.3c0,3.1-2.5,5.1-6.2,5.1C1706.4,632.9,1703.6,630.7,1703.1,627.5z"/>
			<path d="M1723.9,631.8L1723.9,631.8l-2.5,4.9l-1.5-0.7l1.4-3.2c-0.8-0.3-1.3-1-1.3-1.9c0-1.2,0.9-2.1,2.1-2.1
				c1.2,0,2.1,0.9,2.1,2.1C1724.2,631.2,1724.1,631.5,1723.9,631.8z"/>
			<path d="M982.7,656.9v10.1h-2.5v-2.6h-0.3c-1.2,1.9-3.1,3-5.6,3c-2.9,0-4.7-1.5-4.7-4.3c0-3.6,3.2-5.4,10.6-5.5v-0.6
				c0-2.6-1.5-4.3-3.9-4.3c-2,0-3.6,1.2-3.8,3.1h-2.6c0.6-3.4,3.2-5.3,6.6-5.3C980.4,650.6,982.7,653,982.7,656.9z M980.2,659.7
				v-0.5c-5.6,0.1-8.1,1.3-8.1,3.6c0,1.6,1.1,2.5,3.1,2.5C978.2,665.4,980.2,663.2,980.2,659.7z"/>
			<path d="M1001,656.6v10.5h-2.6v-9.4c0-2.8-1.5-4.6-3.9-4.6c-2.7,0-4.4,2.4-4.4,6.1v7.8h-2.6v-16h2.4v2.7h0.4
				c1-1.9,2.9-3.1,5.1-3.1C998.7,650.6,1001,653,1001,656.6z"/>
			<path d="M1020.1,644v23.1h-2.6v-2.6h-0.3c-1,1.8-2.8,3-5.2,3c-4.1,0-6.9-3.4-6.9-8.4c0-5,2.8-8.4,6.9-8.4c2.3,0,4.2,1.2,5.2,2.9
				h0.4V644H1020.1z M1017.5,659.1c0-3.6-2-6-4.9-6c-2.9,0-4.9,2.4-4.9,6c0,3.6,2,6,4.9,6C1015.6,665.1,1017.5,662.7,1017.5,659.1z"
				/>
			<path d="M1030.8,655.5c0-7.2,4.5-12,11.2-12c5.5,0,9.7,3.5,10.5,8.7h-3c-0.8-3.6-3.9-6-7.6-6c-4.9,0-8.2,3.7-8.2,9.3
				c0,5.6,3.3,9.4,8.2,9.4c3.7,0,6.8-2.4,7.6-6h3c-0.8,5.2-5,8.6-10.5,8.6C1035.3,667.5,1030.8,662.7,1030.8,655.5z"/>
			<path d="M1056,659.1c0-5,3.1-8.4,7.8-8.4c4.7,0,7.8,3.4,7.8,8.4c0,5.1-3.1,8.4-7.8,8.4C1059.1,667.5,1056,664.1,1056,659.1z
				 M1068.9,659.1c0-3.6-2.1-6-5.2-6c-3.1,0-5.2,2.4-5.2,6c0,3.6,2.1,6,5.2,6C1066.9,665.1,1068.9,662.7,1068.9,659.1z"/>
			<path d="M1089.3,656.6v10.5h-2.6v-9.4c0-2.8-1.5-4.6-3.9-4.6c-2.7,0-4.4,2.4-4.4,6.1v7.8h-2.6v-16h2.4v2.7h0.4
				c1-1.9,2.9-3.1,5.1-3.1C1087,650.6,1089.3,653,1089.3,656.6z"/>
			<path d="M1093.4,659.1c0-5,3.1-8.4,7.8-8.4c3.8,0,6.8,2.3,7.4,5.7h-2.7c-0.4-2-2.3-3.3-4.7-3.3c-3.2,0-5.2,2.4-5.2,6
				c0,3.6,2,6,5.2,6c2.3,0,4.3-1.3,4.7-3.3h2.7c-0.6,3.4-3.6,5.7-7.4,5.7C1096.5,667.5,1093.4,664.1,1093.4,659.1z"/>
			<path d="M1127.5,659.9h-13c0.3,3.3,2.4,5.4,5.5,5.4c2.3,0,4-1.1,4.8-2.9h2.5c-0.8,3-3.7,5.1-7.4,5.1c-4.6,0-7.8-3.3-7.8-8.4
				c0-5,3.1-8.4,7.7-8.4c4.6,0,7.7,3.4,7.7,8.4V659.9z M1114.5,658.2h10.5c-0.3-3.3-2.3-5.3-5.2-5.3
				C1116.8,652.9,1114.8,654.9,1114.5,658.2z"/>
			<path d="M1146.7,659.1c0,5-2.8,8.4-6.9,8.4c-2.4,0-4.2-1.2-5.2-2.9h-0.4v8.5h-2.6v-22h2.4v2.7h0.4c0.9-1.9,2.8-3.2,5.3-3.2
				C1143.9,650.6,1146.7,654,1146.7,659.1z M1144.1,659.1c0-3.6-2-6-4.9-6c-2.9,0-4.9,2.4-4.9,6c0,3.6,1.9,6,4.9,6
				C1142.1,665.1,1144.1,662.7,1144.1,659.1z"/>
			<path d="M1154.7,653.3V664c0,0.5,0.3,0.8,0.8,0.8h2.9v2.3h-3.5c-1.9,0-2.8-0.9-2.8-2.8v-11h-3.2v-2.3h3.2V647h2.5v4.1h3.7v2.3
				H1154.7z"/>
			<path d="M1161.3,662.1h2.5c0.4,2,2.1,3.3,4.5,3.3c2.3,0,3.7-1.1,3.7-2.7c0-1.3-0.9-2.1-2.8-2.3l-2.7-0.4
				c-3.3-0.4-4.8-1.9-4.8-4.3c0-3,2.3-4.9,5.8-4.9c3.5,0,6.1,2,6.5,4.9h-2.5c-0.3-1.7-1.8-2.8-4-2.8c-2.1,0-3.4,1-3.4,2.6
				c0,1.3,1,2.1,2.8,2.3l2.7,0.4c3.3,0.4,4.8,1.9,4.8,4.3c0,3.1-2.5,5.1-6.2,5.1C1164.6,667.5,1161.8,665.3,1161.3,662.1z"/>
			<path d="M1184.6,659.1c0-5,3.1-8.4,7.8-8.4c4.7,0,7.8,3.4,7.8,8.4c0,5.1-3.1,8.4-7.8,8.4C1187.7,667.5,1184.6,664.1,1184.6,659.1
				z M1197.6,659.1c0-3.6-2.1-6-5.2-6c-3.1,0-5.2,2.4-5.2,6c0,3.6,2.1,6,5.2,6C1195.5,665.1,1197.6,662.7,1197.6,659.1z"/>
			<path d="M1208.3,647v4.1h3.7v2.3h-3.7v13.7h-2.6v-13.7h-3.2v-2.3h3.2v-4.3c0-1.9,0.9-2.8,2.8-2.8h3.5v2.3h-2.9
				C1208.5,646.3,1208.3,646.5,1208.3,647z"/>
			<path d="M1226.1,653.3V664c0,0.5,0.3,0.8,0.8,0.8h2.9v2.3h-3.5c-1.9,0-2.8-0.9-2.8-2.8v-11h-3.2v-2.3h3.2V647h2.5v4.1h3.7v2.3
				H1226.1z"/>
			<path d="M1247.1,656.6v10.5h-2.6v-9.4c0-2.8-1.5-4.6-3.8-4.6c-2.7,0-4.5,2.4-4.5,6.1v7.8h-2.6V644h2.6v9.6h0.3c1-1.8,2.9-3,5-3
				C1244.8,650.6,1247.1,653,1247.1,656.6z"/>
			<path d="M1266.6,659.9h-13c0.3,3.3,2.4,5.4,5.5,5.4c2.3,0,4-1.1,4.8-2.9h2.5c-0.8,3-3.7,5.1-7.4,5.1c-4.6,0-7.8-3.3-7.8-8.4
				c0-5,3.1-8.4,7.7-8.4c4.6,0,7.7,3.4,7.7,8.4V659.9z M1253.6,658.2h10.5c-0.3-3.3-2.3-5.3-5.2-5.3
				C1255.9,652.9,1253.9,654.9,1253.6,658.2z"/>
			<path d="M1276.6,655.5c0-7.2,4.5-12,11.2-12c5.5,0,9.7,3.5,10.5,8.7h-3c-0.8-3.6-3.9-6-7.6-6c-4.9,0-8.2,3.7-8.2,9.3
				c0,5.6,3.3,9.4,8.2,9.4c3.7,0,6.8-2.4,7.6-6h3c-0.8,5.2-5,8.6-10.5,8.6C1281.1,667.5,1276.6,662.7,1276.6,655.5z"/>
			<path d="M1301.8,659.1c0-5,3.1-8.4,7.8-8.4c4.7,0,7.8,3.4,7.8,8.4c0,5.1-3.1,8.4-7.8,8.4C1304.9,667.5,1301.8,664.1,1301.8,659.1
				z M1314.7,659.1c0-3.6-2.1-6-5.2-6c-3.1,0-5.2,2.4-5.2,6c0,3.6,2.1,6,5.2,6C1312.7,665.1,1314.7,662.7,1314.7,659.1z"/>
			<path d="M1335.1,656.6v10.5h-2.6v-9.4c0-2.8-1.5-4.6-3.9-4.6c-2.7,0-4.4,2.4-4.4,6.1v7.8h-2.6v-16h2.4v2.7h0.4
				c1-1.9,2.9-3.1,5.1-3.1C1332.8,650.6,1335.1,653,1335.1,656.6z"/>
			<path d="M1343.7,653.3V664c0,0.5,0.3,0.8,0.8,0.8h2.9v2.3h-3.5c-1.9,0-2.8-0.9-2.8-2.8v-11h-3.2v-2.3h3.2V647h2.5v4.1h3.7v2.3
				H1343.7z"/>
			<path d="M1359,651.1v2.7h-1.9c-2.3,0-3.3,1.5-3.3,4.5v8.8h-2.6v-16h2.4v2.3h0.4c0.5-1.4,1.8-2.3,3.6-2.3H1359z"/>
			<path d="M1374.8,656.9v10.1h-2.5v-2.6h-0.3c-1.2,1.9-3.1,3-5.6,3c-2.9,0-4.7-1.5-4.7-4.3c0-3.6,3.2-5.4,10.6-5.5v-0.6
				c0-2.6-1.5-4.3-3.9-4.3c-2,0-3.6,1.2-3.8,3.1h-2.6c0.6-3.4,3.2-5.3,6.6-5.3C1372.4,650.6,1374.8,653,1374.8,656.9z M1372.2,659.7
				v-0.5c-5.6,0.1-8.1,1.3-8.1,3.6c0,1.6,1.1,2.5,3.1,2.5C1370.3,665.4,1372.2,663.2,1372.2,659.7z"/>
			<path d="M1393.9,644v23.1h-2.6v-2.6h-0.3c-1,1.8-2.8,3-5.2,3c-4.1,0-6.9-3.4-6.9-8.4c0-5,2.8-8.4,6.9-8.4c2.3,0,4.2,1.2,5.2,2.9
				h0.4V644H1393.9z M1391.4,659.1c0-3.6-2-6-4.9-6c-2.9,0-4.9,2.4-4.9,6c0,3.6,2,6,4.9,6C1389.4,665.1,1391.4,662.7,1391.4,659.1z"
				/>
			<path d="M1400.4,653.3h-3v-2.3h5.5v16h-2.5V653.3z M1399.1,645.5c0-1,0.9-1.9,1.9-1.9c1.1,0,1.9,0.9,1.9,1.9
				c0,1.1-0.9,1.9-1.9,1.9C1399.9,647.4,1399.1,646.6,1399.1,645.5z"/>
			<path d="M1407.2,659.1c0-5,3.1-8.4,7.8-8.4c3.8,0,6.8,2.3,7.4,5.7h-2.7c-0.4-2-2.3-3.3-4.7-3.3c-3.2,0-5.2,2.4-5.2,6
				c0,3.6,2,6,5.2,6c2.3,0,4.3-1.3,4.7-3.3h2.7c-0.6,3.4-3.6,5.7-7.4,5.7C1410.3,667.5,1407.2,664.1,1407.2,659.1z"/>
			<path d="M1430.6,653.3V664c0,0.5,0.3,0.8,0.8,0.8h2.9v2.3h-3.5c-1.9,0-2.8-0.9-2.8-2.8v-11h-3.2v-2.3h3.2V647h2.5v4.1h3.7v2.3
				H1430.6z"/>
			<path d="M1437,659.1c0-5,3.1-8.4,7.8-8.4c4.7,0,7.8,3.4,7.8,8.4c0,5.1-3.1,8.4-7.8,8.4C1440.1,667.5,1437,664.1,1437,659.1z
				 M1450,659.1c0-3.6-2.1-6-5.2-6c-3.1,0-5.2,2.4-5.2,6c0,3.6,2.1,6,5.2,6C1447.9,665.1,1450,662.7,1450,659.1z"/>
			<path d="M1464.7,651.1v2.7h-1.9c-2.3,0-3.3,1.5-3.3,4.5v8.8h-2.6v-16h2.4v2.3h0.4c0.5-1.4,1.8-2.3,3.6-2.3H1464.7z"/>
			<path d="M1482.7,651.1l-7,18.3c-0.7,1.8-1.1,2.3-2.2,2.7l-3.8,1.4l-0.9-2.2l3.1-1.2c0.6-0.2,0.7-0.4,1.1-1.4
				c0.4-1,0.3-1.3,0.2-1.8l-6.1-15.8h3l4.6,13.1h0.5l4.5-13.1H1482.7z"/>
		</g>
	</g>
</g>
</svg>
